<?xml version="1.0" encoding="utf-8"?>
<!-- Generator: Adobe Illustrator 19.0.0, SVG Export Plug-In . SVG Version: 6.00 Build 0)  -->
<svg version="1.1" id="bitten" xmlns="http://www.w3.org/2000/svg" xmlns:xlink="http://www.w3.org/1999/xlink" x="0px" y="0px"
	 viewBox="0 0 640 338" style="enable-background:new 0 0 640 338;" xml:space="preserve">
<style type="text/css">
	.st0{fill:#B80F26;}
	.st1{fill:none;stroke:#FFFFFF;stroke-width:2;stroke-miterlimit:10;}
	.st2{fill:none;}
	.st3{fill:#FFFFFF;}
	.st4{font-family:'Impact';}
	.st5{font-size:29px;}
	.st6{fill:#FFFFFB;}
	.st7{fill:#025074;}
	.st8{fill:#FCFCFC;}
	.st8:hover{fill:#FCFCFC; cursor:pointer;}
	.st9{fill:#999099;}
	.st10{font-family:'GeosansLight';}
	.st11{font-size:20px;}
	.st12{letter-spacing:1;}
	.st13{letter-spacing:2;}
	.st14{letter-spacing:9;}
</style>
<rect id="background_x5F_bitten" x="18" y="1" class="st0" width="604.9" height="339"/>
<line id="line_x5F_bitten" class="st1" x1="37" y1="55.7" x2="259.7" y2="55.7"/>
<g id="XMLID_763_">
	<rect id="XMLID_89_" x="36.1" y="26.6" class="st2" width="363" height="37.5"/>
	<text id="XMLID_88_" transform="matrix(1 0 0 1 36.1301 49.5833)" class="st3 st4 st5">3.  DON’T BE BITTEN!</text>
</g>
<g id="bitten_x5F_content">
	<path id="knife_1_" class="st3" d="M415.1,287.8c-0.5-2.8-0.5-5.7,0-8.5c1.9-13.1,5.2-44.2-6.4-53.3c0,0-2.2,3.9-3.6,10.9l1,0.9
		l-1.2,0c-0.5,2.7-0.8,5.9-0.8,9.5c0,0,0.7,2,1.5,4.9l1,0.3l-0.7,0.7c0.8,3.1,1.6,7,1.6,10.2c0,5.3-1,12-1.9,16.3
		c0,0.2-0.1,0.4-0.1,0.5l0.7,0.1l-0.7,0.5c0.1,1.4,0.8,2.8,2,3.6l0.8,0.6c0,0-1.9,1.1-1.3,5.8c0.6,4.7-0.1,15.3-3.3,17.8
		c-3.2,2.5,3.7,3.4,6.1,3.4c2.4,0,4.8-1,4.7-4C414.3,305.7,416.1,293.6,415.1,287.8z"/>
	<g id="medicine_x5F_1">
		<polygon id="XMLID_2164_" class="st3" points="446.6,265.1 446.6,277.2 449.3,277.2 449.3,267.9 466.6,267.9 466.6,277.2 
			469.3,277.2 469.3,265.1 		"/>
		<g id="XMLID_2157_">
			<rect id="XMLID_2159_" x="434.1" y="271.4" class="st3" width="6.7" height="1.7"/>
			<rect id="XMLID_2158_" x="475" y="271.4" class="st3" width="6.8" height="1.7"/>
		</g>
		<rect id="XMLID_2156_" x="430.6" y="272.3" class="st3" width="54.7" height="37.7"/>
		<polygon id="XMLID_2152_" class="st0" points="466.7,287.6 461.5,287.6 461.5,282.4 454.4,282.4 454.4,287.6 449.2,287.6 
			449.2,294.6 454.4,294.6 454.4,299.8 461.5,299.8 461.5,294.6 466.7,294.6 		"/>
		<path id="XMLID_2147_" class="st0" d="M457.9,304.4c-7.3,0-13.3-6-13.3-13.3c0-7.3,6-13.3,13.3-13.3s13.3,6,13.3,13.3
			C471.2,298.4,465.3,304.4,457.9,304.4z M457.9,278.8c-6.8,0-12.3,5.5-12.3,12.3c0,6.8,5.5,12.3,12.3,12.3s12.3-5.5,12.3-12.3
			C470.2,284.3,464.7,278.8,457.9,278.8z"/>
	</g>
	<g id="medicine_x5F_2">
		<path id="XMLID_2208_" class="st3" d="M511.8,279.5V277h-5.2v2.5c-3.4,0.8-5.9,3.2-5.9,6v22.2c0,0.9,0.9,1.5,2.1,1.5h12.9
			c1.2,0,2.1-0.7,2.1-1.5v-22.2C517.8,282.7,515.3,280.3,511.8,279.5z"/>
		<rect id="XMLID_2206_" x="500.7" y="287.7" class="st6" width="17.1" height="14.1"/>
		<rect id="XMLID_2205_" x="506.6" y="278.5" class="st7" width="5.2" height="0.7"/>
		<path id="XMLID_2204_" class="st3" d="M515,279.1c0,0.6-0.5,1-1,1h-9.5c-0.6,0-1-0.5-1-1v-3.8c0-0.6,0.5-1,1-1h9.5
			c0.6,0,1,0.5,1,1V279.1z"/>
		<polygon id="XMLID_2154_" class="st0" points="514,292.8 511.2,292.8 511.2,290 507.3,290 507.3,292.8 504.4,292.8 504.4,296.7 
			507.3,296.7 507.3,299.5 511.2,299.5 511.2,296.7 514,296.7 		"/>
	</g>
	<g id="crutches">
		<g id="XMLID_2184_">
			
				<rect id="XMLID_2203_" x="530.8" y="266.8" transform="matrix(0.9883 -0.1526 0.1526 0.9883 -34.683 85.5119)" class="st8" width="17.8" height="3.8"/>
			<g id="XMLID_2185_">
				
					<rect id="XMLID_2202_" x="541.4" y="284.3" transform="matrix(0.9883 -0.1526 0.1526 0.9883 -38.8916 86.4531)" class="st8" width="4.9" height="24.6"/>
				
					<rect id="XMLID_2201_" x="542.4" y="307.4" transform="matrix(0.9883 -0.1526 0.1526 0.9883 -40.7107 86.8877)" class="st8" width="6.6" height="2.5"/>
				<g id="XMLID_2188_">
					<path id="XMLID_2193_" class="st8" d="M541.2,288.2c-0.6,0.1-1.2-0.2-1.6-0.7l-9.7-15.6c-0.1-0.2-0.2-0.4-0.2-0.6
						c-1.3-8.9-3.5-23.4-3.9-25.2c-0.1-0.1-0.1-0.3-0.1-0.4c-0.1-0.9,0.5-1.6,1.3-1.8c0.4-0.1,0.8,0,1.2,0.3
						c0.6,0.4,0.6,0.9,0.9,2.1c0.1,0.7,0.3,1.7,0.5,3c0.3,2.1,0.8,5.1,1.4,8.8c0.8,5.5,1.6,11,1.8,12.4l9.5,15.3
						c0.5,0.7,0.2,1.7-0.5,2.1C541.6,288.1,541.4,288.2,541.2,288.2z M526.4,246.8c0.3,0.2,0.6,0.3,1.1,0.2
						C527.1,247.1,526.8,247,526.4,246.8z"/>
					<path id="XMLID_2189_" class="st8" d="M543.8,287.8c-0.2,0-0.4,0-0.6,0c-0.8-0.2-1.3-1.1-1.1-1.9l4.4-17.5
						c-0.2-1.4-1.1-6.9-2-12.4c-0.6-3.7-1-6.7-1.4-8.8c-0.2-1.3-0.3-2.3-0.4-3c-0.2-1.3-0.2-1.7,0.2-2.3c0.2-0.3,0.6-0.6,1-0.6
						c0.9-0.1,1.7,0.5,1.8,1.3c0,0.1,0,0.3,0,0.4c0.1,1.8,2.4,16.3,3.9,25.2c0,0.2,0,0.4,0,0.6l-4.5,17.8
						C544.9,287.3,544.4,287.7,543.8,287.8z M545.4,243.9c-0.2,0.3-0.6,0.5-1,0.5C544.8,244.3,545.2,244.1,545.4,243.9z"/>
				</g>
				<g id="XMLID_2186_">
					<path id="XMLID_2187_" class="st8" d="M549.2,240c0.6,1.5-0.3,3.3-2,3.9c-7.4,2.4-14.8,3.5-22.6,3.5c-1.8-0.1-3.2-1.5-3.1-3.2
						l0,0c0.1-1.6,1.6-2.8,3.3-2.8c7.1,0,13.7-1,20.4-3.2C546.9,237.8,548.6,238.5,549.2,240L549.2,240z"/>
				</g>
			</g>
		</g>
		<g id="XMLID_2146_">
			
				<rect id="XMLID_2183_" x="555.6" y="261.3" transform="matrix(0.9828 0.1849 -0.1849 0.9828 58.3855 -99.8313)" class="st8" width="17.8" height="3.8"/>
			<g id="XMLID_2160_">
				
					<rect id="XMLID_2182_" x="556.6" y="278.5" transform="matrix(0.9828 0.1849 -0.1849 0.9828 63.4114 -98.3514)" class="st8" width="4.9" height="24.6"/>
				
					<rect id="XMLID_2181_" x="553.5" y="301.6" transform="matrix(0.9828 0.1849 -0.1849 0.9828 65.5822 -97.7234)" class="st8" width="6.6" height="2.5"/>
				<g id="XMLID_2169_">
					<path id="XMLID_2178_" class="st8" d="M559.4,282c-0.6-0.1-1.1-0.6-1.2-1.2l-3.9-17.9c0-0.2,0-0.4,0-0.6
						c1.7-8.9,4.5-23.3,4.7-25c0-0.1,0-0.3,0-0.4c0.2-0.8,1-1.4,1.8-1.2c0.4,0.1,0.8,0.3,1,0.7c0.4,0.6,0.3,1,0.1,2.3
						c-0.1,0.7-0.3,1.7-0.5,3c-0.4,2.1-0.9,5.1-1.6,8.8c-1,5.5-2.1,10.9-2.4,12.3l3.9,17.6c0.2,0.8-0.4,1.7-1.2,1.9
						C559.8,282.1,559.6,282.1,559.4,282z M559.2,238.1c0.2,0.3,0.5,0.5,0.9,0.6C559.8,238.5,559.5,238.3,559.2,238.1z"/>
					<path id="XMLID_2170_" class="st8" d="M561.9,282.5c-0.2,0-0.4-0.1-0.6-0.2c-0.7-0.5-0.9-1.4-0.4-2.2l10-15
						c0.2-1.4,1.2-6.9,2.2-12.3c0.7-3.7,1.2-6.6,1.7-8.8c0.2-1.3,0.5-2.3,0.6-2.9c0.3-1.3,0.4-1.7,0.9-2.1c0.3-0.2,0.8-0.3,1.2-0.2
						c0.8,0.2,1.4,1,1.3,1.8c0,0.1-0.1,0.3-0.1,0.4c-0.5,1.7-3.1,16.2-4.7,25c0,0.2-0.1,0.4-0.2,0.6l-10.2,15.3
						C563.2,282.4,562.5,282.6,561.9,282.5z M578,241.6c-0.3,0.2-0.7,0.3-1.1,0.2C577.4,241.9,577.8,241.8,578,241.6z"/>
				</g>
				<g id="XMLID_2161_">
					<path id="XMLID_2163_" class="st8" d="M583,239.2c0.1,1.6-1.3,3.1-3.2,3c-7.8-0.2-15.1-1.6-22.4-4.2c-1.7-0.7-2.5-2.5-1.9-4
						l0,0c0.7-1.5,2.5-2.2,4-1.6c6.6,2.4,13.2,3.6,20.3,3.8C581.5,236.3,582.9,237.6,583,239.2L583,239.2z"/>
				</g>
			</g>
		</g>
	</g>
	<g id="skull">
		<g id="face">
			<path id="XMLID_19_" class="st9" d="M462.4,184.7c0,0-0.8-0.3-1.4-0.1c-0.6,0.1-1,3-1,3l-1.3-3.6l-1.5-0.2l-0.3,0.8l-0.4-1.4
				l5.6,1.1c0,0,7.6,0.6,8,0.2c0,0-12.4-2.4-13.4-4.1c0,0,0.2-9.3-0.2-9.7c0,0,0.3-0.2,0.5,0.6c0,0,0.2,0.2,0-1.6s-1.8-5.7-4.7-7.2
				c-2.9-1.5-4.5-2.4-5-2.1l2.5,2.5c0,0-5.6-1.6-18.5,1.3c0,0-4-4.8-6.4-6.3s-3.3-4.2-3.1-5.5s3.9-11.9,4.7-14.6
				c0.7-2.7,1.9-8.9,1.6-9.5l-4.3,10.6c0,0-21.9-52.9,14.2-80.6s79.5-19.8,100.4,6.5s15.3,50.4,7.5,74.2c0,0-4.5-9-4.4-10.9
				c0,0-0.4,7.6,3,14c3.3,6.4,4.1,9.8,2.5,12.1c-1.6,2.3-8.7,10.1-8.7,10.1s-13.7-3-18.3-1.6c0,0,0.9-2.1,2.4-2.4
				c0,0-0.4-1.3-4.5,1.5c-4.1,2.8-5.5,7.2-5.4,9.2l0.6-0.3c0,0-1.1,4-0.3,9.4c0,0-7.9,3.4-13.6,4.2c0,0,11.8,0.4,13.6-1.3l-0.2,0.8
				l-0.6-0.1l-1.6,0.4l-0.9,3.1l-0.9-2.8l-1.6,0.1c0,0-0.5,4.5-1.2,4.7c-0.7,0.1-1.7,1.1-1.7,1.1s0.5-4.2-1.2-5.2l-0.6,0
				c0,0-1.2,5.3-1.8,6.4c0,0-0.5,0.1-1,0.4c0,0,0.4-3.5-0.3-4.7c-0.7-1.1-1.1-2.2-1.1-2.2s-1.3,5.5-1.9,6.5s-0.9,1.5-0.9,1.5
				s-0.7-0.2-1.2,0.3c0,0,0.5-3.5-0.1-5c-0.6-1.5-0.9-2.4-0.9-2.4s-1,7-2.6,8s-2.5,1-3.3-0.6c-0.8-1.6-2.3-6.1-2.3-6.1
				s-0.7,2.3-1.1,3.5c-0.4,1.2-0.9,2.9-2,3.5c-1.1,0.6-2.6,0.4-3.2-1.1c-0.6-1.4-1.9-7.3-1.9-7.3s-1.3,2.3-1.2,3.4
				c0.1,1.2-0.2,3.3,0.2,3.9l-1.2-0.3c0,0-1-0.7-1.2-2.1c-0.2-1.4-1.6-5.6-1.8-5.9c0,0-1.2,1.6-1.4,3.2c-0.1,1.6-0.1,3.2,0,3.6
				l-1.1-0.4c0,0-1.6-6.5-1.9-6.7c0,0-0.9-0.2-1.3,0.9c-0.3,1.1-0.5,4.3-0.5,4.6c0,0-1.4-1.2-1.7-1.2c0,0,0,0-0.1,0L462.4,184.7z
				 M434.9,134.9c0.4,5.7,4.9,9.7,7.7,11.3c2.8,1.6,10.7,0.1,10.7,0.1l-3.1,2.6c0,0,3-1,7.9-2.6c4.9-1.7,10.9-4.2,13.7-7.1
				c2.8-2.8,5.5-5.8,5.7-8.9c0.2-3.1-2.8-8.3-2.8-8.3c0.5,0.3,1.5,0.1,4.7-0.4c3.2-0.5,2.4-2.1,2.4-2.1c-1.3,2.4-9.8,0-13-1.6
				c-3.2-1.5-6.7-2-14.6-3.9s-12.5,2-12.5,2c3.4-1.7,10.1,0.4,10.1,0.4c-4.7-0.2-16.4,7.4-16.4,7.4S434.5,129.2,434.9,134.9z
				 M534.5,123.9c0,0-11.7-7.6-16.4-7.4c0,0,6.7-2.2,10.1-0.4c0,0-4.6-3.8-12.5-2c-7.9,1.9-11.4,2.4-14.6,3.9
				c-3.2,1.5-11.7,4-13,1.6c0,0-0.7,1.6,2.4,2.1c3.2,0.5,4.1,0.7,4.7,0.4c0,0-3,5.2-2.8,8.3s2.9,6.1,5.7,8.9
				c2.8,2.8,8.8,5.4,13.7,7.1c4.9,1.7,7.9,2.6,7.9,2.6l-3.1-2.6c0,0,7.9,1.5,10.7-0.1c2.8-1.6,7.3-5.6,7.7-11.3
				S534.5,123.9,534.5,123.9z M485.1,170.1c0.9,0.9,2.3,1.3,3.9,1.6c1.6,0.3,2.8-1,4.6-2.9c1.8-1.8,4-8.2,4.2-10.2s-0.4-3.2-0.8-6
				c-0.3-2.8-2.7-11.2-3.5-13.2c-0.8-2.1-1.5-3.4-3.6-3.5s-3.1,4.7-3.3,6.7c-0.2,2-1.5,5.9-1.5,5.9h-0.4c0,0-1.3-3.8-1.5-5.9
				c-0.2-2-1.2-6.7-3.3-6.7c-2.1,0.1-2.8,1.4-3.6,3.5c-0.8,2.1-3.2,10.4-3.5,13.2c-0.3,2.8-1,4.1-0.8,6c0.2,1.9,2.4,8.3,4.2,10.2
				c1.8,1.8,3,3.1,4.6,2.9c1.6-0.3,3-0.6,3.9-1.6l0.1-0.2L485.1,170.1z M507.4,180.7c-0.1-1.2,2-7.2,2-7.2
				C505.2,176.8,507.4,180.7,507.4,180.7z M494.5,185.1c0,0,1.1-6.7,3.3-11.8C497.9,173.3,491.7,177.6,494.5,185.1z M501.7,182.8
				c0,0,1.1-6.7,3.3-11.8C505,171,498.8,175.3,501.7,182.8z M460.7,172.3c0,0,2.1,6.1,2,7.2C462.7,179.5,464.9,175.6,460.7,172.3z
				 M472.3,172.1c2.2,5,3.3,11.8,3.3,11.8C478.4,176.4,472.3,172.1,472.3,172.1z M465.1,169.8c2.2,5,3.3,11.8,3.3,11.8
				C471.3,174.1,465.1,169.8,465.1,169.8z"/>
			<path id="XMLID_292_" class="st8" d="M466.2,117c-0.1,0-0.1,0-0.2-0.1 M503.2,117.1 M503.8,117 M503.8,117 M515.6,114.1
				 M513.9,147.1c3.5,1.2,5.7,1.9,5.7,1.9l-3.1-2.6c0,0,5.1,1,8.6,0.5c0,0,3.4,4.6,7.8,4.6c4.5,0,5.3-0.9,5.3-0.9s-1.4,5.1-2.5,6.3
				s-8.8,3.5-10.2,3.3l1.2-3.9c0,0-10.1,2.3-13.5,7.2c0,0-1.5,3.1-1.7,5.2c-0.2,2.1-1.1,9.2-1.1,9.2l-0.1,3.6
				c-2.8,1.1-7.3,2.6-10.8,3.1c0,0,11.8,0.4,13.6-1.3l-0.2,0.8l-0.6-0.1l-1.6,0.4l-0.9,3.1l-0.9-2.8l-1.6,0.1c0,0-0.5,4.5-1.2,4.7
				c-0.7,0.1-1.7,1.1-1.7,1.1s0.5-4.2-1.2-5.2l-0.6,0c0,0-1.2,5.3-1.8,6.4c0,0-0.5,0.1-1,0.4c0,0,0.4-3.5-0.3-4.7
				c-0.7-1.1-1.1-2.2-1.1-2.2s-1.3,5.5-1.9,6.5s-0.9,1.5-0.9,1.5s-0.7-0.2-1.2,0.3c0,0,0.5-3.5-0.1-5c-0.6-1.5-0.9-2.4-0.9-2.4
				s-1,7-2.6,8s-2.5,1-3.3-0.6c-0.8-1.6-2.3-6.1-2.3-6.1s-0.7,2.3-1.1,3.5c-0.4,1.2-0.9,2.9-2,3.5c-1.1,0.6-2.6,0.4-3.2-1.1
				c-0.6-1.4-1.9-7.3-1.9-7.3s-1.3,2.3-1.2,3.4c0.1,1.2-0.2,3.3,0.2,3.9l-1.2-0.3c0,0-1-0.7-1.2-2.1c-0.2-1.4-1.6-5.6-1.8-5.9
				c0,0-1.2,1.6-1.4,3.2c-0.1,1.6-0.1,3.2,0,3.6l-1.1-0.4c0,0-1.6-6.5-1.9-6.7c0,0-0.9-0.2-1.3,0.9c-0.3,1.1-0.5,4.3-0.5,4.6
				c0,0-1.4-1.2-1.7-1.2c0,0,0,0-0.1,0l-1.2-4.6c0,0-0.8-0.3-1.4-0.1c-0.6,0.1-1,3-1,3l-1.3-3.6l-1.5-0.2l-0.3,0.8l-0.4-1.4l5.6,1.1
				c0,0,7.6,0.6,8,0.2c0,0-6.9-1.4-10.8-2.7c0,0-0.2-7.3-0.6-9.8c-0.4-2.5-0.3-6.8-3.1-9.6c-2.8-2.9-12.9-6.1-12.9-6.1l1.4,4
				c0,0-6.9-0.7-8.8-2.3s-2.1-1.8-2.9-3.8s-1.1-3.5-1.1-3.5s4,2.1,7.6,0.4s5.6-4.1,5.6-4.1c3.5,0.5,8.6-0.5,8.6-0.5l-3.1,2.6
				c0,0,1.8-0.6,4.8-1.6l0.8-0.2l-5,3.8c0,0,6.4-0.5,11.5-3.2s7.9-4.6,7.9-4.6l-1.1,10.6c0,0,3.5-7.3,4-10.5
				c0.4-3.2,3.2-7.9,4.4-8.9c1.2-1,3-2.3,3-2.3s-1.7,0.1-2.8,1.3c-1.1,1.2-2.2,1.8-2.2,1.8c1.1-1.6,1.9-3.1,2-4.7
				c0.2-3.1-2.8-8.3-2.8-8.3c0.5,0.3,1.5,0.1,4.7-0.4c3.2-0.5,2.4-2.1,2.4-2.1c-1.3,2.4-9.8,0-13-1.6c-0.8-0.4-1.6-0.7-2.5-1
				c0,0-8.5-4.9-10.1-5.3c-1.6-0.4-7.7-1.6-13.1-0.2s-7.5,2.6-7.5,2.6s8-8,15.6-8.4c0,0-5.7-1.2-13.7,2l-4.4,1.7
				c0,0-5.3-15.6-0.2-31.4c5.1-15.8,50.7-64.5,98.3-10.7c0,0,12.7,11.7,8.5,40.9c0,0-10.9-3.9-21.1-2.7c0,0,5.5,0.7,9.7,2.5
				c4.3,1.8,7,3.8,7,3.8s-8.1-1-11.9-0.3c-3.8,0.7-8,0.5-13.4,2.5c-3.4,1.3-5.2,2.2-6.1,2.7c-0.5,0.3-1.1,0.6-1.7,0.8
				c-0.4,0.2-0.7,0.3-1.1,0.5c-3.2,1.5-11.7,4-13,1.6c0,0-0.7,1.6,2.4,2.1c3.2,0.5,4.1,0.7,4.7,0.4c0,0-3,5.2-2.8,8.3
				c0.1,1.6,0.9,3.1,1.9,4.7c0,0-0.6-0.2-1.6-1.2s-2.9-1.9-3.3-1.8c0,0,2.3,1.2,2.8,2.3s2.9,3,4,7.1c1,4.1,4.5,12.3,4.5,12.3
				l-1.4-10.6c0,0,6.8,4.4,11,5.7c4.2,1.3,8.8,2.1,8.8,2.1l-5.3-3.9C513.9,147,513.9,147,513.9,147.1 M485.1,170.1
				c0.9,0.9,2.3,1.3,3.9,1.6c1.6,0.3,2.8-1,4.6-2.9c1.8-1.8,4-8.2,4.2-10.2s-0.4-3.2-0.8-6c-0.3-2.8-2.7-11.2-3.5-13.2
				c-0.8-2.1-1.5-3.4-3.6-3.5s-3.1,4.7-3.3,6.7c-0.2,2-1.5,5.9-1.5,5.9h-0.4c0,0-1.3-3.8-1.5-5.9c-0.2-2-1.2-6.7-3.3-6.7
				c-2.1,0.1-2.8,1.4-3.6,3.5c-0.8,2.1-3.2,10.4-3.5,13.2c-0.3,2.8-1,4.1-0.8,6c0.2,1.9,2.4,8.3,4.2,10.2c1.8,1.8,3,3.1,4.6,2.9
				c1.6-0.3,3-0.6,3.9-1.6l0.1-0.2L485.1,170.1z M507.4,180.7c-0.1-1.2,2-7.2,2-7.2C505.2,176.8,507.4,180.7,507.4,180.7z
				 M494.5,185.1c0,0,1.1-6.7,3.3-11.8C497.9,173.3,491.7,177.6,494.5,185.1z M501.7,182.8c0,0,1.1-6.7,3.3-11.8
				C505,171,498.8,175.3,501.7,182.8z M460.7,172.3c0,0,2.1,6.1,2,7.2C462.7,179.5,464.9,175.6,460.7,172.3z M472.3,172.1
				c2.2,5,3.3,11.8,3.3,11.8C478.4,176.4,472.3,172.1,472.3,172.1z M465.1,169.8c2.2,5,3.3,11.8,3.3,11.8
				C471.3,174.1,465.1,169.8,465.1,169.8z"/>
		</g>
		<g id="mouth">
			<path id="XMLID_105_" class="st9" d="M433,168.9c0,0,12.9-2.2,14.2-1.6c0,0-0.4,5.8-1.1,7.2l4.4,11.9l3.9,1.4
				c0,0,0.9,1.7,1.7,1.9c0,0-0.2,2.2,0.5,3.8c0.7,1.6,1.4,2.5,1.4,2.5s0.8-2.3,0.9-3.3c0.1-1,0.3-1.7,0.3-1.7l0.8,0.4
				c0,0-1.1,2.4,2.2,7.4c0,0,0.7-3.2,0.8-5.9c0,0,0.9,0.1,1,0.1c0.1-0.1,1.6,0.9,1.6,0.9s-0.5,1.8-0.3,3.3s1.6,3.6,1.6,3.6
				s0.8-2.1,0.9-2.8c0.2-0.7,0.7-2.9,0.7-2.9s0.9-0.1,1.2,0s1.1,0.2,1.1,0.2s-0.9,2.1-0.7,3.2c0.1,1.1,0.4,3.4,1.1,4.2
				c0,0,0.9-1.3,1.1-2.7c0,0,0.8-3,1.4-3.1s1.5-0.1,1.9,0.3c0.4,0.5,1,0.7,1,0.7s-0.8,1.8-0.6,2.6c0.2,0.8,0.4,3.6,1.1,4.2
				c0,0,0.9-2.9,1.1-3.5c0.2-0.6,1-2.7,2.1-2.6c1.1,0.1,1.7-0.3,2.6,1.8s1.7,4.8,1.7,4.8s1.2-5.3,2.4-6.1c1.2-0.8,2.1-1.1,3,0.1
				c0.9,1.2,2,4.5,2,5.2c0,0,1.3-0.9,1.3-3.5s-0.6-3.2-0.6-3.2s2-1.6,3-1c0,0,1,1.5,1.5,3.2c0.5,1.7,1.1,2.7,1.1,2.7s1-2,1-2.7
				c0-0.7,0.1-4-0.7-4.6c0,0,1.5-0.5,2.3-0.3c0,0,1.6,5.4,1.6,5.7c0,0,1.2-1.4,1.3-2.7c0.2-1.3,0.6-2.4,0.2-3.2
				c-0.3-0.8-0.3-1-0.3-1l1.6-0.9c0,0,0.8,0.2,1,0c0,0,0.4,5.4,0.9,6c0,0,1.4-1.7,1.7-2.8c0.3-1.1,1.1-3.7,0.5-4.6l0.7-0.4
				c0,0,0.5,2.4,0.7,3.3s0.6,1.8,0.6,1.8s0.8-1.2,1.3-2.1c0.4-0.9,1-3.6,0.6-4.1c0,0,1.5-0.8,1.7-2l3.8-1.2l4.6-11.8
				c0,0-0.7-3.2-0.8-4.7c-0.1-1.6-0.4-2.7-0.4-2.7s7.8,0.4,9.7,0.9c2,0.5,4.4,0.7,4.4,0.7s-1.9,5.3-2.3,6.1
				c-0.4,0.8-1.6,2.4-1.6,2.4s-1.9,6.1-1.7,11.1s0.4,13.1,0.4,13.1l-4.8,4.1c0,0-1.6,1.1-1.9,1.8s-0.8,0.9-0.7,1.5s-3.4,3-4.6,3.1
				c-1.2,0.1-6.1,3.4-6.1,3.4l3.8-5.9c0,0-5.1,4.1-5.6,5c-0.5,1-4.8,5.4-4.8,5.4s-8,5.9-9.9,6c-2,0.1-9.9-1.2-11.1-1.7
				c-1.1-0.4-3.8,0.8-3.8,0.8s-6.8,1.4-8.8,0.6c-2-0.8-7-3.9-7-3.9s-6-7.5-7.9-8.9c-1.9-1.4-4-3.8-4-3.8l4.8,7.8
				c0,0-5.5-4.2-6.9-4.7c-1.4-0.5-1.2,0.4-3.2-1s-2.4-2.1-2.7-2.5s-0.3-1.5-1.4-2.2s-6.2-4.9-6.2-4.9s0.5-9,0.4-13.4
				c-0.1-4.4-0.4-10.1-1.6-11.1c-1.1-1-2.4-3.1-2.6-4C434.3,172.4,433,168.9,433,168.9z M455.4,202.8c0,0-6.9-12.1-10.2-22.6
				C445.2,180.2,443,191.3,455.4,202.8z M524.4,179.6c-3.3,10.6-10.2,22.6-10.2,22.6C526.6,190.7,524.4,179.6,524.4,179.6"/>
			<path id="XMLID_98_" class="st8" d="M438.7,191.9c0-1.3,0-2.6,0-3.6c-0.1-4.4-0.4-10.1-1.6-11.1c0,0,1-2,2.9-2.7
				c1.8-0.7,4.4-0.4,4.4-0.4l5.2,14.1l6.5,1.4c0,0-0.2,2.2,0.5,3.8c0.7,1.6,1.4,2.5,1.4,2.5s0.8-2.3,0.9-3.3c0.1-1,0.3-1.7,0.3-1.7
				l0.8,0.4c0,0-1.1,2.4,2.2,7.4c0,0,0.7-3.2,0.8-5.9c0,0,0.9,0.1,1,0.1c0.1-0.1,1.6,0.9,1.6,0.9s-0.5,1.8-0.3,3.3s1.6,3.6,1.6,3.6
				s0.8-2.1,0.9-2.8c0.2-0.7,0.7-2.9,0.7-2.9s0.9-0.1,1.2,0s1.1,0.2,1.1,0.2s-0.9,2.1-0.7,3.2c0.1,1.1,0.4,3.4,1.1,4.2
				c0,0,0.9-1.3,1.1-2.7c0,0,0.8-3,1.4-3.1s1.5-0.1,1.9,0.3c0.4,0.5,1,0.7,1,0.7s-0.8,1.8-0.6,2.6c0.2,0.8,0.4,3.6,1.1,4.2
				c0,0,0.9-2.9,1.1-3.5c0.2-0.6,1-2.7,2.1-2.6c1.1,0.1,1.7-0.3,2.6,1.8s1.7,4.8,1.7,4.8s1.2-5.3,2.4-6.1c1.2-0.8,2.1-1.1,3,0.1
				c0.9,1.2,2,4.5,2,5.2c0,0,1.3-0.9,1.3-3.5s-0.6-3.2-0.6-3.2s2-1.6,3-1c0,0,1,1.5,1.5,3.2c0.5,1.7,1.1,2.7,1.1,2.7s1-2,1-2.7
				c0-0.7,0.1-4-0.7-4.6c0,0,1.5-0.5,2.3-0.3c0,0,1.6,5.4,1.6,5.7c0,0,1.2-1.4,1.3-2.7c0.2-1.3,0.6-2.4,0.2-3.2
				c-0.3-0.8-0.3-1-0.3-1l1.6-0.9c0,0,0.8,0.2,1,0c0,0,0.4,5.4,0.9,6c0,0,1.4-1.7,1.7-2.8c0.3-1.1,1.1-3.7,0.5-4.6l0.7-0.4
				c0,0,0.5,2.4,0.7,3.3s0.6,1.8,0.6,1.8s0.8-1.2,1.3-2.1c0.4-0.9,1-3.6,0.6-4.1l6.6-1.5l5.1-13.9c0,0,7.3-1,7.8,2.4
				c0,0-2.4,7-2.1,12.6s-0.6,11-0.6,11s-7.2,4.7-8,6.5c-0.9,1.8-6.2,2.6-6.2,2.6l-1.4,1.9c0,0-10.6,11.3-16.5,11.8
				c-5.9,0.5-11-0.2-13.2-1.6c0,0-6.7,3-10.9,1.9s-4.7-0.5-8.5-3l-7.6-7.9l-4.1-3.3c0,0-4.5-0.5-6.7-3.2c-2.2-2.7-7.5-5.6-7.5-5.6
				L438.7,191.9z M510.3,215.8 M455.4,202.8c0,0-6.9-12.1-10.2-22.6C445.2,180.2,443,191.3,455.4,202.8z M524.4,179.6
				c-3.3,10.6-10.2,22.6-10.2,22.6C526.6,190.7,524.4,179.6,524.4,179.6"/>
		</g>
	</g>
	<g id="XMLID_823_">
		<rect id="XMLID_87_" x="35.6" y="79.5" class="st2" width="328.4" height="149.4"/>
		<text id="XMLID_86_" transform="matrix(1 0 0 1 35.6122 94.2687)"><tspan x="0" y="0" class="st3 st10 st11">The</tspan><tspan x="27.7" y="0" class="st3 st10 st11 st12"> </tspan><tspan x="34.1" y="0" class="st3 st10 st11">first</tspan><tspan x="61" y="0" class="st3 st10 st11 st12"> </tspan><tspan x="67.3" y="0" class="st3 st10 st11">and</tspan><tspan x="97" y="0" class="st3 st10 st11 st12"> </tspan><tspan x="103.3" y="0" class="st3 st10 st11">perhaps</tspan><tspan x="165.8" y="0" class="st3 st10 st11 st12"> </tspan><tspan x="172.1" y="0" class="st3 st10 st11">most</tspan><tspan x="206.5" y="0" class="st3 st10 st11 st12"> </tspan><tspan x="212.9" y="0" class="st3 st10 st11">important</tspan><tspan x="285" y="0" class="st3 st10 st11 st12"> </tspan><tspan x="291.4" y="0" class="st3 st10 st11">thing </tspan><tspan x="0" y="19" class="st3 st10 st11">when</tspan><tspan x="41.6" y="19" class="st3 st10 st11"> </tspan><tspan x="47.3" y="19" class="st3 st10 st11">it</tspan><tspan x="56" y="19" class="st3 st10 st11"> </tspan><tspan x="61.7" y="19" class="st3 st10 st11">comes</tspan><tspan x="109.7" y="19" class="st3 st10 st11"> </tspan><tspan x="115.4" y="19" class="st3 st10 st11">to</tspan><tspan x="130.3" y="19" class="st3 st10 st11"> </tspan><tspan x="136" y="19" class="st3 st10 st11">zombies</tspan><tspan x="198.4" y="19" class="st3 st10 st11"> </tspan><tspan x="204.1" y="19" class="st3 st10 st11">is</tspan><tspan x="214.4" y="19" class="st3 st10 st11"> </tspan><tspan x="220.1" y="19" class="st3 st10 st11">to</tspan><tspan x="235" y="19" class="st3 st10 st11"> </tspan><tspan x="240.7" y="19" class="st3 st10 st11">avoid</tspan><tspan x="283.7" y="19" class="st3 st10 st11"> </tspan><tspan x="289.4" y="19" class="st3 st10 st11">bites, </tspan><tspan x="0" y="38" class="st3 st10 st11">the</tspan><tspan x="23.9" y="38" class="st3 st10 st11"> </tspan><tspan x="29.3" y="38" class="st3 st10 st11">deadliest</tspan><tspan x="99.1" y="38" class="st3 st10 st11"> </tspan><tspan x="104.4" y="38" class="st3 st10 st11">weapon</tspan><tspan x="167.4" y="38" class="st3 st10 st11"> </tspan><tspan x="172.7" y="38" class="st3 st10 st11">of</tspan><tspan x="188.1" y="38" class="st3 st10 st11"> </tspan><tspan x="193.5" y="38" class="st3 st10 st11">those</tspan><tspan x="234" y="38" class="st3 st10 st11"> </tspan><tspan x="239.4" y="38" class="st3 st10 st11">unfortunate. </tspan><tspan x="0" y="57" class="st3 st10 st11">It</tspan><tspan x="8.8" y="57" class="st3 st10 st11"> </tspan><tspan x="14.1" y="57" class="st3 st10 st11">is</tspan><tspan x="24.4" y="57" class="st3 st10 st11"> </tspan><tspan x="29.6" y="57" class="st3 st10 st11">worth</tspan><tspan x="73.5" y="57" class="st3 st10 st11"> </tspan><tspan x="78.8" y="57" class="st3 st10 st11">remembering</tspan><tspan x="179.5" y="57" class="st3 st10 st11"> </tspan><tspan x="184.7" y="57" class="st3 st10 st11">that</tspan><tspan x="214" y="57" class="st3 st10 st11"> </tspan><tspan x="219.3" y="57" class="st3 st10 st11">any</tspan><tspan x="247.4" y="57" class="st3 st10 st11"> </tspan><tspan x="252.6" y="57" class="st3 st10 st11">bite,</tspan><tspan x="285" y="57" class="st3 st10 st11"> </tspan><tspan x="290.2" y="57" class="st3 st10 st11">how</tspan><tspan x="323" y="57" class="st3 st10 st11">-</tspan><tspan x="0" y="76" class="st3 st10 st11">ever</tspan><tspan x="34.5" y="76" class="st3 st10 st11 st13"> </tspan><tspan x="42.5" y="76" class="st3 st10 st11">small,</tspan><tspan x="83.4" y="76" class="st3 st10 st11 st13"> </tspan><tspan x="91.5" y="76" class="st3 st10 st11">will</tspan><tspan x="116.5" y="76" class="st3 st10 st11 st13"> </tspan><tspan x="124.5" y="76" class="st3 st10 st11">already</tspan><tspan x="184.1" y="76" class="st3 st10 st11 st13"> </tspan><tspan x="192.1" y="76" class="st3 st10 st11">serve</tspan><tspan x="233.2" y="76" class="st3 st10 st11 st13"> </tspan><tspan x="241.2" y="76" class="st3 st10 st11">to</tspan><tspan x="256.1" y="76" class="st3 st10 st11 st13"> </tspan><tspan x="264.2" y="76" class="st3 st10 st11">turn</tspan><tspan x="293" y="76" class="st3 st10 st11 st13"> </tspan><tspan x="301" y="76" class="st3 st10 st11">you </tspan><tspan x="0" y="95" class="st3 st10 st11">into a walking corpse.</tspan></text>
	</g>
	<g id="XMLID_363_">
		<rect id="XMLID_85_" x="35.6" y="231.5" class="st2" width="328.4" height="149.4"/>
		<text id="XMLID_84_" transform="matrix(1 0 0 1 35.6106 246.2615)"><tspan x="0" y="0" class="st3 st10 st11">The</tspan><tspan x="27.7" y="0" class="st3 st10 st11 st12"> </tspan><tspan x="33.9" y="0" class="st3 st10 st11">only</tspan><tspan x="65.7" y="0" class="st3 st10 st11 st12"> </tspan><tspan x="71.9" y="0" class="st3 st10 st11">solution</tspan><tspan x="128.5" y="0" class="st3 st10 st11 st12"> </tspan><tspan x="134.7" y="0" class="st3 st10 st11">is</tspan><tspan x="145" y="0" class="st3 st10 st11 st12"> </tspan><tspan x="151.2" y="0" class="st3 st10 st11">the</tspan><tspan x="175.2" y="0" class="st3 st10 st11 st12"> </tspan><tspan x="181.4" y="0" class="st3 st10 st11">immediate</tspan><tspan x="259.7" y="0" class="st3 st10 st11 st12"> </tspan><tspan x="265.9" y="0" class="st3 st10 st11">amputa</tspan><tspan x="323" y="0" class="st3 st10 st11">-</tspan><tspan x="0" y="19" class="st3 st10 st11">tion of the injured limb (and hope the infec</tspan><tspan x="322.9" y="19" class="st3 st10 st11">-</tspan><tspan x="0" y="38" class="st3 st10 st11">tion</tspan><tspan x="27.7" y="38" class="st3 st10 st11 st14"> </tspan><tspan x="41.9" y="38" class="st3 st10 st11">does</tspan><tspan x="78.7" y="38" class="st3 st10 st11 st14"> </tspan><tspan x="93" y="38" class="st3 st10 st11">not</tspan><tspan x="116.9" y="38" class="st3 st10 st11 st14"> </tspan><tspan x="131.2" y="38" class="st3 st10 st11">spread</tspan><tspan x="184.7" y="38" class="st3 st10 st11 st14"> </tspan><tspan x="198.9" y="38" class="st3 st10 st11">anyway</tspan><tspan x="259.8" y="38" class="st3 st10 st11 st14"> </tspan><tspan x="274.1" y="38" class="st3 st10 st11">or</tspan><tspan x="290.2" y="38" class="st3 st10 st11 st14"> </tspan><tspan x="304.5" y="38" class="st3 st10 st11">die </tspan><tspan x="0" y="57" class="st3 st10 st11">through mutilation).</tspan></text>
	</g>
</g>
</svg>
