<?xml version="1.0" encoding="utf-8"?>
<!-- Generator: Adobe Illustrator 19.0.0, SVG Export Plug-In . SVG Version: 6.00 Build 0)  -->
<svg version="1.1" id="head" xmlns="http://www.w3.org/2000/svg" xmlns:xlink="http://www.w3.org/1999/xlink" x="0px" y="0px"
	 viewBox="0 0 640 390.1" style="enable-background:new 0 0 640 390.1;" xml:space="preserve">
<style type="text/css">
	.st0{fill:#F3F3F3;}
	.st1{fill:none;stroke:#362F36;stroke-width:2;stroke-miterlimit:10;}
	.st2{fill:none;}
	.st3{fill:#362F36;}
	.st4{font-family:'Impact';}
	.st5{font-size:29px;}
	.st6{fill-rule:evenodd;clip-rule:evenodd;fill:#231F20;}
	.st7{fill:#231F20;}
	.st8{fill:#B80F26;}
	.st8:hover{fill:#B80F26; cursor: pointer;}
	.st9{fill:#FFFFFF;}
	.st10{font-family:'GeosansLight';}
	.st11{font-size:20px;}
	.st12{letter-spacing:2;}
	.st13{letter-spacing:16;}
	.st14{letter-spacing:6;}
	.st15{letter-spacing:7;}
</style>
<rect id="background_x5F_head" x="18" y="0" class="st0" width="604.8" height="390"/>
<line id="head_x5F_line" class="st1" x1="36.3" y1="55" x2="223" y2="55"/>
<g id="XMLID_27_">
	<rect id="XMLID_61_" x="35.6" y="26.6" class="st2" width="363" height="37.5"/>
	<text id="XMLID_60_" transform="matrix(1 0 0 1 35.621 49.581)" class="st3 st4 st5">2.  HIT THE HEAD!</text>
</g>
<g id="head_x5F_content">
	<path id="zombie_x5F_1" class="st6" d="M588.5,110.8c-0.6-2.1-2.5,0.6-3,1.2c-0.6,0.7,0.1,3.3-0.2,3.6c-0.4,0.4-2.1,1.9-4.2,1.8
		c-2-0.1-2.1-1.5-2-2.3c0.1-0.8,3.2-5.6,3.5-7c0.4-1.4,1.6-3.6,0.8-5.8c-0.3-0.8-0.3-1.3-0.4-2c-0.1-0.6,0-0.3-0.2-0.9
		c-0.2-0.8,0-2.2-2-1.9c-2,0.3-2.1,4-2.1,5c0,1.1,1.2,4.1-2.1,6.7c-1.6,1.2-5.5,3.7-6.1,3.9c-0.6,0.1-3.5,0.9-5.3-0.5
		c-1.9-1.4-3.1-6.1-4.6-7.9c-1-1.2-2.4-2.7-3.7-3.3c-0.7,0.2-2.4,0-3,2c-0.1,1.4,0.3,3.1,1,3.9c1.9,3.2,4.8,8.4,5.3,11
		c-0.5,2.3,2.2,8.3,2.5,9.2c0.3,0.9,0.5,0.4-0.4,1.2c-0.9,1-7.5,6.1-7.5,6.1l-0.4,0.2c-2.8,2.5-4.7,4.9-7.9,5.3c-1-1-2.3-2.1-4-3.8
		c-3.7-3.8-1.6-0.1-5.9-3.1c-4.3-3-6-9-8.4-12.7c-2.4-3.7-1.3-2.1-3.8-4.4c0.1-0.3,0.3-0.5,0.4-0.8c-1.9-0.9-2.7-1.6-3.5-2.7
		c-0.9-1.3-2.1-2.8-2.6-3.3c-0.5-0.6-2.6-2.5-2.6-2.5s1.4-1.6,1.6-1.7c0,0.2,0.2,1.1,0.8,1.3c0.5,0.1,2.5-2,3.1-2.6
		c0.6-0.7,2.6-1.6,4.3-3.5c1.7-1.8,1.7-2.7,1.2-3.4c-0.6-0.7-1-0.4-1-0.4s6.2-7.2,7.2-12.5c1.1-12.9-6.1-20.4-17.5-20.2
		c-0.8,0-1.5,0.1-2.3,0.2c-5.7,0.7-11.5,5.4-13.1,7.6c-1.6,2.1-2.6,3.4-2.6,3.4s-0.3-1.4-2.2-0.8c-1.9,0.6-2.9,2.6-4.2,5.3
		c-1.4,2.8-1.4,4.9-1.1,5.9c0.3,1,1.9,1,1.9,1l-1,1.4l-0.3,0.5c-1.3-0.7-5.3-0.8-6.2-0.5c-0.9,0.3-3.7-1-4.6-1.1
		c-0.8-0.1-3.5-0.7-4-0.7c-0.5,0.1-8-1.6-14.1-0.4c-6.1,1.2-16,4.7-17.2,7.5c-1.1,2.8-0.9,3.5-6,7.6c-5.1,4.1-7.4,4.7-9.1,7.5
		c-1.7,2.8-7.8,13.4-7.8,13.4l1.1,2.3c0,0-1.5,3.6-4.9,9.6c-3.4,6-9.7,35.1-10.9,37.4c-1.1,2.3-0.8,2.1-1.9,3.9
		c-1.1,1.8-2.6,5.5-3.1,7.6c-0.5,2-0.6,3.1,0,3.9c0.6,0.8,1.4,1.4,1.4,1.4s-0.9,3.6-0.4,5c0.5,1.4,1.7,2.4,1.7,2.4s1.2,4.5,2.4,6.1
		c1.1,1.7,1.9,1.6,2.3,1c0.4-0.7-0.5-5.1-0.2-5.7c0.3-0.6,1.4-3.4,1.4-3.4s0,3.5,0.2,5.4c0.2,1.9-0.2,4.3,0.9,5.4
		c1.1,1.1,2.7,1.1,3-0.5c0.2-1.6,0-8.3,0.6-10c0.6-1.7,0.7-1.5,1.3-3c0.6-1.5,3.6-4.5,3.9-4.2c0.3,0.3,0.7,3.2,1.9,4.7
		c1.2,1.4,2.6,2.3,3.2,1.2c0.6-1-0.8-3.8-1.1-5.1c-0.4-1.3-0.8-5.5-1-6.6c-0.1-1.1-1.8-3.6-2.7-5.3c-0.9-1.7-1.1-3.8-1.1-3.8
		c5.4-15.2,8.2-12.9,14.7-31.9l7-5.4c0,0,5.4,12.6,0.4,29.3c-1.9,6.4-3.8,19-5.6,22.1c-0.2,0.3-0.4,0.9-0.7,1.7l0,0l0,0
		c-0.1,0.2-0.1,0.3-0.2,0.5c-1.3,3.3-4.9,10.1-6.4,14.8c-1,3.1-1,6.7-1.1,9.3l-0.3,0.9l0.2,0.1c0,1-0.1,1.8-0.2,2.2
		c-0.5,1.4-3.5,14.7-3.5,14.7l6-8.9l0.8,8.4l2.9-6.2c0.2,0,0.3,0.1,0.5,0.1c-0.8,5.1-1.9,12.1-2.5,15.2c-1.1,5.2-0.9,8.6-1.4,13.8
		c-0.5,5.1-1.2,9.8-2.5,13.3c-1.3,3.5-5.5,35.7-5.5,35.7s-0.2,6.5-2.5,9.1c-2.3,2.6-2.3,4.9-2.3,8.3c-0.1,3.4-0.4,6.7-0.4,9.4
		c0.1,2.7,1.5,4.1,0.4,8.2c-1.1,4.2-2.6,5.4-0.9,8.6c1.7,3.2,2.3,3,3.1,4.5c0.8,1.5,0.7,3.3,0.7,4.8c-0.1,1.4,0.1,4.6,1,6.4
		c0.9,1.7,2.6,4,4.1,5.3c1.5,1.4,11.9,2.8,14.8,0.3c2.9-2.5,2.9-3.2,2-6c-1-2.8-3.3-6.4-3.3-7.5c0.1-1.1,0-3.5,0-3.5
		s1.1-3.8,2.3-6.1c1.1-2.3-0.9-8.2-0.6-9.4c0.3-1.2,1.4-5.4,1.4-5.4s-0.1-0.2,0.6-1.6c0,0.3,0.2,1.3,0.2,1.3s0.8,0,1.9-2.3
		c1.1-2.3,2.1-3.8,2.1-3.8l-0.4,5.9c0,0,1.1-3.2,2.6-6.6c0.7-1.6,1.1-3.9,1.2-6c1.3-1.2,2.2-2.3,1.9-5.1c-0.3-2.6,3.5-21,6.8-35.1
		c0.8-1.4,1.4-2.5,1.4-2.5l0.6,5.3c0,0,1.5-4.9,2.1-9.7c0.3-2.5,0.9-7,1.5-11c2.6-4,8.6-32.4,8.6-32.4s1.7,12.9,1.1,19.9
		c-0.6,7-1.4,7.1,0,10.9c1.4,3.9-1.4,15.5-0.6,19.3c0.8,3.8,1.3,13,0.8,15.8c-0.5,2.8-0.5,5-0.4,7.6c0.1,2.6-1,2.6,0.4,7.4
		c1.4,4.8,1.6,13.1,3.4,19.8c1.7,6.6,1.8,7.7,2.1,11.9c0.3,4.3-0.4,5.4,0.7,6.3c1.1,1,2.5,2.2,2.5,2.2s-2,5.4-3.1,8.2
		c-1.1,2.9-1.5,5.7-2.8,8.7c-1.3,2.9,1.9,7.5,1.9,7.5s7.3,3.8,11.8,3.2c4.5-0.7,9-4,9.8-7.1c0.8-3.1,1-7.9,2-12.1
		c1.1-4.2,2.7-7,2.2-8.8c-0.5-1.8,3.3-0.8,4-4.1c0.8-3.3-0.1-5.7-0.6-7.4c-0.4-1.7-1.1-2-0.6-3.9c0.5-1.9,0.4-5,1-6.4
		c0.7-1.4-0.8-22-1.9-26.6c-1-4.6-0.7-5.7,0-11.9c0.7-6.2,0.5-10.5-0.4-11.6c-0.9-1.2-4.8-7.2-5-8.9c-0.1-1.8,1.4-2.6,1.4-5.7
		c0.1-3.2-0.6-4.6-0.9-7.6c-0.4-2.9-1.3-8.4-0.8-9.7c0.5-1.4,0.3-8.6,0.9-11.4c0.6-2.8,2.2,1.9,3.1-0.3c0,0,2.3-16.2,2.3-18.2
		c-1.6-8,2-13.3,2.9-17.1c0-1,0-2,0-3c-0.2-1.2-0.6-2.9-0.2-4.7c0.2-1,0.5-1.7,0.7-2.3c0.7-2.9,1.5-6.4,2-8.6c0.3-1.1,0.5-2,0.6-2.2
		l0.1,0v0v0l-0.2-0.3h0l0,0.1c0,0,0.3-10.7,1-21.3c3.5,1.6,8.8,4.5,9.2,6.4c0.5,2.4,2.6-1.8,2.6-1.8s2.4,2.1,2.9,3.4
		c0.5,1.3,2.9,4.7,4.2,3.4c1.3-1.3,3.7,2.6,3.9,5c0.3,2.4,2.6,2.1,5.2-0.8c2.1-2.4,3.9-4.8,4.9-7.3c4.2-1.6,9.5-4.8,11.4-6.6
		c2.9-2.8,8.9-11.4,9.4-12.3c0.5-0.9,1.8-2.5,1.8-2.5s1.6,0.2,1.6,0.9c0.1,0.7,0.1,3.2,0.1,4.1c0,0.9,0.9,1.4,1.8,0.6
		c0.9-0.7,2-4.7,1.9-5.9c-0.3-3.4-0.4-5.1,2-7.3c0,0,3.4-0.3,5.2-0.2c2,0.1,3.5-0.7,3.8-1.7c-0.1-2.9-1.7-3.5-4-4.3
		c-0.7,0-1.7,0.7-1.7,0.7l-1.6-0.7l1.4-1.2c0,0,6.6-3.3,7.8-5C589.8,117,589,112.9,588.5,110.8z"/>
	<path id="zombie_x5F_2" class="st7" d="M263.6,369c1.3,1.7,14.1,3.7,17.7,2.5c3.6-1.3,5.9-2.2,9.8-2.1c1.7,0,3.9,0.3,6.3,0.5
		c1.4,1.4,8.9,2.3,13.7,1.5c5-0.8,13.8,1.4,21,0.8c7.2-0.7,15.4-1,16.7-3.3c1.2-2.3-1-5-5.4-6.2c-4.4-1.1-13.1-4.3-15-7.1
		c-1.8-2.8-2.1-3.6-2.4-4.8c-0.3-1.2,0-1.4-0.7-2c-0.7-0.6-1.4-0.9-1.9-0.3c-0.4,0.7-1.6-0.4-2.1-0.6c-0.5-0.2-3.2-5.3-4.6-8.9
		c-1.5-3.7-2.7-9.4-2.7-9.4s0.8-16.7,0.6-20.3c-0.2-3.7-0.2-4.5,0.1-6.6c0.3-1.9,0.6-4.8,0.7-7.2c1-7.2,5.5-12.7,8.6-21.2
		c0-4.1,3.9-17.2,3.3-20.2c-0.6-3.1-0.5-8.4-0.5-9.8c0-1.4,4.2-3.7,4.4-9.7c0.2-5.9,2.5-6.2,2.3-9.3c-0.3-3.1-1.7-6.8-1.4-7.6
		c0.2-0.7,0.7-6.8,0.7-6.8s0.1,1.9,0.5,4.2c-0.6-6-0.9-11.6-0.4-14c1.2-5.8,0.9-4.1,2.9-13.9c2-9.8,1.2-12.7,0.6-20.6
		c-0.6-7.8,6.7-23.4,9.8-24.3c0,0,9.3-3.9,13.8-3.4c4.5,0.5,9.7,0.8,12.1,1.7c2.4,0.9,1.5,0.7,3.5,0.9c2,0.2,7.6,0.2,10,1.9
		c2.4,1.8,1.9,2.4,2.6,0.3c0.2-0.7,0.4-1.4,0.6-2.1c0,0,2.7,7,2.7,7.9c0,0.9,1.6-1.4,1.7-2.3c0.1-0.9,2.9-6.7,2.9-6.7l2.5,9.1
		l0.9-9.4c0,0,2.8,8.7,3.3,6.8c0.6-1.9,0.9-7.7,0.4-9.1c-0.2-0.8,0.6-3.3,1.5-5.9c3.7-0.7,7.4-1.5,10.4-2.1c0.2,0.2,0.7,2.3,2.3,4.5
		c1.6,2.1,3.8,2.1,5.3,3.4c1.6,1.2,3.2,3.8,3.9,4.7c0.7,1,2.6,2.4,3.9,1.8c1.3-0.5,1.3-2,0.9-3.7c-0.4-1.7-4.2-5.1-4.2-5.1l3.6-0.5
		c0.3,0,1,0.2,1.4,0.4c0.3,0.1,0.9,1.1,1.5,2.6c0.6,1.6,1.1,8,1.4,8.6c0.3,0.5,2,1.8,2.5,1.4c0.4-0.3,0.6-1.5,0.5-2.8
		c-0.1-1.3-0.5-8.3-0.5-8.3s1.8,1.3,1.9,1.4c0.2,0.1,0.2,0.7,0.3,1.1c0.1,0.4,0.7,3.7,1.2,5.3c0.5,1.6,1.6,2.4,2,2.5
		c0.4,0,1.4-0.1,1.3-1.4c-0.1-1.2-0.7-3.7-0.7-3.7s1.1,0.8,2.1,1.4c1,0.6,2.1,0.4,2.3-0.4c0.2-0.8-3.2-5.8-4.4-7.3
		c-1.2-1.5-3.4-3.1-5-5c-1.6-1.9-1.7-2.8-3.8-4.1c-2.2-1.3-14.2-6.6-16.2-7c-0.4-0.1-0.7-0.2-1-0.2l0,0c-0.3-0.1-0.7-0.3-1.2-0.3
		l-0.6-0.2l0,0.1c-4.2-0.6-12.2,0-17.9,0.6l0.7-0.9c0,0,9.1-2.2,16-4.7c6.9-2.4,8.6-3.2,11.7-2c3.1,1.2,4.6,1.7,7.1,1
		c2.6-0.8,2.4-1.2,5.3-0.8c3,0.4,5.8,2.6,6.7,2.5c0.9-0.1,2-1.4,1.8-2.1c-0.2-0.8-7.1-3.5-8.2-4.7c-1.1-1.2-1-3.8,1-5.9
		c1.9-2.1,5.6-3.1,8.5-3.8c2.9-0.7,7.4-1.7,8.3-2.9c0.9-1.2,0.6-1.6,0-1.8c-0.6-0.2-6.1,0.6-7.2,0.7c-1.1,0.1-1.3,0.1-3,0
		c-1.7,0-4.8,1.9-5.4,1.4c-0.5-0.3,1-2.1,2.3-3.7c1.3-1.6,1.2-1.6,1.6-1.9c0.3-0.3,2.6-1.8,3.3-2.9c0.8-1.1,1.1-1.2,1.1-1.2
		s2-0.9,2-2.8c0.1-2-0.6-1.5-1.1-1.6c-0.5-0.1-0.8,0.3-4,2.5c-3.2,2.2-4.1,3-4.1,3s3-3.1,3.3-4.2c0.2-1.2-0.7-1.4-1-1.7
		c-0.3-0.2-1.1,0.1-1.6,0.7c-0.4,0.6-5.4,6.1-6.9,7.7c-1.4,1.5-1.6,2.7-2.7,3.8c-1,1-7.3,6.2-10,7.1c-2.7,0.9-2.8,1.1-4.8,1.4
		c-2,0.3-3,0.8-3.8,1.1c-0.7,0.2-15.3,3.3-15.9,3.3c-0.5-0.1-1.4-0.9-1.8-1.1c-0.4-0.3-1.1-0.4-1.3-0.3c-0.3,0.1-7,2.7-9.2,2.4
		c-2.2-0.3-3.3-1.1-5-0.6c-1.7,0.5-1,0.6-3.4,0.6c-2.4-0.1-1.3,0-3.4-0.2c-2-0.2-3.8-0.4-5,0c-1.2,0.5-1.6,0.1-2.5,0.5
		c-0.9,0.3-1.7,0.5-2.6,0.4c-0.4-0.1-1.5-0.3-2.8-0.6c-1.4-2.1-2.3-4.4-3.3-3.4c-1.1,1-4,0.8-5.7,1.3c-1.7,0.6-3.3,0.2-4.2,0.1
		c-0.8-0.3-1-0.8-4.6,0c-3.7,0.7-4.5,0.9-6.1,0.5c-1.6-0.4-2.8-1.8-5.5-2c-1.4-0.1-3.1-0.2-4.5-0.2l0,0c0.2-0.2,2.7-2.2,5.6-1.4
		c3,0.8,3.3,1.6,4.7,1.6c1.3-0.1,3.2-3.4,3.7-4c0.5-0.6,1.3-0.8,1.8-0.9c0.5-0.1,0.9-1.6,0.9-1.6c0.1-0.7-0.7-1.3-1.3-2.2
		c-0.6-0.8-0.6-1.5-0.2-1.6c0.4-0.1,2.7-0.3,3.5-0.4c0.9-0.1,1.6-0.4,1.7-0.9c0.1-0.5-0.6-2.4-0.3-3c0.3-0.6,0.6-0.7,1-0.6
		c0.4,0,2.4,0.9,3.2,0.2c0.8-0.7-1.7-7.8-2.2-9.3c-0.5-1.5-0.8-2.5-0.6-2.9c0.1-0.2,0.2-0.4,0.3-0.6c0,0.1,0,0.3,0,0.4
		c0,0.4,0.1,0.7,0.1,1c0,0.3,0,0.5,0.1,0.7c0,0.2,0.1,0.4,0.1,0.5c0,0.1,0.1,0.2,0.1,0.2s0-0.1-0.1-0.2c0-0.1-0.1-0.3-0.1-0.5
		c0-0.2,0-0.5,0-0.8c0-0.3,0-0.6,0-1c0-0.3,0-0.6,0.1-0.8c0.3-0.6,0.5-1.1,0.7-1.5c0,0.4,0,0.7,0,1.1c0,0.6,0,1.1,0,1.4
		c0,0.3-0.1,0.5-0.1,0.5s0.1-0.2,0.1-0.5c0.1-0.3,0-0.8,0.1-1.4c0-0.5,0.1-1,0.1-1.6c0.1-0.2,0.2-0.4,0.3-0.7
		c0.1,0.7,0.2,1.4,0.3,2.1c0.2,0.8,0.3,1.5,0.4,2.1c0,0,0,0,0,0.1c0,0.1,0,0.2-0.1,0.2c-0.1,0.4-0.2,0.8-0.2,1.1
		c-0.1,0.3,0,0.6,0.1,0.8c0.1,0.2,0.2,0.4,0.3,0.5c0.1,0.1,0,0.2,0,0.2s0-0.1,0-0.2c0-0.1-0.2-0.3-0.2-0.5c-0.1-0.2-0.2-0.5-0.1-0.8
		c0.1-0.3,0.2-0.7,0.3-1c0,0.2,0.1,0.3,0.1,0.5c0.1,0.2,0.2,0.4,0.2,0.6c0.1,0.3,0.1,0.6,0.1,0.6s0-0.2-0.1-0.6
		c0-0.2-0.1-0.4-0.2-0.6c-0.1-0.2-0.1-0.4-0.1-0.7c0.2-0.7,0.3-1.6,0.5-2.5c0.1-0.5,0.1-1,0.1-1.6c0-0.6-0.1-1.1-0.2-1.6
		c-0.1-0.5-0.2-1.1-0.4-1.6c-0.2-0.5-0.4-1-0.6-1.5c-0.1-0.1-0.1-0.2-0.2-0.3c-0.1-0.6-0.2-1.3-0.4-2.1c-0.3-0.9-0.8-1.8-1.2-2.6
		c-0.1-0.3-0.2-0.5-0.3-0.7c-0.1-0.3-0.2-0.5-0.3-0.7c0.8,1.1,1.6,2.8,2.2,4.6c0.2,0.5,0.3,0.9,0.5,1.4c0.1,0.4,0.2,0.9,0.3,1.3
		c0.1,0.4,0.2,0.9,0.3,1.3c0.1,0.4,0.2,0.8,0.3,1.1c0.1,0.7,0.2,1.3,0.2,1.7c0,0.4,0,0.7,0,0.7s0-0.2,0-0.7c0-0.4,0-1-0.1-1.8
		c0-0.4-0.1-0.8-0.2-1.2c-0.1-0.4-0.1-0.8-0.2-1.3c-0.1-0.4-0.1-0.9-0.2-1.4c-0.1-0.5-0.2-0.9-0.4-1.4c-0.3-0.9-0.6-1.9-0.9-2.7
		c-0.2-0.4-0.3-0.8-0.5-1.2c0.3,0.4,0.6,0.8,0.9,1.2c0.5,0.8,0.8,1.6,1,2.3c0.2,0.7,0.4,1.3,0.5,1.7c0.1,0.4,0.1,0.7,0.1,0.7
		s0-0.3-0.1-0.7c-0.1-0.4-0.2-1-0.4-1.8c-0.2-0.7-0.5-1.6-0.9-2.4c-0.5-0.8-1.1-1.6-1.8-2.4c-0.3-0.4-0.7-0.8-1.1-1.1
		c-0.4-0.3-0.7-0.7-1.1-1c-0.7-0.6-1.4-1.2-2.2-1.5c-0.3-0.2-0.7-0.3-1-0.4c-0.1,0-0.2-0.1-0.3-0.1c-0.3-0.2-0.6-0.5-1-0.7
		c0.3,0.1,0.5,0.2,0.8,0.3c0.8,0.3,1.6,0.8,2.4,1.2c0.4,0.2,0.8,0.4,1.2,0.6c0.4,0.2,0.6,0.6,0.9,0.9c0.3,0.3,0.6,0.7,0.9,1
		c0.3,0.4,0.5,0.7,0.7,1.1c-0.2-0.4-0.4-0.8-0.7-1.2c-0.3-0.4-0.6-0.7-0.9-1c-0.3-0.3-0.5-0.7-0.9-1c-0.4-0.3-0.8-0.4-1.2-0.6
		c-0.8-0.4-1.5-0.9-2.4-1.3c-0.4-0.2-0.9-0.3-1.3-0.5l-0.9-0.3c-1.3-0.8-2.7-1.4-4.1-1.9c-0.4-0.2-0.8-0.4-1.2-0.5
		c-0.5-0.2-1-0.3-1.5-0.4c-0.4-0.1-0.8-0.1-1.2-0.1c-0.1,0-0.2,0-0.3,0c-0.1,0-0.2,0-0.3,0c-0.2,0-0.4-0.1-0.6-0.1
		c-0.3-0.1-0.5-0.1-0.8-0.2c-0.3-0.1-0.6-0.1-0.8-0.2c-1.1-0.2-2.4-0.3-3.6-0.2c-0.9,0.1-1.8,0.2-2.6,0.3c-0.1,0-0.2-0.1-0.3-0.1
		c-0.3,0-0.6,0-0.8,0.1c0,0-0.3,0.1-0.7,0.3c-0.2,0.1-0.4,0.2-0.6,0.4c-0.5,0.2-0.9,0.4-1.4,0.6c-0.4,0.2-0.8,0.4-1.1,0.5
		c-0.3,0.1-0.6,0.3-0.8,0.5c-0.4,0.4-0.6,0.6-0.6,0.6s0.2-0.2,0.6-0.5c0.4-0.4,1.2-0.5,2-0.9c0.1-0.1,0.3-0.1,0.4-0.2
		c0,0-0.1,0.1-0.1,0.1c-0.1,0.1-0.2,0.1-0.2,0.2c-0.4,0.2-0.9,0.4-1.3,0.6c-0.9,0.6-1.8,1.3-2.5,2.2c-0.4,0.4-0.7,0.9-1,1.3
		c-0.3,0.5-0.6,0.9-0.8,1.4c-0.1,0.3-0.3,0.6-0.4,0.8c-0.6,0.7-1.1,1.4-1.6,2.1c-0.2,0.4-0.4,0.8-0.6,1.1c-0.1,0.2-0.3,0.4-0.4,0.6
		c-0.2,0.4-0.5,0.7-0.7,1.1c-0.2,0.3-0.4,0.7-0.5,1c0,0.1-0.1,0.1-0.1,0.2c-0.2,0.4-0.4,0.9-0.6,1.3c-0.3,0.7-0.2,1.3-0.2,1.7
		c0,0.1,0,0.3,0,0.4c-0.1,0.2-0.1,0.3-0.1,0.3s0-0.1,0.1-0.2c0,0.1,0,0.2,0,0.2s0-0.1,0-0.2c0.1-0.1,0.2-0.3,0.4-0.5
		c0.1-0.2,0.3-0.4,0.5-0.6c0,0.2-0.1,0.3-0.1,0.5c0,0.1-0.1,0.2-0.1,0.4c-0.2,0.5-0.4,1-0.6,1.5c-0.1,0.1-0.1,0.2-0.2,0.4
		c-0.3,0.5-0.5,1.1-0.7,1.6c-0.2,0.7-0.4,1.3-0.5,1.9c-0.3,0.7-0.5,1.3-0.8,1.9c-0.2,0.3-0.4,0.7-0.6,1c-0.2,0.4-0.4,0.9-0.6,1.3
		c-0.3,0.8-0.7,1.6-0.9,2.3c-0.2,0.7-0.3,1.3-0.4,1.7c-0.1,0.4-0.2,0.6-0.2,0.6s0.1-0.2,0.2-0.6c0.1-0.4,0.2-1,0.4-1.7
		c0.2-0.7,0.6-1.5,1-2.3c0.2-0.4,0.4-0.8,0.6-1.2c0.2-0.4,0.5-0.8,0.8-1.2c0,0.1,0,0.3-0.1,0.4c0,0.3-0.1,0.5-0.1,0.7
		c-0.2,0.3-0.4,0.6-0.5,0.8c-0.5,0.9-1,1.8-1.2,2.6c-0.1,0.4-0.2,0.8-0.2,1.1c-0.1,0.3-0.1,0.6-0.1,0.9c0,0.2,0.1,0.4,0.1,0.5
		c0.1,0.1,0.1,0.2,0.1,0.2s0-0.1-0.1-0.2c-0.1-0.1-0.1-0.3-0.1-0.5c0-0.2,0-0.5,0.1-0.9c0.1-0.3,0.1-0.7,0.3-1.1
		c0.2-0.8,0.7-1.6,1.3-2.5c0.1-0.1,0.2-0.2,0.2-0.3c0,0,0,0.1,0,0.1c0,0.1-0.1,0.2-0.1,0.3c-0.2,0.6-0.3,1.1-0.5,1.6
		c-0.1,0.2-0.1,0.3-0.1,0.5c0,0.1-0.1,0.3-0.1,0.4c-0.1,0.2-0.1,0.4-0.2,0.7c-0.1,0.3-0.1,0.7-0.1,1c0,0.7-0.1,1.3-0.1,1.9
		c0,1,0,1.9,0,2.5c-1.3,2-2.6,3.6-3.9,5.1c-0.7-0.2-1.3-0.3-1.8-0.3c-0.7,0-1.6,0-2.7,0.1c-1,1-10.7,10.3-11.2,13.5
		c-0.6,3.3-0.8,5.6-0.6,7.3c0.2,1.7,0.6-3.1,0,4.2c-0.6,7.3-0.7,5.6-0.4,9.1c0.1,2.1,1.6,6.5,2.7,10.8c-0.3,1.5-0.9,3.1-2,4.8
		c-3.9,6.4-3.8,9.1-3.9,10.1c-0.1,1-1.3,9.6-1.2,8.7c0.1-0.9,3.5-8.5,3.5-8.5l1.3,8.8c0,0,2.3,2.3-0.4,5.9c-2.7,3.6-2.2,4.2-2.7,8.5
		c-0.6,4.3-0.7,8.8-0.4,7.8c0.1-0.4,1.6-2.3,3.4-4.4c-2,8.6-9.6,25.8-9,29.7c0.6,4.1,0.4,12,0.4,12l4.6,2.1c0,0-0.8,29.8-1.2,34
		c-0.4,4.2,0.2,4.8,0.2,8c0.2,3.3-0.2,3.5-1.3,7.6c-1,4.1-1.5,5.6-2.4,8c-0.8,2.4-4.3,7.9-5.8,11.9c-1.5,4-0.8,5.3-1.4,7.5
		c-0.6,2.3-0.7,1.2-0.8,3.3c-0.2,1.8-0.1,3.8-0.2,4.5c0.3-0.9,1.6-4.5,1.6-4.5s-1.5,21.6-2.1,27.5c-0.6,5.9-0.1,11.6-0.1,11.6
		s-0.3,0.2-0.8,1.4c-0.4,1.1-0.1,1.9-0.2,2.6c-0.2,0.7-1.5,3.9-1.5,4.6c0,0.3,0,0.2,0.1,0c0,0.2-0.1,0.4-0.2,0.8
		c-0.5,2.1-0.8,5.8-1.8,8.1c-0.9,2.3-1,1.4-1.5,4C263.1,366.5,262.3,367.3,263.6,369z M307.5,83.4c0-0.2,0.1-0.4,0.1-0.6
		c0,0.4,0.1,0.7,0.2,1c0.1,0.3,0.1,0.5,0.2,0.7c0.1,0.1,0.1,0.2,0.1,0.2s0-0.1-0.1-0.2c0-0.2-0.1-0.4-0.2-0.7
		c-0.1-0.3-0.1-0.6-0.1-1c0-0.1,0-0.2,0-0.2c0,0,0,0,0,0c0.1-0.3,0.2-0.7,0.3-1c0.2-0.5,0.3-1.1,0.5-1.6c0.2-0.4,0.4-0.8,0.6-1.2
		c0,0.1,0.1,0.1,0.2,0.2c-0.1,0.3-0.1,0.6-0.2,0.9c-0.1,0.7-0.2,1.3-0.3,2l0.2,0v0c0,0.2-0.2,0.4-0.2,0.6c-0.1,0.4-0.3,0.7-0.4,1.1
		c-0.1,0.4-0.1,0.8-0.2,1.2c0,0.4,0,0.7,0.1,1c0,0.1,0.1,0.2,0.1,0.3c-0.4,0.7-0.8,1.3-1.2,1.9c0-0.6,0-1.5,0.1-2.4
		C307.4,84.6,307.5,84,307.5,83.4z M308.5,85.7c0-0.1,0-0.1-0.1-0.2c-0.1-0.3-0.1-0.6-0.1-1c0-0.3,0.2-0.7,0.2-1.1c0,0,0-0.1,0-0.1
		c0,0.1,0,0.3,0,0.4c0-0.2,0-0.3,0-0.5c0.1-0.4,0.2-0.7,0.3-1.1c0.1-0.2,0.2-0.4,0.3-0.6c0.1-0.1,0.1-0.2,0.2-0.3
		c0,0.2-0.1,0.5-0.1,0.7c0,0.5,0,1-0.1,1.5c0,0.4-0.1,0.9-0.1,1.2C309,85,308.7,85.3,308.5,85.7z M309.2,84.4c0-0.3,0.1-0.7,0.1-1
		c0-0.3,0-0.6,0.1-1c0-0.1,0.1-0.3,0.1-0.7c0.1-0.3,0.1-0.7,0.2-1.2c0,0.1,0,0.1,0,0.2c0.1,0.2,0.1,0.4,0.2,0.5
		c0,0.1,0.1,0.2,0.1,0.2s0-0.1-0.1-0.2c0-0.1-0.1-0.3-0.1-0.5c0-0.1,0-0.2,0-0.3c0-0.2,0.1-0.4,0.2-0.6c0-0.1,0.1-0.2,0.1-0.3
		c0,0.4,0,0.7,0.1,1c0,0,0,0,0,0c-0.1,0.2-0.1,0.3-0.1,0.3s0-0.1,0.1-0.2c0,0.1,0,0.1,0,0.2c-0.1,0.7-0.2,1.5-0.2,2.1
		c0,0-0.1,0.1-0.1,0.1s0,0,0,0c0,0,0,0,0,0C310,83.5,309.5,84,309.2,84.4z M308.9,76.5c0.2-0.3,0.4-0.6,0.6-0.9
		c-0.2,0.5-0.3,0.9-0.5,1.4c0,0.1-0.1,0.3-0.1,0.4C308.9,77.1,308.9,76.8,308.9,76.5z M308.9,80.8c0,0.1,0,0.1,0,0.1
		c0,0.1,0,0.2,0,0.2s0-0.1,0-0.2c0-0.1,0-0.2,0.1-0.4c0.1-0.3,0.2-0.7,0.2-1c0.1-0.3,0.2-0.5,0.3-0.8c0.1-0.3,0.3-0.6,0.4-0.9
		c-0.1,0.3-0.2,0.6-0.2,0.9c0,0.2,0,0.3-0.1,0.4c0,0.1-0.1,0.1-0.1,0.2c-0.2,0.5-0.3,0.9-0.5,1.3c-0.1,0.2-0.2,0.4-0.3,0.6
		c-0.1,0.2-0.4,0.4-0.4,0.7c0,0,0,0,0,0c0-0.1,0.1-0.3,0.2-0.4C308.7,81.4,308.8,81.1,308.9,80.8z M310.6,79.7
		c0-0.1,0.1-0.2,0.1-0.3c0.1-0.1,0.1-0.2,0.2-0.4c-0.1,0.4-0.1,0.8-0.2,1.1c0,0,0,0.1,0,0.1c-0.1,0.4-0.2,0.7-0.2,1
		c0,0.1,0,0.1,0,0.2c0,0,0,0,0,0c0-0.1,0-0.1,0-0.2c0-0.1,0-0.2,0-0.3c0,0,0-0.1,0-0.1C310.5,80.5,310.5,80.1,310.6,79.7z
		 M310.6,71.7c-0.1,0.3-0.1,0.6-0.1,0.8c0-0.1,0-0.2,0-0.3C310.5,72.1,310.6,71.9,310.6,71.7C310.6,71.7,310.6,71.7,310.6,71.7z
		 M310.8,75.7c0.1-0.1,0.1-0.2,0.2-0.3c0,0,0,0,0,0C311,75.5,311,75.6,310.8,75.7c0,0.1,0,0.3,0,0.4c0,0,0,0,0-0.1
		C310.8,75.9,310.8,75.8,310.8,75.7z M310.7,75C310.7,75,310.7,75,310.7,75c0-0.1,0-0.1,0-0.1c0.1-0.2,0.1-0.3,0.2-0.5
		c0,0,0,0,0,0.1C310.9,74.7,310.8,74.8,310.7,75z M310.5,81.3C310.5,81.3,310.5,81.3,310.5,81.3c0-0.2,0.1-0.3,0.1-0.4
		c0,0.1,0,0.1,0,0.2C310.6,81.1,310.6,81.2,310.5,81.3z M310.5,76.6c0-0.1,0-0.2,0-0.3c0-0.1,0.1-0.2,0.1-0.2c0,0.1,0,0.2,0,0.3
		C310.6,76.4,310.6,76.4,310.5,76.6C310.5,76.5,310.5,76.5,310.5,76.6z M310.5,73.1c-0.1,0.3-0.3,0.6-0.5,0.9
		c0.1-0.3,0.2-0.8,0.3-1.2c0.1-0.2,0.2-0.4,0.2-0.7c0,0.1,0,0.1,0,0.2c0,0.2,0,0.4,0,0.5c0,0,0,0,0,0
		C310.6,72.8,310.5,73,310.5,73.1z M310.5,82c0,0,0-0.1,0-0.2c0.1-0.3,0.3-0.6,0.4-0.9c0.1-0.3,0.2-0.6,0.4-0.9
		c0,0.2-0.1,0.4-0.1,0.5C311,81,310.8,81.5,310.5,82z M310.7,79.3c0.1-0.4,0.1-0.7,0.2-1.1c0-0.1,0.1-0.3,0.2-0.4
		c0.1-0.2,0.1-0.3,0.2-0.5c0,0.3-0.1,0.7-0.1,1C310.9,78.6,310.8,79,310.7,79.3z M310.1,77.3c-0.1,0.2-0.2,0.3-0.2,0.5c0,0,0,0,0,0
		c0.1-0.2,0.2-0.4,0.2-0.5C310.1,77.2,310.1,77.3,310.1,77.3z M309.5,77.3c-0.1,0.2-0.2,0.4-0.3,0.7c0-0.1,0.1-0.2,0.1-0.3
		C309.3,77.5,309.4,77.4,309.5,77.3z M309.8,74.2c-0.2,0.3-0.3,0.5-0.5,0.8c0.2-0.6,0.5-1.3,0.7-1.9c0,0,0-0.1,0-0.1
		c-0.1,0.4-0.2,0.8-0.2,1.1C309.9,74.1,309.8,74.2,309.8,74.2z M310.2,82.6C310.2,82.6,310.2,82.6,310.2,82.6
		c0.1-0.2,0.1-0.4,0.2-0.6c0,0,0,0,0,0c0,0,0,0.1,0,0.1C310.4,82.3,310.3,82.5,310.2,82.6z M310.3,82.1c0-0.2,0-0.4,0.1-0.6
		c0,0.1,0,0.1,0,0.2c0,0.1-0.1,0.1-0.1,0.2C310.3,82,310.3,82,310.3,82.1z M310.3,78.9C310.3,78.9,310.3,78.9,310.3,78.9
		c0,0,0,0.1,0,0.1C310.3,79,310.3,79,310.3,78.9z M309.5,81.9c0-0.1,0-0.3,0.1-0.4c0,0.1,0,0.1,0,0.2c0,0.4-0.1,0.6-0.1,0.7
		C309.5,82.2,309.5,82.1,309.5,81.9z M309.3,78.8c0-0.1-0.1-0.1-0.1-0.2c0.1-0.1,0.1-0.2,0.2-0.3c0.1-0.1,0.1-0.2,0.2-0.4
		C309.4,78.2,309.3,78.5,309.3,78.8z M312.4,65C312.4,65,312.4,64.9,312.4,65c0,0,0,0.1-0.1,0.2C312.4,65.1,312.4,65,312.4,65z
		 M312.7,64.1c0.1-0.1,0.2-0.3,0.3-0.4c0,0.1-0.1,0.2-0.1,0.3C312.8,64,312.8,64.1,312.7,64.1C312.7,64.1,312.7,64.1,312.7,64.1z
		 M308.7,77.9c0-0.2,0.1-0.3,0.1-0.5c0-0.1,0.1-0.3,0.1-0.4c0,0.2,0,0.4,0,0.6c0,0,0,0.1,0,0.1C308.8,77.7,308.7,77.8,308.7,77.9z
		 M310.4,69.3c0-0.3,0-0.7,0.1-1.2c0,0.1,0,0.1,0,0.1c0,0.1,0,0.2,0,0.2s0-0.1,0-0.2c0-0.1,0-0.2,0.1-0.3c0-0.1,0.1-0.2,0.1-0.2
		c0.3-0.6,0.6-1.3,1.1-2c0.1-0.2,0.3-0.4,0.5-0.6c-0.1,0.2-0.1,0.5-0.1,0.7c0,0.1-0.1,0.2-0.1,0.3c-0.1,0.2-0.2,0.4-0.3,0.7
		c-0.1,0.2-0.2,0.4-0.3,0.7c-0.1,0.2-0.1,0.4-0.2,0.6c-0.3,0.4-0.5,0.8-0.7,1.2c-0.1,0.2-0.2,0.3-0.2,0.5
		C310.3,69.6,310.4,69.5,310.4,69.3z M329.4,52.5c-0.3,0-0.5,0-0.8,0c0,0,0,0-0.1,0c-0.4,0-0.9,0-1.3,0c-0.4,0-0.9,0-1.3,0.1
		c-0.4,0-0.8,0.1-1.2,0.2c0.1,0,0.1-0.1,0.1-0.2c0.8-0.1,1.6-0.2,2.4-0.2C328,52.4,328.7,52.4,329.4,52.5z M346.1,59
		c0.2,0.1,0.4,0.3,0.7,0.5l-0.2,0C346.4,59.4,346.3,59.2,346.1,59z M351.7,75.1c-0.1-0.8-0.2-1.6-0.2-2.4c0-0.3,0-0.7,0-1
		c0.1-0.5,0.1-1,0-1.5c0.2,0.5,0.3,1,0.4,1.5c0.1,0.5,0.2,1,0.3,1.5c0,0.5,0,1,0,1.5c-0.1,0.7-0.1,1.5-0.2,2.1
		C351.9,76.4,351.8,75.8,351.7,75.1z M284.3,350.5c0.4,0.8,0.7,1.3,1,1.3c0.9,0,2-6.9,2.2-7.7c0.1-0.7,2.2,2.7,2.8,3.9
		c0.6,1.2-0.7-9.4-0.6-16.1c0-1.6,0.6-4.3,1.4-7.6c1.5,8.6,4.4,18.6,4.5,20.7c0,0,0,0.1,0,0.1l0,0.1c0.1,0.8,2.5,2.4,3.1,4.3
		c0.6,2,0.4,4.1,0.5,5.4c0.1,1.3,0.5,0.3-0.8,4.5c-2.4-0.3-4.6-0.7-5.7-1.1c-3.2-1.1-5.6-3.2-6.2-3.8c-0.6-0.5-2.2-0.2-2.2-0.2
		S284.4,352.5,284.3,350.5z"/>
	<path id="text_x5F_blood" class="st8" d="M218.8,242V76.4H40.2v165c0,0-6,20.2-2,28.7s3.5,14.5-0.5,23.5s1,15.5,2,24s4.5,7,3,19
		s1.5,9.5,6,0s-8.5-18.5-6-25s3.5-4.3,2.5-0.3s4,4.5,4.8,8.5s5.5,15.3,2.3,19s3.8,4.5,3.5-1s-2.8-11-2.5-13.8s5.8-7.3,3-10.8
		s-6-14.8-1.5-10.3s7.5-15.3,7-25s0.3-20.8,4-15c3.8,5.8,11,14.5,6,20.3s-9.2,24.5-7.3,31c2,6.5,6.3,1.5,5.3,11.3s3.5,8,2.8,12
		s-1.3,10.8,0.8,4s2.3-8.3,0.5-11.8s0.8-12.8,1.8-10s3.8,2.5,5.5-6.3s-4.5-2.5-0.3-9.3S80.3,284,80,278.4c-0.3-5.7-6-25.3,0.7-14.7
		c6.7,10.7,8.7-2.7,11.7-9.3s14.3,1.7,8.7,11.3S86,277,90.7,289c4.7,12,4.7,24.7,0,31c-4.7,6.3-5.7,8.7-2.3,13
		c3.3,4.3,7,9.7,4.3,21.7c-2.7,12,8.7,25.3,6,10.3c-2.7-15,2.7-22.3-1.7-27.7c-4.3-5.3-8.7-7.7-6.7-11c2-3.3,13.3-16,10.3-21
		s-7.3-18-3-17c4.3,1,15.3,16.3,11,24.7c-4.3,8.3-11.3,9.3-9.7,15c1.7,5.7,2-2,6.7-4c4.7-2,9.7-12.7,8.7-17.7s-5-7.3-6.7-17
		c-1.7-9.7-3-11.7,0.3-14c3.3-2.3,7.3,6.7,6,11.3s12.7,7.8,9.7,17.8s3,15-4.5,19.5s-2,34,3,9.5s5.5-18.5,4-28.5s0-16-5-23.5
		s0-24.5,6.5-9.5c0,0,6.5,8.5,3.5,16s5,10.5,7.5,6.5s11-8.5,5.5,1.5s-5.5,15.5-3.7,19.7s6.2,33.3,0.8,37.5c-5.3,4.2,2.8,6.7,4,1.8
		c1.2-4.8,2.2-27.5,0.2-33.2c-2-5.7-4-14.5-2.8-17.2c1.2-2.7,5.8-7,6.7-10.8c0.8-3.8,19.3-17.8,17.3-33.3s9-21.5,11.5-9.5
		c2.5,12-1.5,13.5-7,22s-11.5,11.5-11,19s15.5,15,7.5,28s-18,44-12,50s0.5-2,1.5-8s1-12.5,10-26s9.5-40.5,13.5-27s2.5,15-5.5,25
		s4.5,16.5,7.5,1.5s16-22.5,6-34s-21-8-8.5-19.5s1-32.5,12.5-11.5s8,31,4.5,41s4,11,5.5,7s6-33.5,0-43.5s2-16.5,2-10.5
		s21,83-2.5,101s11,9,11.5-3s1.5-23.5,4.5-33s-3-24-4.5-31s-3-29.5,0-34.5S218.8,242,218.8,242z"/>
	<g id="XMLID_29_">
		<rect id="XMLID_58_" x="51.4" y="94.4" class="st2" width="155.4" height="130.3"/>
		<text id="XMLID_57_" transform="matrix(1 0 0 1 51.4387 109.1792)"><tspan x="0" y="0" class="st9 st10 st11">The</tspan><tspan x="27.7" y="0" class="st9 st10 st11 st12"> </tspan><tspan x="35.7" y="0" class="st9 st10 st11">only</tspan><tspan x="67.4" y="0" class="st9 st10 st11 st12"> </tspan><tspan x="75.4" y="0" class="st9 st10 st11">method</tspan><tspan x="132.5" y="0" class="st9 st10 st11 st12"> </tspan><tspan x="140.5" y="0" class="st9 st10 st11">to </tspan><tspan x="0" y="19" class="st9 st10 st11">effectivelly</tspan><tspan x="83" y="19" class="st9 st10 st11 st13"> </tspan><tspan x="104.2" y="19" class="st9 st10 st11">kill</tspan><tspan x="123.9" y="19" class="st9 st10 st11 st13"> </tspan><tspan x="145.2" y="19" class="st9 st10 st11">a </tspan><tspan x="0" y="38" class="st9 st10 st11">zombie</tspan><tspan x="55.8" y="38" class="st9 st10 st11"> </tspan><tspan x="61.8" y="38" class="st9 st10 st11">is</tspan><tspan x="72.1" y="38" class="st9 st10 st11"> </tspan><tspan x="78.2" y="38" class="st9 st10 st11">aiming</tspan><tspan x="127.8" y="38" class="st9 st10 st11"> </tspan><tspan x="133.9" y="38" class="st9 st10 st11">for </tspan><tspan x="0" y="57" class="st9 st10 st11">the</tspan><tspan x="23.9" y="57" class="st9 st10 st11"> </tspan><tspan x="28.4" y="57" class="st9 st10 st11">head,</tspan><tspan x="71.5" y="57" class="st9 st10 st11"> </tspan><tspan x="76.1" y="57" class="st9 st10 st11">it</tspan><tspan x="84.7" y="57" class="st9 st10 st11"> </tspan><tspan x="89.2" y="57" class="st9 st10 st11">could</tspan><tspan x="130.8" y="57" class="st9 st10 st11"> </tspan><tspan x="135.3" y="57" class="st9 st10 st11">be </tspan><tspan x="0" y="76" class="st9 st10 st11">cranial</tspan><tspan x="51.9" y="76" class="st9 st10 st11 st14"> </tspan><tspan x="63.9" y="76" class="st9 st10 st11">penetration, </tspan><tspan x="0" y="95" class="st9 st10 st11">blunt</tspan><tspan x="36.8" y="95" class="st9 st10 st11 st15"> </tspan><tspan x="49.5" y="95" class="st9 st10 st11">force</tspan><tspan x="89.7" y="95" class="st9 st10 st11 st15"> </tspan><tspan x="102.4" y="95" class="st9 st10 st11">trauma </tspan><tspan x="0" y="114" class="st9 st10 st11">or decapitation.</tspan></text>
	</g>
	<path id="circle_x5F_1" class="st8" d="M509.6,41l4.3,3.3l4.9-2.3l3.5,4.1l5.3-1.3l2.6,4.8l5.4-0.2l1.5,5.2l5.3,1l0.4,5.4l5,2.1
		l-0.7,5.4l4.5,3.1l-1.8,5.1l3.7,3.9l-2.8,4.6l2.8,4.6l-3.7,3.9l1.8,5.1l-4.5,3.1l0.7,5.4l-5,2.1l-0.4,5.4l-5.3,1l-1.5,5.2l-5.4-0.2
		l-2.6,4.8l-5.3-1.3l-3.5,4.1l-4.9-2.3l-4.3,3.3l-4.3-3.3l-4.9,2.3l-3.5-4.1l-5.3,1.3l-2.6-4.8l-5.4,0.2l-1.5-5.2l-5.3-1l-0.4-5.4
		l-5-2.1l0.7-5.4l-4.5-3.1l1.8-5.1l-3.7-3.9l2.8-4.6l-2.8-4.6l3.7-3.9l-1.8-5.1l4.5-3.1l-0.7-5.4l5-2.1l0.4-5.4l5.3-1l1.5-5.2
		l5.4,0.2l2.6-4.8l5.3,1.3l3.5-4.1l4.9,2.3L509.6,41z M509.4,53.8c-17.6,0-31.8,14.2-31.8,31.8s14.2,31.8,31.8,31.8
		c17.6,0,31.8-14.2,31.8-31.8S526.9,53.8,509.4,53.8z"/>
	<path id="circle_x5F_2" class="st8" d="M330.6,33l4.3,3.3l4.9-2.3l3.5,4.1l5.3-1.3l2.6,4.8l5.4-0.2l1.5,5.2l5.3,1l0.4,5.4l5,2.1
		l-0.7,5.4l4.5,3.1l-1.8,5.1l3.7,3.9l-2.8,4.6l2.8,4.6l-3.7,3.9l1.8,5.1l-4.5,3.1l0.7,5.4l-5,2.1l-0.4,5.4l-5.3,1l-1.5,5.2l-5.4-0.2
		l-2.6,4.8l-5.3-1.3l-3.5,4.1l-4.9-2.3l-4.3,3.3l-4.3-3.3l-4.9,2.3l-3.5-4.1l-5.3,1.3l-2.6-4.8l-5.4,0.2l-1.5-5.2l-5.3-1l-0.4-5.4
		l-5-2.1l0.7-5.4l-4.5-3.1l1.8-5.1l-3.7-3.9l2.8-4.6l-2.8-4.6l3.7-3.9l-1.8-5.1l4.5-3.1l-0.7-5.4l5-2.1l0.4-5.4l5.3-1l1.5-5.2
		l5.4,0.2l2.6-4.8l5.3,1.3l3.5-4.1l4.9,2.3L330.6,33z M330.4,45.8c-17.6,0-31.8,14.2-31.8,31.8s14.2,31.8,31.8,31.8
		s31.8-14.2,31.8-31.8S347.9,45.8,330.4,45.8z"/>
</g>
</svg>
