<?xml version="1.0" encoding="utf-8"?>
<!-- Generator: Adobe Illustrator 19.0.0, SVG Export Plug-In . SVG Version: 6.00 Build 0)  -->
<svg version="1.1" id="hero_2_" xmlns="http://www.w3.org/2000/svg" xmlns:xlink="http://www.w3.org/1999/xlink" x="0px" y="0px"
	 viewBox="0 0 640 308.5" style="enable-background:new 0 0 640 308.5;" xml:space="preserve">
<style type="text/css">
	.st0{fill:#F3F3F3;}
	.st1{fill:none;stroke:#362F36;stroke-width:2;stroke-miterlimit:10;}
	.st2{fill:none;}
	.st3{fill:#362F36;}
	.st4{font-family:'Impact';}
	.st5{font-size:29px;}
	.st6{fill-rule:evenodd;clip-rule:evenodd;fill:#E4032C;}
	.st6:hover{fill-rule:evenodd;clip-rule:evenodd;fill:#202020;}
	.st7{fill-rule:evenodd;clip-rule:evenodd;fill:#202020;}
	.st8{fill-rule:evenodd;clip-rule:evenodd;fill:#2113A0;}
	.st8:hover{fill-rule:evenodd;clip-rule:evenodd;fill:#202020;}
	.st9{fill:#2113A0;stroke:#202020;stroke-miterlimit:10;}
	.st10{fill:#E4032C;stroke:#202020;stroke-miterlimit:10;}
	.st11{fill:#FFFFFF;}
	.st12{font-family:'GeosansLight';}
	.st13{font-size:18px;}
</style>
<rect id="background_x5F_hero" x="18" y="-0.2" class="st0" width="604.9" height="309.3"/>
<line id="line_x5F_hero" class="st1" x1="36.3" y1="50.1" x2="260.3" y2="50.1"/>
<g id="XMLID_2438_">
	<rect id="XMLID_87_" x="35.6" y="21.7" class="st2" width="363" height="37.5"/>
	<text id="XMLID_86_" transform="matrix(1 0 0 1 35.621 44.6356)" class="st3 st4 st5">6.  DON’T BE A HERO!</text>
</g>
<g id="hero_x5F_content">
	<g id="hero_x5F_woman">
		<path id="cape" class="st6" d="M401.9,96c0,0-13.8,74.9,12.4,131.5c0,0-2.7-20.3,10.7-23.6c13.4-3.4,6,9.3,25.3,2.1
			c19.3-7.2,10.2-23.2,26.3-33.3c16.1-10.1,23.3-10.9,23.3-10.9s-52.2-17.4-64.8-60.1C435.1,101.6,417.6,84.8,401.9,96z"/>
		<path id="hero_1_" class="st7" d="M452,273.4c-2.3-1.1-3.8-4.9-6.1-6.8c-2.3-1.9-2.5-0.1-2.1,2.7c0.4,2.8-1.4,3.2-1.4,3.2
			c0.8-1.7-2.1-8.1-2.5-10.1c-0.4-2,1.6-4.2,1.7-13.8c0.1-9.6-5.1-15.2-8.6-18.9c-3.5-3.7-5.1-18.3-2.5-24
			c2.5-5.6-0.3-20.7-2.7-24.7c-2.4-4-3.2-17.1-3.2-17.1c-2-0.1-7.2,11.6-7.8,14.7c-0.6,3.1-7.1,15.1-7.4,17.2
			c-0.3,2.1-4.6,7.3-6.2,15.9c-1.6,8.6-10.8,24.5-12.6,28.2c-1.8,3.8-6.8,13.9-6.8,16.3c0,2.4,2.5,2,1,6.8s-0.3,7.1-0.1,9.6
			c0.2,2.4-1.9,2.1-5.8,5c-4,2.9-4.5-1.1-5.3-2.8s7.7-22.6,7.5-27.6c-0.2-5,4.1-23.9,4.2-25.8c0.1-1.9,4.6-11.5,7.3-14
			s3-4.8,4.5-6.3c1.5-1.5,3-12.1,2.7-17.2s1.8-18.4,1.3-20.5c-0.5-2.1,2.5-11.3,2.5-11.8s-7.8-6.9-8.8-7.7c-1-0.8-7.1-8.5-10.3-10.7
			c-3.2-2.3-2.3-4.9-2.4-7.1c-0.2-2.2,4-9.1,5.1-12.7c1-3.6,5.5-9.8,7.6-15.4c2.2-5.6,6.2-7.5,7.8-7.9c1.6-0.4,9.6,2.9,11,0.4
			s-0.8-5-5.5-9.1s-2.7-9.9-3.3-15.6s2.8-10.1,6.8-13.6c4-3.6,18.1-2.9,22.5,2.2s8.4,13.3,10.2,15.9c1.8,2.6,8,7.3,9.7,8
			s1.6-0.3,4.4,1.1c2.8,1.3,11.3-1.4,11.3-1.4c-4.7,4-9.5,2.4-13.9,2.8c-4.4,0.4-10.2-6-10.2-6s0.9,0.8,1.5,4.2
			c0.6,3.4,3.2,6.3,3.5,7.3s4.9,0.8,8.6,1.2s7.3,1.7,7.3,1.7c0.4-0.8,7.9-5.6,7.9-5.6c-3,4.3-6.8,6.4-6.8,6.4
			c3.7,1.8,5.5,6.1,5.5,6.1c-2.3-3.1-7-5.1-7-5.1c-2.2,1.7-11.2,3.7-16.6,3.5s-8-2.4-9.1-3.5s-1.1-1.8-5.7-3.1
			c-4.6-1.3-8.6,3.8-8.6,3.8s7.8,2.4,9.7,4.1c2,1.7,5.9,8.2,7.5,11.4c1.6,3.2,9.2,12.4,10.7,17.2c1.6,4.8-3.5,8.3-4.4,10
			c-0.8,1.7-10.3,12.1-10.3,12.1s1,11.3,1.6,18.5c0.6,7.2-1.1,17.1-1,21.6c0.1,4.4,0.6,9.9,1.1,11.8c0.4,1.8-0.4,15,0.1,17.2
			c0.4,2.2,4.2,22.1,4.2,23.7c0,1.6,1.8,12.6,2.5,14.3c0.7,1.6,2.2,6.7,6.3,12.7c4.2,6,5.4,5.8,8.7,6.6c3.3,0.8,1.9,1.1,1.9,1.1
			C463.4,275.1,454.3,274.5,452,273.4z M396.7,137.9c0.3,0.7,1.7,6.2,4.5,4.9c2.8-1.3,6.1,0.8,6.1,0.8c0.3-1.8,4.2-6.1,7.1-10.9
			c2.8-4.8-3.3-11.6-4-13c-0.7-1.4-3.6-2.5-5.3-8.7s-2.5-1.2-3-1.2s-10.3,15.9-10.3,15.9C394.6,126.2,396.4,137.3,396.7,137.9z
			 M446.2,124.2l-6.8-7.8l-1.1-1.7l-1,0.8c0,0-1.8,11.8-0.4,15.1c1.3,3.3,1.2,8.6,1.2,8.6l1.8,0.4c0,0,3.7-3.1,3.8-5.6
			S445.1,124.9,446.2,124.2z"/>
	</g>
	<g id="hero_x5F_man">
		<path id="cape_1_" class="st8" d="M520.5,89.5c0,0,13.6,67.2,43,87.5c32.2,22.3,33,23.6,33,23.6s-26-10.2-25.4,4.4
			c0.7,18.4,14.7,31.6-10.8,29.6c-28.4-2.2-6.8,20.4-33.6,18c-22.2-2-5.3-29.9-27.3-12.7c-7.5,5.9-9.1,15.1-9.1,15.1
			s-13.8-148.5-6.6-161.8C483.7,93.2,499,82.3,520.5,89.5z"/>
		<path id="hero" class="st7" d="M485.7,37.8c0,0,9-1.4,11.6-2.3c2.6-0.8,16.2,0.5,17.7,1.5c1.5,1.1,1.9,0.6,2.1,2.7
			c0.2,2.2,0.7,18.8,0.2,20.9c-0.5,2.1,0.7,6.8,4.3,10c3.6,3.2,10.4,8.1,11.7,9.4c1.3,1.3,8.7,8.3,10.7,14.3c2,6.1,3.3,12.3,3,16.5
			c-0.3,4.2-1.4,8.3,0.3,11.6c1.7,3.4-0.6,9.4-4.1,13.4c-3.5,4-8.5,10.4-9.7,13.3c-1.3,2.9-2.3,4.2-2.3,4.2s8.3,25.9,9.6,32.8
			c1.3,6.9,3.8,12.7,5.1,14.4s11.7,13,12,22.6c0.3,9.6,0.1,16.2,0.1,19.5s0.9,12.5,2,16.3s1.8,7.3,3.1,9.2c1.3,1.9,5.2,9.8,5.1,11.9
			c-0.1,2.1,0.1,3.3-2.6,3.3s-3.5,1.9-5.3,1.6c-1.8-0.3-3.6,0.3-4-3c-0.5-3.3-1.4-7.7-1.6-10.9c-0.2-3.2,0.7-7.3,0-9.9
			c-0.7-2.5-7.3-26.3-13.5-31.4c-6.2-5.1-5.5-11.9-6.3-17c-0.8-5.2-2.5-12.4-6.4-17.7s-10.7-13.7-13.5-17.9
			c-2.8-4.1-7.2-11.3-7.2-11.3s2.3,17.9,0.3,21.3c-2,3.4-4.8,11-2.1,16.6c2.7,5.5,7.9,12.5,7.3,17.7s-2.2,11.4-3.9,16.1
			c-1.7,4.7-4.9,19.5-4.5,23c0.4,3.5,0.6,14.9,1.6,16.2c1,1.3,0.3,2.7-1.9,3.1s-4.2,0.8-8.5,1c-4.2,0.3-6.1,1.5-10.1,2.3
			c-4,0.8-9.3,1.8-10-0.8c-0.7-2.5,1.7-3,3.6-4.3c1.9-1.3,8-2.3,9.6-4.4s4.8-2.2,6.9-9.1c2.1-7,1.5-21.9,0.8-24.9
			c-0.8-3-5.3-24.6-5.1-32.8s0.4-6.4,0.4-11.5c0-5.1-9-18.7-8.9-30.9c0.1-12.1-0.2-22.5-0.2-22.5s-4.7,2.3-5.1,4
			c-0.4,1.8,1.1,11-1.8,10.5c-2.9-0.5-4.3-2.1-7.5-1.6c-3.2,0.5-4.5-2.9-3.7-4.8c0.8-1.9,6.6-4.4,7.8-7.6s4.4-9.7,3.4-13.6
			c-1-4,3.3-8.3,3.5-10.4c0.2-2.2,0-12.7-1.2-16.2c-1.2-3.5-3.7-11.1,2.4-17.3c6-6.2,11.3-8.3,14.7-9.5c3.4-1.2,7-2.9,7.3-3.5
			c0.3-0.7,0.3-2.2,0-3c-0.3-0.8-0.5-1.5-0.5-1.5l-2.7,0.2c0,0-1.3-8.2-1.6-9.8c-0.2-1.6-0.4-10.6-0.4-11.1c0-0.5,0.2-1.4,0.1-1.7
			c0-0.3,0.2-0.7-0.8-0.9c-1-0.2-5.6-1.8-5.6-1.8l2.9-1.9c0,0-1.1-0.4-0.4-1.4c0.7-1-3,0.5-3,0.5L485.7,37.8z M533.4,117.7
			c0.4,5.5-0.3,4.4-2.1,8.9c-1.8,4.5,0.7,8.7-1.3,15.2c-2,6.5-3.1,2.3-3.1,2.3s-7.4-15.1-9.1-19.4c-1.7-4.2-0.8-7.8,1.2-10.8
			c2.1-3.1,10.2-7.8,10.2-7.8C528.9,111,533,112.2,533.4,117.7z"/>
	</g>
	<g id="ballon">
		<path id="XMLID_934_" class="st9" d="M200.8,83.7c38.2,0.5,58.4-26.6,58.4-26.6s5.8,38.4,35.2,49.7c29.4,11.3,54.2,3.3,54.2,3.3
			s-25.8,27.9-15.5,52.2c10.3,24.3,37.3,31.6,37.3,31.6s-50.4,9.2-60.3,29.3c-10,20.1,4.4,46,4.4,46s-36.4-18.8-69.5-5.5
			C212,277.2,207,301,207,301s-11.1-29.4-42.6-38.6c-31.5-9.3-66.3,11.8-66.3,11.8s5.4-31.7-11.7-51.9s-47.5-21-47.5-21
			s31.3-21.2,33.6-44.4c2.3-23.3-15.4-40.3-15.4-40.3s40.4,8.5,65.8-8.6S144,59.7,144,59.7S162.5,83.2,200.8,83.7z"/>
		<path id="XMLID_933_" class="st10" d="M200.7,94.6c33.1,0.4,50.7-23,50.7-23s5,33.3,30.5,43.1c25.5,9.8,47,2.9,47,2.9
			s-22.3,24.2-13.4,45.2c8.9,21.1,32.4,27.4,32.4,27.4s-43.6,7.9-52.3,25.4c-8.7,17.4,3.8,39.9,3.8,39.9s-31.6-16.3-60.2-4.7
			c-28.7,11.6-33,32.2-33,32.2s-9.6-25.5-36.9-33.5c-27.3-8-57.5,10.2-57.5,10.2s4.7-27.4-10.1-44.9c-14.8-17.5-41.2-18.2-41.2-18.2
			s27.1-18.3,29.1-38.5S76,123.1,76,123.1s35,7.4,57-7.5s18.4-41.9,18.4-41.9S167.5,94.2,200.7,94.6z"/>
	</g>
	<g id="XMLID_2497_">
		<rect id="XMLID_84_" x="110.9" y="116.7" class="st2" width="189.4" height="155.3"/>
		<text id="XMLID_83_" transform="matrix(1 0 0 1 113.0183 129.9866)"><tspan x="0" y="0" class="st11 st12 st13">Under no circumstances try </tspan><tspan x="-0.5" y="19" class="st11 st12 st13">to do grandiose acts unless </tspan><tspan x="6.7" y="38" class="st11 st12 st13">you are prepared to turn </tspan><tspan x="27.6" y="57" class="st11 st12 st13">into a snack at any </tspan><tspan x="-0.4" y="76" class="st11 st12 st13">moment! Never come back </tspan><tspan x="9.8" y="95" class="st11 st12 st13">to try to save those who </tspan><tspan x="19.9" y="114" class="st11 st12 st13">are already doomed. </tspan></text>
	</g>
</g>
</svg>
