<?xml version="1.0" encoding="utf-8"?>
<!-- Generator: Adobe Illustrator 19.0.0, SVG Export Plug-In . SVG Version: 6.00 Build 0)  -->
<svg version="1.1" id="supermarket" xmlns="http://www.w3.org/2000/svg" xmlns:xlink="http://www.w3.org/1999/xlink" x="0px"
	 y="0px" viewBox="0 0 640 351.5" style="enable-background:new 0 0 640 351.5;" xml:space="preserve">
<style type="text/css">
	.st0{fill:#362F36;}
	.st1{fill:none;}
	.st2{fill:#FFFFFF;}
	.st3{font-family:'Impact';}
	.st4{font-size:29px;}
	.st5{fill:none;stroke:#FFFFFF;stroke-width:2;stroke-miterlimit:10;}
	.st6{font-family:'GeosansLight';}
	.st7{font-size:20px;}
	.st8{fill:#DEEBF6;}
	.st9{fill:#665FCB;}
	.st10{fill:#88B1FF;}
	.st11{fill:#D9DAD9;}
	.st12{fill:#E8E8E8;}
	.st13{fill:#BDBDFF;}
	.st14{fill:#DBA450;}
	.st15{fill:#D37254;}
	.st16{fill:#EE4952;}
	.st17{fill:#377C4A;}
	.st18{opacity:0.62;fill:#FFFFFF;}
	.st19{font-family:'ArialMT';}
	.st20{font-size:7.2221px;}
	.st21{fill:#B80F26;}
	.st22{fill:#FFFFFB;}
	.st23{fill:#025074;}
	.st24{fill:#7C0F22;}
	.st25{fill:none;stroke:#FFFFFF;stroke-width:0.8272;stroke-miterlimit:10;}
	.st26{clip-path:url(#XMLID_768_);fill:#FFFFFF;}
	.st27{fill:#9AC8EC;}
	.st28{fill:#E1E9F2;}
	.st29{fill:#C94C6B;}
	.st30{fill:#B8405C;}
	.st31{font-family:'Patagonia-Medium';}
	.st32{font-size:6.0131px;}
	.st33{fill:#C8C8C8;}
	.st34{fill:#FFE8BB;}
	.st35{fill:#E8BD57;}
	.st36{fill:#FFCF48;}
	.st37{fill:#FF8150;}
</style>
<rect id="background_x5F_supermarket" x="17.9" y="0" class="st0" width="604.9" height="353.5"/>
<g id="XMLID_636_">
	<rect id="XMLID_1664_" x="40.1" y="26.1" class="st1" width="340" height="37.5"/>
	<text id="XMLID_1663_" transform="matrix(1 0 0 1 40.1073 49.0872)" class="st2 st3 st4">5. CONQUER A SUPERMARKET!</text>
</g>
<line id="line_x5F_supermarket" class="st5" x1="38" y1="57.5" x2="369.6" y2="57.5"/>
<g id="supermarket_x5F_content">
	<g id="XMLID_55_">
		<rect id="XMLID_1666_" x="35.6" y="77" class="st1" width="569.4" height="138.9"/>
		<text id="XMLID_1665_" transform="matrix(1 0 0 1 35.6118 91.7739)"><tspan x="0" y="0" class="st2 st6 st7">Another</tspan><tspan x="61.8" y="0" class="st2 st6 st7"> </tspan><tspan x="67.7" y="0" class="st2 st6 st7">extremely</tspan><tspan x="141.1" y="0" class="st2 st6 st7"> </tspan><tspan x="147.1" y="0" class="st2 st6 st7">important</tspan><tspan x="219.3" y="0" class="st2 st6 st7"> </tspan><tspan x="225.2" y="0" class="st2 st6 st7">thing</tspan><tspan x="262.2" y="0" class="st2 st6 st7"> </tspan><tspan x="268.2" y="0" class="st2 st6 st7">is</tspan><tspan x="278.5" y="0" class="st2 st6 st7"> </tspan><tspan x="284.4" y="0" class="st2 st6 st7">to</tspan><tspan x="299.4" y="0" class="st2 st6 st7"> </tspan><tspan x="305.3" y="0" class="st2 st6 st7">find</tspan><tspan x="333.9" y="0" class="st2 st6 st7"> </tspan><tspan x="339.8" y="0" class="st2 st6 st7">a</tspan><tspan x="350" y="0" class="st2 st6 st7"> </tspan><tspan x="356" y="0" class="st2 st6 st7">safe</tspan><tspan x="388" y="0" class="st2 st6 st7"> </tspan><tspan x="394" y="0" class="st2 st6 st7">place</tspan><tspan x="436.8" y="0" class="st2 st6 st7"> </tspan><tspan x="442.8" y="0" class="st2 st6 st7">where</tspan><tspan x="491.4" y="0" class="st2 st6 st7"> </tspan><tspan x="497.3" y="0" class="st2 st6 st7">there</tspan><tspan x="537.2" y="0" class="st2 st6 st7"> </tspan><tspan x="543.2" y="0" class="st2 st6 st7">are </tspan><tspan x="0" y="19" class="st2 st6 st7">groceries,</tspan><tspan x="74.8" y="19" class="st2 st6 st7"> </tspan><tspan x="79" y="19" class="st2 st6 st7">medicines</tspan><tspan x="153.6" y="19" class="st2 st6 st7"> </tspan><tspan x="157.8" y="19" class="st2 st6 st7">and</tspan><tspan x="187.5" y="19" class="st2 st6 st7"> </tspan><tspan x="191.7" y="19" class="st2 st6 st7">everything</tspan><tspan x="272.1" y="19" class="st2 st6 st7"> </tspan><tspan x="276.3" y="19" class="st2 st6 st7">else</tspan><tspan x="306.4" y="19" class="st2 st6 st7"> </tspan><tspan x="310.6" y="19" class="st2 st6 st7">you</tspan><tspan x="338" y="19" class="st2 st6 st7"> </tspan><tspan x="342.2" y="19" class="st2 st6 st7">might</tspan><tspan x="383.1" y="19" class="st2 st6 st7"> </tspan><tspan x="387.3" y="19" class="st2 st6 st7">need</tspan><tspan x="426.3" y="19" class="st2 st6 st7"> </tspan><tspan x="430.5" y="19" class="st2 st6 st7">during</tspan><tspan x="478.6" y="19" class="st2 st6 st7"> </tspan><tspan x="482.8" y="19" class="st2 st6 st7">an</tspan><tspan x="502.1" y="19" class="st2 st6 st7"> </tspan><tspan x="506.3" y="19" class="st2 st6 st7">invasion. </tspan><tspan x="0" y="38" class="st2 st6 st7">The</tspan><tspan x="27.7" y="38" class="st2 st6 st7"> </tspan><tspan x="32.7" y="38" class="st2 st6 st7">most</tspan><tspan x="67.2" y="38" class="st2 st6 st7"> </tspan><tspan x="72.2" y="38" class="st2 st6 st7">advisable</tspan><tspan x="146" y="38" class="st2 st6 st7"> </tspan><tspan x="151" y="38" class="st2 st6 st7">would</tspan><tspan x="197.5" y="38" class="st2 st6 st7"> </tspan><tspan x="202.5" y="38" class="st2 st6 st7">be</tspan><tspan x="222.6" y="38" class="st2 st6 st7"> </tspan><tspan x="227.6" y="38" class="st2 st6 st7">a</tspan><tspan x="237.8" y="38" class="st2 st6 st7"> </tspan><tspan x="242.8" y="38" class="st2 st6 st7">supermarket</tspan><tspan x="336.7" y="38" class="st2 st6 st7"> </tspan><tspan x="341.7" y="38" class="st2 st6 st7">of</tspan><tspan x="357.1" y="38" class="st2 st6 st7"> </tspan><tspan x="362.1" y="38" class="st2 st6 st7">those</tspan><tspan x="402.6" y="38" class="st2 st6 st7"> </tspan><tspan x="407.6" y="38" class="st2 st6 st7">very</tspan><tspan x="441.2" y="38" class="st2 st6 st7"> </tspan><tspan x="446.2" y="38" class="st2 st6 st7">large,</tspan><tspan x="490" y="38" class="st2 st6 st7"> </tspan><tspan x="495" y="38" class="st2 st6 st7">which</tspan><tspan x="539.4" y="38" class="st2 st6 st7"> </tspan><tspan x="544.4" y="38" class="st2 st6 st7">will </tspan><tspan x="0" y="57" class="st2 st6 st7">keep</tspan><tspan x="38.2" y="57" class="st2 st6 st7"> </tspan><tspan x="42.5" y="57" class="st2 st6 st7">you</tspan><tspan x="70" y="57" class="st2 st6 st7"> </tspan><tspan x="74.3" y="57" class="st2 st6 st7">welcomed</tspan><tspan x="153.4" y="57" class="st2 st6 st7"> </tspan><tspan x="157.7" y="57" class="st2 st6 st7">for</tspan><tspan x="179.3" y="57" class="st2 st6 st7"> </tspan><tspan x="183.6" y="57" class="st2 st6 st7">some</tspan><tspan x="222.8" y="57" class="st2 st6 st7"> </tspan><tspan x="227.2" y="57" class="st2 st6 st7">time.</tspan><tspan x="260.8" y="57" class="st2 st6 st7"> </tspan><tspan x="265.1" y="57" class="st2 st6 st7">But</tspan><tspan x="289.8" y="57" class="st2 st6 st7"> </tspan><tspan x="294.1" y="57" class="st2 st6 st7">remember</tspan><tspan x="372" y="57" class="st2 st6 st7"> </tspan><tspan x="376.3" y="57" class="st2 st6 st7">that</tspan><tspan x="405.6" y="57" class="st2 st6 st7"> </tspan><tspan x="410" y="57" class="st2 st6 st7">you</tspan><tspan x="437.4" y="57" class="st2 st6 st7"> </tspan><tspan x="441.7" y="57" class="st2 st6 st7">probably</tspan><tspan x="511.7" y="57" class="st2 st6 st7"> </tspan><tspan x="516.1" y="57" class="st2 st6 st7">will</tspan><tspan x="541.1" y="57" class="st2 st6 st7"> </tspan><tspan x="545.4" y="57" class="st2 st6 st7">not </tspan><tspan x="0" y="76" class="st2 st6 st7">be</tspan><tspan x="20.1" y="76" class="st2 st6 st7"> </tspan><tspan x="25.7" y="76" class="st2 st6 st7">the</tspan><tspan x="49.6" y="76" class="st2 st6 st7"> </tspan><tspan x="55.1" y="76" class="st2 st6 st7">only</tspan><tspan x="86.8" y="76" class="st2 st6 st7"> </tspan><tspan x="92.4" y="76" class="st2 st6 st7">person</tspan><tspan x="144.2" y="76" class="st2 st6 st7"> </tspan><tspan x="149.8" y="76" class="st2 st6 st7">behind</tspan><tspan x="202.1" y="76" class="st2 st6 st7"> </tspan><tspan x="207.7" y="76" class="st2 st6 st7">a</tspan><tspan x="217.9" y="76" class="st2 st6 st7"> </tspan><tspan x="223.4" y="76" class="st2 st6 st7">place</tspan><tspan x="266.3" y="76" class="st2 st6 st7"> </tspan><tspan x="271.8" y="76" class="st2 st6 st7">like</tspan><tspan x="297.5" y="76" class="st2 st6 st7"> </tspan><tspan x="303" y="76" class="st2 st6 st7">this</tspan><tspan x="327.4" y="76" class="st2 st6 st7"> </tspan><tspan x="332.9" y="76" class="st2 st6 st7">to</tspan><tspan x="347.9" y="76" class="st2 st6 st7"> </tspan><tspan x="353.4" y="76" class="st2 st6 st7">stay,</tspan><tspan x="387.7" y="76" class="st2 st6 st7"> </tspan><tspan x="393.3" y="76" class="st2 st6 st7">that</tspan><tspan x="422.6" y="76" class="st2 st6 st7"> </tspan><tspan x="428.1" y="76" class="st2 st6 st7">is,</tspan><tspan x="442" y="76" class="st2 st6 st7"> </tspan><tspan x="447.5" y="76" class="st2 st6 st7">you</tspan><tspan x="475" y="76" class="st2 st6 st7"> </tspan><tspan x="480.5" y="76" class="st2 st6 st7">will</tspan><tspan x="505.5" y="76" class="st2 st6 st7"> </tspan><tspan x="511.1" y="76" class="st2 st6 st7">have</tspan><tspan x="548.9" y="76" class="st2 st6 st7"> </tspan><tspan x="554.4" y="76" class="st2 st6 st7">to </tspan><tspan x="0" y="95" class="st2 st6 st7">fight</tspan><tspan x="33.4" y="95" class="st2 st6 st7"> </tspan><tspan x="38.3" y="95" class="st2 st6 st7">against</tspan><tspan x="93.2" y="95" class="st2 st6 st7"> </tspan><tspan x="98" y="95" class="st2 st6 st7">the</tspan><tspan x="122" y="95" class="st2 st6 st7"> </tspan><tspan x="126.8" y="95" class="st2 st6 st7">zombies</tspan><tspan x="189.2" y="95" class="st2 st6 st7"> </tspan><tspan x="194.1" y="95" class="st2 st6 st7">and</tspan><tspan x="223.7" y="95" class="st2 st6 st7"> </tspan><tspan x="228.5" y="95" class="st2 st6 st7">against</tspan><tspan x="283.5" y="95" class="st2 st6 st7"> </tspan><tspan x="288.3" y="95" class="st2 st6 st7">the</tspan><tspan x="312.2" y="95" class="st2 st6 st7"> </tspan><tspan x="317.1" y="95" class="st2 st6 st7">other</tspan><tspan x="357.2" y="95" class="st2 st6 st7"> </tspan><tspan x="362" y="95" class="st2 st6 st7">humans</tspan><tspan x="418.4" y="95" class="st2 st6 st7"> </tspan><tspan x="423.3" y="95" class="st2 st6 st7">who</tspan><tspan x="456" y="95" class="st2 st6 st7"> </tspan><tspan x="460.9" y="95" class="st2 st6 st7">also</tspan><tspan x="491.5" y="95" class="st2 st6 st7"> </tspan><tspan x="496.3" y="95" class="st2 st6 st7">are</tspan><tspan x="522.5" y="95" class="st2 st6 st7"> </tspan><tspan x="527.4" y="95" class="st2 st6 st7">strug</tspan><tspan x="564" y="95" class="st2 st6 st7">-</tspan><tspan x="0" y="114" class="st2 st6 st7">gling to survive.</tspan></text>
	</g>
	<g id="water">
		<g id="XMLID_2410_">
			<g id="XMLID_2430_">
				<path id="XMLID_2435_" class="st8" d="M162.4,269.2h-16.2c-3.9,0-7-3.2-7-7v-19.4c0-8.3,6.8-15.2,15.2-15.2h0
					c8.3,0,15.2,6.8,15.2,15.2v19.4C169.5,266.1,166.3,269.2,162.4,269.2z"/>
				<path id="XMLID_2434_" class="st8" d="M162.4,304.5h-16.2c-3.9,0-7-3.2-7-7V278c0-8.3,6.8-15.2,15.2-15.2h0
					c8.3,0,15.2,6.8,15.2,15.2v19.4C169.5,301.3,166.3,304.5,162.4,304.5z"/>
				<path id="XMLID_2433_" class="st9" d="M168.7,289.3H140c-0.4,0-0.8-0.4-0.8-0.8v-26.6c0-0.4,0.4-0.8,0.8-0.8h28.7
					c0.4,0,0.8,0.4,0.8,0.8v26.6C169.5,289,169.1,289.3,168.7,289.3z"/>
				<rect id="XMLID_2432_" x="149.3" y="223.5" class="st8" width="10.1" height="6.6"/>
				<rect id="XMLID_2431_" x="148.3" y="218.1" class="st9" width="12.1" height="6.6"/>
			</g>
			<path id="XMLID_2428_" class="st2" d="M159.4,230.1c0,0,8,3.9,7.7,14.1c-0.3,10.2-0.3,15.1-0.3,15.1h-4l0.3-15.7
				C163.1,243.6,163.4,232.8,159.4,230.1z"/>
			<path id="XMLID_2412_" class="st2" d="M161.8,291.4c0,0,1.9,10.2-2.8,11.1c0,0,4.9,2.2,6.8-2.2c1.3-3,1.2-8.6,1.2-8.6
				L161.8,291.4z"/>
		</g>
		<g id="XMLID_2380_">
			<path id="XMLID_2409_" class="st2" d="M191.5,260h-13.4c-2.5,0-4.5-2-4.5-4.5v-3c0-6.2,5-11.2,11.2-11.2h0
				c6.2,0,11.2,5,11.2,11.2v3C196,258,194,260,191.5,260z"/>
			<rect id="XMLID_2408_" x="181.9" y="238.3" class="st2" width="6.8" height="4.7"/>
			<rect id="XMLID_2407_" x="181.2" y="235.5" class="st10" width="8.1" height="3.3"/>
			<path id="XMLID_2387_" class="st2" d="M191.5,305.8h-13.4c-2.5,0-4.5-2-4.5-4.5v-25.6c0-6.2,5-11.2,11.2-11.2h0
				c6.2,0,11.2,5,11.2,11.2v25.6C196,303.8,194,305.8,191.5,305.8z"/>
			<rect id="XMLID_2386_" x="174.2" y="257.5" class="st10" width="21.2" height="14.7"/>
		</g>
	</g>
	<g id="food">
		<g id="XMLID_2452_">
			<path id="XMLID_2458_" class="st11" d="M98.6,291.8c0,2.6-7,4.6-15.6,4.6s-15.6-2.1-15.6-4.6v-31.2h31.2V291.8z"/>
			<ellipse id="XMLID_2457_" class="st2" cx="83" cy="260.7" rx="15.6" ry="4.6"/>
			<path id="XMLID_2456_" class="st9" d="M83,270.9c-8.6,0-15.6-2.1-15.6-4.6v20.7c0,2.6,7,4.6,15.6,4.6c8.6,0,15.6-2.1,15.6-4.6
				v-20.7C98.6,268.8,91.6,270.9,83,270.9z"/>
			<ellipse id="XMLID_2455_" class="st12" cx="83" cy="260.5" rx="13.2" ry="3.4"/>
			<path id="XMLID_2454_" class="st13" d="M98.7,269.8c0,0.1,0,0.1,0,0.2c0,1.6-6.1,3.9-15.7,3.9s-15.7-2.3-15.7-3.9c0,0,0,0,0-0.1
				v2.4c2.9,2,9.3,3,15.7,3c6.4,0,12.9-1,15.7-3.1V269.8z"/>
			<path id="XMLID_2453_" class="st13" d="M98.7,282.5c0,0.1,0,0.1,0,0.2c0,1.6-6.1,3.9-15.7,3.9s-15.7-2.3-15.7-3.9c0,0,0,0,0-0.1
				v2.4c2.9,2,9.3,3,15.7,3c6.4,0,12.9-1,15.7-3.1V282.5z"/>
		</g>
		<g id="XMLID_2446_">
			<path id="XMLID_2451_" class="st11" d="M120.5,300c0,2.6-7,4.6-15.6,4.6s-15.6-2.1-15.6-4.6v-31.2h31.2V300z"/>
			<ellipse id="XMLID_2450_" class="st2" cx="104.9" cy="268.8" rx="15.6" ry="4.6"/>
			<path id="XMLID_2449_" class="st14" d="M104.9,279c-8.6,0-15.6-2.1-15.6-4.6v20.7c0,2.6,7,4.6,15.6,4.6c8.6,0,15.6-2.1,15.6-4.6
				v-20.7C120.5,277,113.5,279,104.9,279z"/>
			<path id="XMLID_2448_" class="st15" d="M104.9,283.2c-8.6,0-15.6-2.1-15.6-4.6v13c0,2.6,7,4.6,15.6,4.6c8.6,0,15.6-2.1,15.6-4.6
				v-13C120.5,281.1,113.5,283.2,104.9,283.2z"/>
			<ellipse id="XMLID_2447_" class="st12" cx="104.7" cy="268.7" rx="13.2" ry="3.4"/>
		</g>
		<g id="XMLID_2439_">
			<path id="XMLID_2445_" class="st16" d="M76.9,297.7c0,2.6-7,4.6-15.6,4.6s-15.6-2.1-15.6-4.6v-10h31.2V297.7z"/>
			<path id="XMLID_2444_" class="st17" d="M76.9,293.6c0,2.6-7,4.6-15.6,4.6s-15.6-2.1-15.6-4.6V288h31.2V293.6z"/>
			<ellipse id="XMLID_2441_" class="st2" cx="61.3" cy="287.7" rx="15.6" ry="4.6"/>
			<ellipse id="XMLID_2440_" class="st12" cx="61.3" cy="287.2" rx="13.2" ry="3.4"/>
		</g>
		<text id="XMLID_2437_" transform="matrix(1 0 0 1 97.1472 291.6866)" class="st18 st19 st20">Food</text>
		<path id="XMLID_2436_" class="st14" d="M82.7,280.6c0,0-4.7-3.3-7.3-1.3c-2.6,2,0,5.4,3.5,4.7c3.5-0.7,3.9-1.9,3.9-1.9l2.6,2
			l0.2-5.2L82.7,280.6z"/>
	</g>
	<g id="medicines">
		<g id="XMLID_2365_">
			<polygon id="XMLID_2396_" class="st2" points="242.5,257.3 242.5,269.4 245.2,269.4 245.2,260.1 262.5,260.1 262.5,269.4 
				265.2,269.4 265.2,257.3 			"/>
			<g id="XMLID_2393_">
				<rect id="XMLID_2395_" x="230.1" y="263.6" class="st2" width="6.7" height="1.7"/>
				<rect id="XMLID_2394_" x="270.9" y="263.6" class="st2" width="6.8" height="1.7"/>
			</g>
			<rect id="XMLID_2390_" x="226.5" y="264.5" class="st2" width="54.7" height="37.7"/>
			<polygon id="XMLID_2384_" class="st21" points="262.6,279.8 257.4,279.8 257.4,274.6 250.3,274.6 250.3,279.8 245.2,279.8 
				245.2,286.9 250.3,286.9 250.3,292 257.4,292 257.4,286.9 262.6,286.9 			"/>
			<path id="XMLID_2366_" class="st21" d="M253.9,296.6c-7.3,0-13.3-6-13.3-13.3c0-7.3,6-13.3,13.3-13.3c7.3,0,13.3,6,13.3,13.3
				C267.1,290.6,261.2,296.6,253.9,296.6z M253.9,271c-6.8,0-12.3,5.5-12.3,12.3c0,6.8,5.5,12.3,12.3,12.3c6.8,0,12.3-5.5,12.3-12.3
				C266.2,276.5,260.7,271,253.9,271z"/>
		</g>
		<g id="XMLID_592_">
			<path id="XMLID_2364_" class="st2" d="M327,272.6v-2.5h-5.2v2.5c-3.4,0.8-5.9,3.2-5.9,6v22.2c0,0.9,0.9,1.5,2.1,1.5h12.9
				c1.2,0,2.1-0.7,2.1-1.5v-22.2C332.9,275.8,330.4,273.4,327,272.6z"/>
			<rect id="XMLID_2363_" x="315.9" y="280.9" class="st22" width="17.1" height="14.1"/>
			<rect id="XMLID_2358_" x="321.8" y="271.6" class="st23" width="5.2" height="0.7"/>
			<path id="XMLID_2349_" class="st2" d="M330.2,272.3c0,0.6-0.5,1-1,1h-9.5c-0.6,0-1-0.5-1-1v-3.8c0-0.6,0.5-1,1-1h9.5
				c0.6,0,1,0.5,1,1V272.3z"/>
			<polygon id="XMLID_856_" class="st21" points="329.2,286 326.3,286 326.3,283.1 322.5,283.1 322.5,286 319.6,286 319.6,289.8 
				322.5,289.8 322.5,292.7 326.3,292.7 326.3,289.8 329.2,289.8 			"/>
		</g>
		<g id="XMLID_2413_">
			<path id="XMLID_2426_" class="st2" d="M304.7,276.4v-2.2h-4.6v2.2c-3,0.7-5.3,2.8-5.3,5.3v19.6c0,0.8,0.8,1.4,1.8,1.4h11.4
				c1,0,1.8-0.6,1.8-1.4v-19.6C309.9,279.2,307.7,277.1,304.7,276.4z"/>
			<rect id="XMLID_2425_" x="294.9" y="283.7" class="st22" width="15.1" height="12.5"/>
			<rect id="XMLID_2420_" x="300.1" y="275.6" class="st23" width="4.6" height="0.6"/>
			<path id="XMLID_2419_" class="st2" d="M307.5,276.1c0,0.5-0.4,0.9-0.9,0.9h-8.4c-0.5,0-0.9-0.4-0.9-0.9v-3.4
				c0-0.5,0.4-0.9,0.9-0.9h8.4c0.5,0,0.9,0.4,0.9,0.9V276.1z"/>
			<polygon id="XMLID_2414_" class="st21" points="306.6,288.2 304.1,288.2 304.1,285.7 300.7,285.7 300.7,288.2 298.2,288.2 
				298.2,291.6 300.7,291.6 300.7,294.1 304.1,294.1 304.1,291.6 306.6,291.6 			"/>
		</g>
		<g id="XMLID_2357_">
			<path id="XMLID_2406_" class="st24" d="M351.3,290.9c-4.6,0-8-4.1-7.3-8.6l4.6-28.4c0.7-4.5,4.5-7.9,9.1-8.1l6.1,0l1.2-3.3H357
				c-6.3,0-11.5,5.6-13.2,12.5l-5.2,28.2c-1.1,5.9,3.4,11.3,9.4,11.3h6.3l0.3-3.6H351.3z"/>
			<path id="XMLID_2405_" class="st21" d="M352.6,290.9c-4.6,0-9.5-3-8.5-8.9l4.9-23c2-10.2,5.6-13,10.2-13.2l6.1,0l0.5-2.6h-6.2
				c-7.1,0-13.2,5.1-14.5,12.1l-4.9,26.7c-1.1,5.9,3.4,11.3,9.4,11.3h6.3v-2.3H352.6z"/>
			<path id="XMLID_2404_" class="st24" d="M395,304.7h-34c-4.2,0-7.7-3.5-7.7-7.7v-37.7c0-12.3,10.1-22.4,22.4-22.4h0
				c21.1-1,27,10.1,27,22.4V297C402.7,301.2,399.3,304.7,395,304.7z"/>
			<path id="XMLID_2403_" class="st25" d="M358.6,276.1v-16.8c0-12.3,10.1-22.4,22.4-22.4h0"/>
			<path id="XMLID_2402_" class="st21" d="M401.3,304.7h-29.4c-4.2,0-7.7-3.5-7.7-7.7v-37.7c0-12.3,10.1-22.4,22.4-22.4h0
				c12.3,0,22.4,10.1,22.4,22.4V297C409,301.2,405.5,304.7,401.3,304.7z"/>
			<g id="XMLID_2398_">
				<rect id="XMLID_2401_" x="383.7" y="245.3" class="st2" width="6.1" height="14.6"/>
				<rect id="XMLID_2400_" x="379.5" y="249.5" class="st2" width="14.6" height="6.1"/>
			</g>
			<g id="XMLID_2372_">
				<defs>
					<path id="XMLID_2373_" d="M401.3,304.7H361c-4.2,0-7.7-3.5-7.7-7.7v-37.7c0-12.3,5.9-22.1,22.4-22.4c16.5-0.3,0,0,0,0
						c10.2-0.7,32.9-2.6,33.3,22.4V297C409,301.2,405.5,304.7,401.3,304.7z"/>
				</defs>
				<clipPath id="XMLID_768_">
					<use xlink:href="#XMLID_2373_"  style="overflow:visible;"/>
				</clipPath>
				<rect id="XMLID_2376_" x="348.7" y="295.2" class="st26" width="63.9" height="14.2"/>
			</g>
			<path id="XMLID_2368_" class="st24" d="M398.6,292.2H373c-1.2,0-2.3-1-2.3-2.3v-16.2c0-1.2,1-2.3,2.3-2.3h25.6
				c1.2,0,2.3,1,2.3,2.3v16.2C400.9,291.2,399.8,292.2,398.6,292.2z"/>
			<path id="XMLID_2367_" class="st2" d="M402.4,292.2h-25.2c-1.3,0-2.4-1.1-2.4-2.4v-15.9c0-1.3,1.1-2.4,2.4-2.4h25.2
				c1.3,0,2.4,1.1,2.4,2.4v15.9C404.9,291.1,403.8,292.2,402.4,292.2z"/>
			<path id="XMLID_2359_" class="st25" d="M372.3,287.7v-12.8c0-1.9,1.5-3.5,3.5-3.5l0,0"/>
		</g>
	</g>
	<g id="hygiene">
		<g id="XMLID_2485_">
			<g id="XMLID_2488_">
				<rect id="XMLID_2492_" x="445.8" y="259.4" class="st2" width="12" height="9.3"/>
				<rect id="XMLID_2491_" x="447.8" y="250.9" class="st2" width="7.6" height="10.4"/>
				<rect id="XMLID_2490_" x="450.1" y="245.3" class="st2" width="3" height="7.7"/>
				<path id="XMLID_2489_" class="st2" d="M444.6,243.4c-0.1,0.6,0.3,1.2,0.9,1.3c1.5,0.4,4.5,1.1,7.6,0.5c3.6-0.7,4.8-1.4,7.3-0.6
					c0.8,0.3,1.7-0.3,1.7-1.2l0,0c0-0.6-0.4-1.1-1-1.3c-1.1-0.3-2.9-0.6-4.5-0.2c-2.4,0.6-4.5,1.3-7.7,0.6c-1.2-0.2-2.1-0.5-2.7-0.6
					c-0.8-0.2-1.5,0.3-1.6,1.1L444.6,243.4z"/>
			</g>
			<path id="XMLID_2487_" class="st27" d="M457.8,298.7H445c-3.5,0-6.4-2.9-6.4-6.4v-21.8c0-3.5,2.9-6.4,6.4-6.4h12.8
				c3.5,0,6.4,2.9,6.4,6.4v21.8C464.2,295.8,461.3,298.7,457.8,298.7z"/>
			<path id="XMLID_2486_" class="st28" d="M456.5,291.7h-10.2c-2.3,0-4.2-1.9-4.2-4.2v-12.2c0-2.3,1.9-4.2,4.2-4.2h10.2
				c2.3,0,4.2,1.9,4.2,4.2v12.2C460.7,289.8,458.8,291.7,456.5,291.7z"/>
		</g>
		<g id="XMLID_2480_">
			<path id="XMLID_2484_" class="st29" d="M481.1,307.1h-17.9c-3.1,0-5.6-2.5-5.6-5.6v-9c0-3.1,2.5-5.6,5.6-5.6h17.9
				c3.1,0,5.6,2.5,5.6,5.6v9C486.7,304.6,484.1,307.1,481.1,307.1z"/>
			<path id="XMLID_2483_" class="st30" d="M477.4,300.8h-10.7c-1.4,0-2.5-1.1-2.5-2.5v-2.5c0-1.4,1.1-2.5,2.5-2.5h10.7
				c1.4,0,2.5,1.1,2.5,2.5v2.5C479.9,299.6,478.8,300.8,477.4,300.8z"/>
			<path id="XMLID_2482_" class="st18" d="M460.5,297.1c-0.5,0-0.8-0.4-0.8-0.8v-2.7c0-2.5,2-4.5,4.5-4.5h8.7c0.5,0,0.8,0.4,0.8,0.8
				c0,0.5-0.4,0.8-0.8,0.8h-8.7c-1.5,0-2.8,1.2-2.8,2.8v2.7C461.3,296.8,461,297.1,460.5,297.1z"/>
			<text id="XMLID_2481_" transform="matrix(1 0 0 1 459.3648 296.0502)" class="st18 st31 st32">soap</text>
		</g>
	</g>
	<g id="tools">
		<g id="XMLID_2474_">
			<path id="XMLID_2479_" class="st16" d="M534.2,296.5c0,3.5-4.8,6.3-10.7,6.3s-10.7-2.8-10.7-6.3v-42.7h21.3V296.5z"/>
			<ellipse id="XMLID_2478_" class="st33" cx="523.5" cy="253.8" rx="10.7" ry="6.3"/>
			<path id="XMLID_2477_" class="st16" d="M528.2,251.8c0,1.5-2.1,2.8-4.7,2.8s-4.7-1.2-4.7-2.8V244h9.3V251.8z"/>
			<ellipse id="XMLID_2476_" class="st33" cx="523.5" cy="244" rx="4.7" ry="2.8"/>
		</g>
		<g id="XMLID_2470_">
			<path id="XMLID_2472_" class="st34" d="M550.9,236c-0.3,0-0.5-0.1-0.7-0.3c-0.3-0.3-2.6-2.7-1.9-5c0.4-1.3,1.6-2.3,3.7-2.7
				c1.3-0.3,2.1-0.8,2.5-1.7c0.8-1.6-0.1-4.1-0.5-4.9c-0.2-0.5,0-1.1,0.5-1.3c0.5-0.2,1.1,0,1.3,0.4c0.1,0.2,1.9,3.8,0.5,6.6
				c-0.7,1.4-2,2.4-3.9,2.8c-0.9,0.2-2,0.6-2.2,1.3c-0.3,0.9,0.8,2.4,1.4,3c0.4,0.4,0.4,1,0,1.4C551.4,235.9,551.1,236,550.9,236z"
				/>
			<path id="XMLID_2471_" class="st35" d="M559.2,299h-15.4c-2.7,0-5-2.2-5-5v-55.4c0-2.7,2.2-5,5-5h15.4c2.7,0,5,2.2,5,5V294
				C564.2,296.8,562,299,559.2,299z"/>
		</g>
		<g id="XMLID_2391_">
			<path id="XMLID_2493_" class="st36" d="M551.6,301.8h-41c-3.3,0-6-2.7-6-6l0,0c0-3.3,2.7-6,6-6h41V301.8z"/>
			<polygon id="XMLID_2443_" class="st36" points="571.8,310.2 549.2,301.5 549.2,290.2 571.8,280.3 			"/>
			<path id="XMLID_2442_" class="st37" d="M575.4,310.9h-4.6c-1.6,0-3-1.3-3-3v-25.4c0-1.6,1.3-3,3-3h4.6c1.6,0,3,1.3,3,3v25.4
				C578.4,309.5,577.1,310.9,575.4,310.9z"/>
			<path id="XMLID_2392_" class="st37" d="M518.3,302.9h-4.5c-0.7,0-1.3-0.6-1.3-1.3V290c0-0.7,0.6-1.3,1.3-1.3h4.5
				c0.7,0,1.3,0.6,1.3,1.3v11.7C519.6,302.4,519.1,302.9,518.3,302.9z"/>
		</g>
	</g>
</g>
</svg>
