<?xml version="1.0" encoding="utf-8"?>
<!-- Generator: Adobe Illustrator 19.0.0, SVG Export Plug-In . SVG Version: 6.00 Build 0)  -->
<svg version="1.1" id="weapon" xmlns="http://www.w3.org/2000/svg" xmlns:xlink="http://www.w3.org/1999/xlink" x="0px" y="0px"
	 viewBox="0 0 640 256.3" style="enable-background:new 0 0 640 256.3;" xml:space="preserve">
<style type="text/css">
	.st0{fill:#362F36;}
	.st1{fill:none;stroke:#FFFFFF;stroke-width:2;stroke-miterlimit:10;}
	.st2{fill:none;}
	.st3{fill:#FFFFFF;}
	.st4{font-family:'Impact';}
	.st5{font-size:29px;}
	.st6{fill:#FFFDFF;}
	.st7{font-family:'GeosansLight';}
	.st8{font-size:20px;}
</style>
<rect id="background_x5F_weapons" x="18" y="-1" class="st0" width="604.9" height="257"/>
<line id="line_x5F_weapon" class="st1" x1="37" y1="54" x2="413" y2="54"/>
<g id="XMLID_49_">
	<rect id="XMLID_29_" x="35.1" y="24.6" class="st2" width="408.5" height="37.5"/>
	<text id="XMLID_28_" transform="matrix(1 0 0 1 35.1073 47.5491)" class="st3 st4 st5">1. EVERYTHING CAN BE A WEAPON!</text>
</g>
<g id="weapon_x5F_content">
	<path id="machine_x5F_gun" class="st3" d="M244.9,180.5c-0.6,0-1.1,0.1-1.1,0.1s-0.2-0.4-1.1-0.5c-0.9-0.1-40.9,0.9-41.5,0.9
		c-0.4,0-0.9-0.4-0.9-0.4s-0.7-0.7-0.7-0.9c0.3-0.2,0.3-1.4-0.2-1.4c-0.5,0-1.1,0-1.1,0l-1.5-3.3H196v-2.1l-1.5-1.5l-3.6,0.3
		l0.1,0.4c0,0-20.1,1.6-21.4,1.8c-1.3,0.3-1.3,1.5-1.3,2.3c0,0.9,0,4.2,0,4.2h-0.7l-0.1-1.1l-2.5,0.3v0.5h-0.5c0,0,0,0,0-0.5
		c0-0.5-0.5-0.9-1.2-0.9c-0.7,0-46,0.5-46.7,0.5c-0.7,0-0.9,0.5-0.9,0.5h-0.9c0,0-5-7.5-6.3-7.5c-1.3,0-1.7,0.9-1.7,1.9
		c0,0.9,0,8.3,0,8.3H88l-0.6-0.3H81c0,0-0.9,0.4-0.9,1.7c0,1.3,0.5,1.9,0.5,1.9h6.5l0.5-0.3h19.5v0.8h1.1l0.3-0.3h0.8h3.5
		c0,0,0,0.7,0,1s0.1,1.1,0.9,1.1s0.8-0.8,0.8-0.8h0.7c0,0,1,1.1,1.4,1.2c0.4,0.1,47.2,0.7,47.6,0.7c0.4,0,0.7-1.4,0.7-1.4l3,0.8
		v-1.5h0.4c0,0,0,1.3,0.7,1.5c0.7,0.2,1.3,0.9,1.3,1.4c0,0.5,0,3.4,0,4.6c-0.4,0-0.6,0.2-0.4,0.7c0.1,0.4,0.8,0.4,0.8,0.4
		s0.1,2.3,0,3.2c-0.1,0.9-2.4,10.5-2.8,11.8c-0.3,1.3,0.1,1.7,0.8,1.9c0.7,0.2,6.3,2,7.7,2.4c1.4,0.4,1.8-0.9,2.1-1.9
		c0.3-1,1.7-5.6,2.2-7.3c0.5-1.7,0.9-4.6,0.9-6.3c0-1.7,0.4-1.8,1.2-1.8c0.8,0,8.3,0.2,8.6,0.3c0.3,0.1,1.7,2.1,1.3,2.6
		c-0.3,0.6-0.3,1.1,0.4,1.1c0.8,0,0.9-0.1,1.4,0.7c0.5,0.8,2.2,4.5,1.9,5.3c-0.3,0.8,0.1,1.4,0.9,1.3c0.8-0.1,5.1-1.3,6.9-1.7
		c1.9-0.3,1-2.1,0.3-3.1c-0.7-1-5.2-6.9-6.1-8.4c-0.9-1.4-1.3-3.2-0.7-4.6c0.7-1.4,1.9-1.5,3-1.4c1.1,0.1,7.3,1.3,8.3,1.4
		c1,0.1,33,10.2,33,10.2s1,0.2,1.4,0.3c0.4,0.1,1-0.3,1.2-2c0.2-1.7,1.1-14.9,1.1-16.9C245.9,180.7,245.5,180.5,244.9,180.5z
		 M84,185.1h-2.8c-0.2,0-0.3-0.1-0.3-0.2c0-0.1,0.1-0.2,0.3-0.2H84c0.2,0,0.3,0.1,0.3,0.2C84.3,185,84.2,185.1,84,185.1z M84,184
		h-2.8c-0.2,0-0.3-0.1-0.3-0.3c0-0.2,0.1-0.3,0.3-0.3H84c0.2,0,0.3,0.1,0.3,0.3C84.3,183.8,84.2,184,84,184z M84,182.7h-2.8
		c-0.2,0-0.3-0.1-0.3-0.2c0-0.1,0.1-0.2,0.3-0.2H84c0.2,0,0.3,0.1,0.3,0.2C84.3,182.6,84.2,182.7,84,182.7z M108.8,179.4
		c0-0.3,0-1.2,0-1.3c0-0.1,0-0.3,0.4-0.3c0.3,0,0.4-0.1,0.5-0.3c0.1-0.1,0.2-0.5,0.2-0.7c0-0.3,0-0.8,0.3-0.8c0.3,0,0.5,0.3,0.7,0.6
		c0.2,0.2,1.7,2.2,1.9,2.5c0.2,0.2,0.1,0.5-0.2,0.5c-0.3,0-3.1,0-3.3,0C109.1,179.6,108.8,179.7,108.8,179.4z M112.8,182h-3.3
		c-0.1,0-0.3-0.1-0.3-0.3c0-0.1,0.1-0.3,0.3-0.3h3.3c0.1,0,0.3,0.1,0.3,0.3C113.1,181.9,113,182,112.8,182z M172.9,177.5
		c-0.2-0.7-0.9-1.1-1.6-1.1c-0.3,0-0.6,0.1-0.9,0.3c-0.1-0.2-0.1-0.4-0.1-0.6c0-0.8,0.7-1.5,1.5-1.5h15.1c0.8,0,1.5,0.7,1.5,1.5
		c0,0.8-0.7,1.5-1.5,1.5H172.9z M188.3,196.2h-3.9c-1.3,0-2.4-1.1-2.4-2.4c0-1.3,1.1-2.4,2.4-2.4h2.9c0.3,0.5,0.6,1,0.6,1.6
		c0,1.3-0.9,2.3-1.1,2.4c-0.1,0.1,0,0.4,0.2,0.3c0.3-0.1,1.7-1.6,1.7-2.9c0-0.5-0.1-0.9-0.2-1.4c1.2,0.2,2.1,1.1,2.1,2.4
		C190.7,195.2,189.6,196.2,188.3,196.2z"/>
	<g id="sword">
		<g id="XMLID_1229_">
			<g id="XMLID_1233_">
				<g id="XMLID_1238_">
					<path id="XMLID_1239_" class="st3" d="M69.2,158.5v-6.4c0-0.7,0.6-1.3,1.3-1.3h58.3v9H70.5C69.8,159.7,69.2,159.2,69.2,158.5z"
						/>
				</g>
				<g id="XMLID_1236_">
					<path id="XMLID_1237_" class="st3" d="M66.3,152.9v4.7c0,0.4,0.4,0.8,0.8,0.8h2.1v-6.3h-2.1C66.7,152.1,66.3,152.5,66.3,152.9z
						"/>
				</g>
				<g id="XMLID_1234_">
					<rect id="XMLID_1235_" x="128.8" y="142.5" class="st3" width="1.9" height="25.5"/>
				</g>
			</g>
			<g id="XMLID_1231_">
				<path id="XMLID_1232_" class="st3" d="M268.7,159.7L268.7,159.7h-138v-9l0.6,0.2c4.2,1.5,8.9,1.5,13-0.2l0,0h95.3
					C250,150.8,260.2,153.9,268.7,159.7z"/>
			</g>
			<path id="XMLID_1230_" class="st3" d="M239.7,150.8h-95.3c-4.2,1.7-8.8,1.8-13,0.2l-0.6-0.2v4.5h130
				C254.1,152.3,247,150.8,239.7,150.8z"/>
		</g>
	</g>
	<g id="dagger">
		<path id="XMLID_950_" class="st3" d="M515.6,206.7c-1.2,0-2.2,1-2.2,2.2c0,1.2,1,2.2,2.2,2.2c1.2,0,2.2-1,2.2-2.2
			C517.8,207.7,516.8,206.7,515.6,206.7z M515.6,210.1c-0.7,0-1.2-0.5-1.2-1.2c0-0.7,0.5-1.2,1.2-1.2c0.7,0,1.2,0.5,1.2,1.2
			C516.8,209.6,516.3,210.1,515.6,210.1z"/>
		<g id="XMLID_812_">
			<path id="XMLID_707_" class="st3" d="M517.3,206.1h-3.4c-0.3,0-0.5-0.2-0.5-0.5v-19.9h4.5v19.9
				C517.8,205.8,517.6,206.1,517.3,206.1z"/>
			<path id="XMLID_706_" class="st3" d="M514.3,207.1h2.6c0.2,0,0.3-0.2,0.3-0.3v-0.6H514v0.6C514,206.9,514.1,207.1,514.3,207.1z"
				/>
			<polygon id="XMLID_705_" class="st3" points="515.6,186.5 514.8,187.1 515.6,187.7 516.4,187.1 			"/>
			<polygon id="XMLID_704_" class="st3" points="515.6,188.2 514.8,188.8 515.6,189.4 516.4,188.8 			"/>
			<polygon id="XMLID_703_" class="st3" points="515.6,189.8 514.8,190.5 515.6,191.1 516.4,190.5 			"/>
			<polygon id="XMLID_702_" class="st3" points="515.6,191.5 514.8,192.1 515.6,192.7 516.4,192.1 			"/>
			<polygon id="XMLID_701_" class="st3" points="515.6,193.2 514.8,193.8 515.6,194.4 516.4,193.8 			"/>
			<polygon id="XMLID_682_" class="st3" points="515.6,194.9 514.8,195.5 515.6,196.1 516.4,195.5 			"/>
			<polygon id="XMLID_663_" class="st3" points="515.6,196.6 514.8,197.2 515.6,197.8 516.4,197.2 			"/>
			<polygon id="XMLID_662_" class="st3" points="515.6,198.3 514.8,198.9 515.6,199.5 516.4,198.9 			"/>
			<polygon id="XMLID_661_" class="st3" points="515.6,200 514.8,200.6 515.6,201.2 516.4,200.6 			"/>
			<polygon id="XMLID_660_" class="st3" points="515.6,201.6 514.8,202.2 515.6,202.9 516.4,202.2 			"/>
			<polygon id="XMLID_659_" class="st3" points="515.6,203.3 514.8,203.9 515.6,204.5 516.4,203.9 			"/>
			<rect id="XMLID_658_" x="511.2" y="185" class="st3" width="8.8" height="0.7"/>
		</g>
		<path id="XMLID_656_" class="st3" d="M515.6,153L515.6,153L515.6,153c-2.4,5.4-3.6,11.2-3.6,17.1V185h7.2v-14.9
			C519.1,164.2,517.9,158.4,515.6,153z"/>
		<path id="XMLID_649_" class="st3" d="M515.4,153.3c-2.3,5.3-3.5,11-3.5,16.8V185h3.5V153.3z"/>
	</g>
	<g id="chain">
		<path id="XMLID_1226_" class="st3" d="M498.1,193.9c0,0,0.1,0,0.1,0c0.7-0.3,1-0.8,1-1.5c0-0.4,0-0.8,0-1.2c0-0.4-0.1-0.7-0.4-1v0
			c-0.2-0.2-0.4-0.5-0.8-0.5c0-0.1,0-0.3,0-0.4c0-0.1,0-0.1,0-0.2c0.6-0.3,1.1-0.9,1.1-1.6c0-0.2,0-0.4,0-0.6c0-0.2,0-0.3,0-0.5
			c0-0.5-0.1-0.9-0.5-1.2l0,0c-0.2-0.2-0.3-0.4-0.7-0.4c0-0.2,0-0.4,0-0.6c0,0,0,0,0,0c0,0,0.1,0,0.1,0c0.7-0.3,1-0.8,1-1.5
			c0-0.4,0-0.8,0-1.2c0-0.4-0.1-0.7-0.4-1v0c-0.2-0.2-0.4-0.5-0.8-0.5c0-0.1,0-0.3,0-0.4c0-0.2,0-0.4,0-0.7c0-0.1,0-0.2,0-0.3
			c0,0,0,0,0-0.1c0,0,0,0,0-0.1c0-0.1,0-0.1-0.1-0.2c-0.1-0.3-0.3-0.3-0.5-0.3c-0.2,0-0.4,0.2-0.5,0.4c0,0.1,0,0.3,0,0.4
			c0,0.3,0,0.7,0,1l0,0.2c-0.1,0-0.2,0.1-0.2,0.1c-0.6,0.3-0.9,0.8-0.9,1.4c0,0.4,0,0.8,0,1.3c0,0.5,0.2,0.9,0.7,1.3
			c0.1,0.1,0.2,0.1,0.3,0.2c0,0,0.1,0,0.1,0.1c0,0,0,0,0,0c0,0.1,0,0.3,0,0.4c0,0.1,0,0.1,0,0.2c0,0,0,0,0,0c0,0-0.1,0-0.1,0
			c-0.7,0.3-1,0.8-1,1.6c0,0.3,0,0.7,0,1l0,0.1c0,0.2,0,0.3,0,0.4c0.1,0.4,0.4,0.8,0.8,1c0.1,0.1,0.3,0.1,0.4,0.2c0,0.1,0,0.2,0,0.4
			l0,0.2c-0.1,0-0.2,0.1-0.2,0.1c-0.6,0.3-0.9,0.8-0.9,1.4c0,0.4,0,0.8,0,1.3c0,0.5,0.2,0.9,0.7,1.3c0.1,0.1,0.2,0.1,0.3,0.2
			c0,0,0.1,0,0.1,0.1c0,0,0,0,0,0c0,0.1,0,0.3,0,0.4c0,0.1,0,0.1,0,0.2c0,0,0,0,0,0c0,0-0.1,0-0.1,0c-0.7,0.3-1,0.8-1,1.6
			c0,0.3,0,0.7,0,1l0,0.1c0,0.2,0,0.3,0,0.4c0.1,0.4,0.4,0.8,0.8,1c0.1,0.1,0.3,0.1,0.4,0.2c0,0.1,0,0.2,0,0.4l0,0.2
			c-0.1,0-0.2,0.1-0.2,0.1c-0.6,0.3-0.9,0.8-0.9,1.4c0,0.4,0,0.8,0,1.3c0,0.5,0.2,0.9,0.7,1.3c0.1,0.1,0.2,0.1,0.3,0.2
			c0,0,0.1,0,0.1,0.1c0,0,0,0,0,0c0,0.1,0,0.3,0,0.4c0,0.1,0,0.1,0,0.2c0,0,0,0,0,0c0,0-0.1,0-0.1,0c-0.7,0.3-1,0.8-1,1.6
			c0,0.3,0,0.7,0,1l0,0.1c0,0.2,0,0.3,0,0.4c0.1,0.3,0.3,0.6,0.5,0.8c0,0,0,0,0,0l-0.1,0.1c-0.1-0.1-0.2-0.1-0.2-0.1
			c-0.7-0.1-1.2,0.1-1.6,0.6c-0.2,0.3-0.5,0.6-0.8,1c-0.3,0.4-0.4,0.8-0.3,1.3c-0.1,0-0.1,0-0.2,0c0.1-0.5,0-1-0.4-1.4
			c-0.3-0.3-0.5-0.6-0.8-0.9c-0.3-0.3-0.6-0.5-0.9-0.5c-0.3,0-0.6-0.1-0.9,0.1c-0.1-0.1-0.1-0.1-0.2-0.2c0.4-0.3,0.6-0.8,0.6-1.3
			c0-0.2,0-0.4,0-0.6c0-0.2,0-0.3,0-0.5c0-0.5-0.1-0.9-0.5-1.2l0,0c-0.2-0.2-0.3-0.4-0.7-0.4c0-0.2,0-0.4,0-0.6c0,0,0,0,0,0
			c0,0,0.1,0,0.1,0c0.7-0.3,1-0.8,1-1.5c0-0.4,0-0.8,0-1.2c0-0.4-0.1-0.7-0.4-1c-0.2-0.2-0.4-0.5-0.8-0.5c0-0.1,0-0.3,0-0.4
			c0-0.1,0-0.1,0-0.2c0.6-0.3,1.1-0.9,1.1-1.6c0-0.2,0-0.4,0-0.6c0-0.2,0-0.3,0-0.5c0-0.5-0.1-0.9-0.5-1.2l0,0
			c-0.2-0.2-0.3-0.4-0.7-0.4c0-0.2,0-0.4,0-0.6c0,0,0,0,0,0c0,0,0.1,0,0.1,0c0.7-0.3,1-0.8,1-1.5c0-0.4,0-0.8,0-1.2
			c0-0.4-0.1-0.7-0.4-1c-0.2-0.2-0.4-0.5-0.8-0.5c0-0.1,0-0.3,0-0.4c0-0.1,0-0.1,0-0.2c0.6-0.3,1.1-0.9,1.1-1.6c0-0.2,0-0.4,0-0.6
			c0-0.2,0-0.3,0-0.5c0-0.5-0.1-0.9-0.5-1.2l0,0c-0.2-0.2-0.3-0.4-0.7-0.4c0-0.2,0-0.4,0-0.6c0,0,0,0,0,0c0,0,0.1,0,0.1,0
			c0.7-0.3,1-0.8,1-1.5c0-0.4,0-0.8,0-1.2c0-0.4-0.1-0.7-0.4-1c-0.2-0.2-0.4-0.5-0.8-0.5c0-0.1,0-0.3,0-0.4c0-0.2,0-0.5,0-0.7l0-0.3
			c0,0,0,0,0-0.1c0,0,0,0,0-0.1c0-0.1,0-0.1-0.1-0.2c-0.1-0.3-0.3-0.3-0.5-0.3c-0.2,0-0.4,0.2-0.5,0.4c0,0.1,0,0.3,0,0.4
			c0,0.4,0,0.7,0,1.1l0,0.2c-0.1,0-0.2,0.1-0.2,0.1c-0.6,0.3-0.9,0.8-0.9,1.4c0,0.4,0,0.8,0,1.3c0,0.5,0.2,0.9,0.7,1.3
			c0.1,0.1,0.2,0.1,0.3,0.2c0,0,0.1,0,0.1,0.1c0,0,0,0,0,0c0,0.1,0,0.3,0,0.4c0,0.1,0,0.1,0,0.2c0,0,0,0,0,0c0,0-0.1,0-0.1,0
			c-0.7,0.3-1,0.8-1,1.6c0,0.3,0,0.7,0,1l0,0.1c0,0.2,0,0.3,0,0.4c0.1,0.4,0.4,0.8,0.8,1c0.1,0.1,0.3,0.1,0.4,0.2c0,0.1,0,0.3,0,0.4
			l0,0.2c-0.1,0-0.2,0.1-0.2,0.1c-0.6,0.3-0.9,0.8-0.9,1.4c0,0.4,0,0.8,0,1.3c0,0.5,0.2,0.9,0.7,1.3c0.1,0.1,0.2,0.1,0.3,0.2
			c0,0,0.1,0,0.1,0.1c0,0,0,0,0,0c0,0.1,0,0.3,0,0.4c0,0.1,0,0.1,0,0.2c0,0,0,0,0,0c0,0-0.1,0-0.1,0c-0.7,0.3-1,0.8-1,1.6
			c0,0.3,0,0.7,0,1l0,0.1c0,0.2,0,0.3,0,0.4c0.1,0.4,0.4,0.8,0.8,1c0.1,0.1,0.3,0.1,0.4,0.2c0,0.1,0,0.3,0,0.4l0,0.2
			c-0.1,0-0.2,0.1-0.2,0.1c-0.6,0.3-0.9,0.8-0.9,1.4c0,0.4,0,0.8,0,1.3c0,0.5,0.2,0.9,0.7,1.3c0.1,0.1,0.2,0.1,0.3,0.2
			c0,0,0.1,0,0.1,0.1c0,0,0,0,0,0c0,0.1,0,0.3,0,0.4c0,0.1,0,0.1,0,0.2c0,0,0,0,0,0c0,0-0.1,0-0.1,0c-0.7,0.3-1,0.8-1,1.6
			c0,0.3,0,0.7,0,1l0,0.1c0,0.2,0,0.3,0,0.4c0.1,0.4,0.4,0.8,0.8,1c0.3,0.2,0.6,0.2,0.9,0.2c0,0,0,0,0,0c0.1,0.1,0.2,0.2,0.3,0.3
			l0.1,0.1c-0.1,0.1-0.1,0.2-0.1,0.2c-0.2,0.6-0.2,1.2,0.2,1.7c0.2,0.3,0.5,0.6,0.8,1c0.3,0.3,0.7,0.5,1.2,0.5c0,0,0.1,0,0.1,0
			c0.1,0,0.2,0,0.3-0.1c0,0,0.1,0,0.1,0c0,0,0.1,0,0.1,0c0.2,0,0.3,0,0.5,0c0.2,0,0.4,0,0.6,0c0.3,0,0.5,0,0.8,0c0.1,0,0.2,0,0.2,0
			c0,0,0,0,0,0c0,0,0,0,0,0c0,0,0.1,0,0.1,0c0.2,0,0.3,0.1,0.5,0.1c0.5,0,0.9-0.2,1.3-0.6c0.3-0.3,0.5-0.6,0.7-0.9
			c0.2-0.3,0.4-0.7,0.3-1c0-0.3,0-0.6-0.3-0.9c0.1-0.1,0.2-0.2,0.3-0.3c0,0,0,0,0.1-0.1c0,0,0.1,0,0.1,0c0.1,0,0.3,0,0.4,0
			c0.8-0.2,1.3-0.9,1.3-1.7c0-0.2,0-0.4,0-0.6c0-0.2,0-0.3,0-0.5c0-0.5-0.1-0.9-0.5-1.2l0,0c-0.2-0.2-0.3-0.4-0.7-0.4
			c0-0.2,0-0.4,0-0.6c0,0,0,0,0,0c0,0,0.1,0,0.1,0c0.7-0.3,1-0.8,1-1.5c0-0.4,0-0.8,0-1.2c0-0.4-0.1-0.7-0.4-1
			c-0.2-0.2-0.4-0.5-0.8-0.5c0-0.1,0-0.3,0-0.4c0-0.1,0-0.1,0-0.2c0.6-0.3,1.1-0.9,1.1-1.6c0-0.2,0-0.4,0-0.6c0-0.2,0-0.3,0-0.5
			c0-0.5-0.1-0.9-0.5-1.2l0,0c-0.2-0.2-0.3-0.4-0.7-0.4C498,194.3,498,194.1,498.1,193.9C498,193.9,498,193.9,498.1,193.9z
			 M497.9,195.6c0.1,0.1,0.2,0.3,0.2,0.5c0,0.4,0,0.8,0,1.3c0,0.1,0,0.2-0.1,0.2c0,0-0.1,0.1-0.1,0.1c-0.1-0.2-0.3-0.3-0.5-0.3
			c-0.2,0-0.4,0.2-0.5,0.4c-0.2-0.1-0.3-0.3-0.3-0.6c0-0.1,0-0.3,0-0.4c0-0.2,0-0.4,0-0.6c0-0.3,0.1-0.5,0.2-0.6
			c0.1,0.2,0.2,0.3,0.4,0.3c0,0,0,0,0,0C497.7,195.9,497.8,195.8,497.9,195.6C497.9,195.6,497.9,195.6,497.9,195.6z M498,200.6
			c0.1,0.1,0.2,0.3,0.2,0.4c0,0.4,0,0.7,0,1.1c0,0.2-0.1,0.4-0.2,0.5c0,0,0,0,0,0c0,0,0-0.1,0-0.1c-0.1-0.2-0.2-0.3-0.4-0.3
			c0,0,0,0,0,0c-0.2,0-0.3,0.1-0.4,0.3c0,0,0,0,0,0.1c0,0,0,0,0,0c-0.1-0.1-0.2-0.3-0.2-0.5c0-0.3,0-0.6,0-0.9c0-0.1,0-0.2,0-0.3
			c0-0.1,0.1-0.3,0.2-0.4c0,0,0,0,0.1-0.1c0.1,0.2,0.2,0.3,0.4,0.3c0,0,0,0,0,0C497.7,200.8,497.9,200.7,498,200.6
			C498,200.5,498,200.6,498,200.6z M497.9,205.4c0.1,0.1,0.2,0.3,0.2,0.5c0,0.4,0,0.8,0,1.3c0,0.1,0,0.2-0.1,0.2c0,0,0,0,0,0.1
			c0-0.1-0.1-0.2-0.2-0.2c-0.2-0.1-0.4-0.1-0.6,0c-0.1,0.1-0.2,0.2-0.3,0.3l0,0c-0.1-0.1-0.2-0.3-0.2-0.5c0-0.1,0-0.3,0-0.4
			c0-0.2,0-0.4,0-0.6c0-0.3,0.1-0.5,0.2-0.6c0.1,0.2,0.2,0.3,0.4,0.3c0,0,0,0,0,0C497.7,205.7,497.8,205.6,497.9,205.4
			C497.9,205.4,497.9,205.4,497.9,205.4z M497.9,192.8c-0.1-0.2-0.2-0.3-0.4-0.3c0,0,0,0,0,0c-0.2,0-0.3,0.1-0.4,0.3c0,0,0,0,0,0.1
			c0,0,0,0,0,0c-0.1-0.1-0.2-0.3-0.2-0.5c0-0.3,0-0.6,0-0.9c0-0.1,0-0.2,0-0.3c0-0.1,0.1-0.3,0.2-0.4c0,0,0,0,0.1-0.1
			c0.1,0.2,0.2,0.3,0.4,0.3h0c0.2,0,0.4-0.1,0.5-0.3c0,0,0,0.1,0.1,0.1c0.1,0.1,0.2,0.3,0.2,0.4c0,0.4,0,0.7,0,1.1
			C498.2,192.5,498.1,192.7,497.9,192.8C498,192.8,498,192.8,497.9,192.8C497.9,192.8,497.9,192.8,497.9,192.8z M497,185.7
			c0.1,0.2,0.2,0.3,0.4,0.3c0,0,0,0,0,0c0.2,0,0.4-0.1,0.5-0.3c0,0,0,0,0,0c0.1,0.1,0.2,0.3,0.2,0.5c0,0.4,0,0.8,0,1.3
			c0,0.1,0,0.2-0.1,0.2c0,0-0.1,0.1-0.1,0.1c-0.1-0.2-0.3-0.3-0.5-0.3c-0.2,0-0.4,0.2-0.5,0.4c-0.2-0.1-0.3-0.3-0.3-0.6
			c0-0.1,0-0.3,0-0.4c0-0.2,0-0.4,0-0.6C496.8,186.1,496.9,185.9,497,185.7z M497,183c-0.1-0.1-0.2-0.3-0.2-0.5c0-0.3,0-0.6,0-0.9
			c0-0.1,0-0.2,0-0.3c0-0.1,0.1-0.3,0.2-0.4c0,0,0,0,0.1-0.1c0.1,0.2,0.2,0.3,0.4,0.3h0c0.2,0,0.4-0.1,0.5-0.3c0,0,0,0.1,0.1,0.1
			c0.1,0.1,0.2,0.3,0.2,0.4c0,0.4,0,0.7,0,1.1c0,0.2-0.1,0.4-0.2,0.5c0,0,0,0,0,0c0,0,0-0.1,0-0.1c-0.1-0.2-0.2-0.3-0.4-0.3
			c0,0,0,0,0,0C497.3,182.7,497.2,182.8,497,183C497.1,182.9,497.1,183,497,183C497.1,183,497,183,497,183z M496.3,210
			c0,0.2-0.1,0.3-0.1,0.4c-0.2,0.3-0.5,0.6-0.7,0.9c-0.1,0.2-0.3,0.3-0.5,0.3c-0.1-0.2-0.2-0.3-0.4-0.3c-0.1,0-0.2,0-0.3,0l0-0.1
			c0-0.1,0-0.1,0-0.2c0-0.2,0-0.4,0.1-0.5c0.2-0.2,0.4-0.5,0.6-0.7c0.1-0.1,0.1-0.2,0.2-0.2c0.1-0.1,0.2-0.2,0.4-0.2
			c0,0,0.1,0,0.1,0c0,0.2,0,0.4,0.1,0.5c0.2,0.1,0.4,0.1,0.5,0.1C496.3,210,496.3,210,496.3,210z M490.8,209.4
			c0.2,0,0.3,0.1,0.4,0.2c0.2,0.3,0.5,0.6,0.7,0.9c0.1,0.2,0.2,0.3,0.2,0.5c0,0.1,0,0.2,0,0.3c-0.1,0-0.3,0-0.4,0c0,0,0,0,0,0
			c0,0-0.1,0-0.1,0.1c-0.1,0.1-0.2,0.1-0.3,0.2c-0.1,0-0.2-0.1-0.3-0.2c-0.2-0.2-0.4-0.5-0.6-0.7l-0.2-0.2c-0.1-0.1-0.1-0.2-0.1-0.4
			c0,0,0-0.1,0-0.1c0.2,0.1,0.4,0.1,0.5-0.1c0.2-0.1,0.2-0.3,0.2-0.5C490.8,209.4,490.8,209.4,490.8,209.4z M488.4,205.4
			c0.1,0.2,0.2,0.3,0.4,0.3c0,0,0,0,0,0c0.2,0,0.4-0.1,0.5-0.3c0,0,0,0,0,0c0.1,0.1,0.2,0.3,0.2,0.5c0,0.4,0,0.8,0,1.3
			c0,0.1,0,0.2-0.1,0.2c0,0.1-0.1,0.1-0.2,0.2c0,0-0.1-0.1-0.1-0.1c0,0,0,0-0.1,0c0,0,0,0-0.1,0c-0.1,0-0.1-0.1-0.2-0.1
			c-0.3-0.1-0.4,0-0.6,0.1c0,0-0.1,0.1-0.1,0.1c-0.1-0.1-0.1-0.3-0.1-0.4c0-0.1,0-0.3,0-0.4c0-0.2,0-0.4,0-0.6
			C488.2,205.8,488.3,205.6,488.4,205.4z M488.4,195.6c0.1,0.2,0.2,0.3,0.4,0.3c0,0,0,0,0,0c0.2,0,0.4-0.1,0.5-0.3c0,0,0,0,0,0
			c0.1,0.1,0.2,0.3,0.2,0.5c0,0.4,0,0.8,0,1.3c0,0.1,0,0.2-0.1,0.2c0,0-0.1,0.1-0.1,0.1c-0.1-0.2-0.3-0.3-0.5-0.3
			c-0.2,0-0.4,0.2-0.5,0.4c-0.2-0.1-0.3-0.3-0.3-0.6c0-0.1,0-0.3,0-0.4c0-0.2,0-0.4,0-0.6C488.2,195.9,488.3,195.7,488.4,195.6z
			 M488.4,185.7c0.1,0.2,0.2,0.3,0.4,0.3c0,0,0,0,0,0c0.2,0,0.4-0.1,0.5-0.3c0,0,0,0,0,0c0.1,0.1,0.2,0.3,0.2,0.5c0,0.4,0,0.8,0,1.3
			c0,0.1,0,0.2-0.1,0.2c0,0-0.1,0.1-0.1,0.1c-0.1-0.2-0.3-0.3-0.5-0.3c-0.2,0-0.4,0.2-0.5,0.4c-0.2-0.1-0.3-0.3-0.3-0.6
			c0-0.1,0-0.3,0-0.4c0-0.2,0-0.4,0-0.6C488.2,186.1,488.3,185.9,488.4,185.7z M489.5,180.9c0.1,0.1,0.2,0.3,0.2,0.4
			c0,0.4,0,0.7,0,1.1c0,0.2-0.1,0.4-0.2,0.5c0,0,0,0,0,0c0,0,0-0.1,0-0.1c-0.1-0.2-0.2-0.3-0.4-0.3h0c-0.2,0-0.3,0.1-0.4,0.3
			c0,0,0,0,0,0.1c0,0,0,0,0,0c-0.1-0.1-0.2-0.3-0.2-0.5c0-0.3,0-0.6,0-0.9c0-0.1,0-0.2,0-0.3c0-0.1,0.1-0.3,0.2-0.4c0,0,0,0,0.1-0.1
			c0.1,0.2,0.2,0.3,0.4,0.3c0,0,0,0,0,0C489.1,181.1,489.3,181,489.5,180.9C489.4,180.8,489.4,180.9,489.5,180.9z M489.5,190.7
			c0.1,0.1,0.2,0.3,0.2,0.4c0,0.4,0,0.7,0,1.1c0,0.2-0.1,0.4-0.2,0.5c0,0,0,0,0,0c0,0,0-0.1,0-0.1c-0.1-0.2-0.2-0.3-0.4-0.3h0
			c-0.2,0-0.3,0.1-0.4,0.3c0,0,0,0,0,0.1c0,0,0,0,0,0c-0.1-0.1-0.2-0.3-0.2-0.5c0-0.3,0-0.6,0-0.9c0-0.1,0-0.2,0-0.3
			c0-0.1,0.1-0.3,0.2-0.4c0,0,0,0,0.1-0.1c0.1,0.2,0.2,0.3,0.4,0.3C489.1,190.9,489.3,190.8,489.5,190.7
			C489.4,190.7,489.4,190.7,489.5,190.7z M489.5,200.6c0.1,0.1,0.2,0.3,0.2,0.4c0,0.4,0,0.7,0,1.1c0,0.2-0.1,0.4-0.2,0.5
			c0,0,0,0,0,0c0,0,0-0.1,0-0.1c-0.1-0.2-0.2-0.3-0.4-0.3h0c-0.2,0-0.3,0.1-0.4,0.3c0,0,0,0,0,0.1c0,0,0,0,0,0
			c-0.1-0.1-0.2-0.3-0.2-0.5c0-0.3,0-0.6,0-0.9c0-0.1,0-0.2,0-0.3c0-0.1,0.1-0.3,0.2-0.4c0,0,0,0,0.1-0.1c0.1,0.2,0.2,0.3,0.4,0.3
			c0,0,0,0,0,0C489.1,200.8,489.3,200.7,489.5,200.6C489.4,200.5,489.4,200.6,489.5,200.6z"/>
		<g id="XMLID_985_">
			<g id="XMLID_2195_">
				<g id="XMLID_2379_">
					<path id="XMLID_2382_" class="st3" d="M496.8,206.6c0-0.2,0-0.4,0-0.6c0-0.2,0.1-0.4,0.2-0.5c0,0,0,0,0-0.1c0,0,0,0,0,0
						c-0.1,0.2-0.3,0.3-0.5,0.3c0,0,0,0,0,0c-0.2,0-0.4-0.1-0.4-0.3c-0.1,0.1-0.2,0.2-0.2,0.3c0,0.1,0,0.2,0,0.2c0,0.3,0,0.7,0,1
						l0,0.1c0,0.1,0,0.2,0,0.3c0,0.1,0.1,0.1,0.1,0.2l0,0c0.1-0.1,0.2-0.2,0.3-0.3c0.2-0.1,0.4-0.2,0.6,0c0-0.1,0-0.1,0-0.2
						C496.8,206.9,496.8,206.8,496.8,206.6z"/>
				</g>
				<g id="XMLID_2375_">
					<path id="XMLID_2378_" class="st3" d="M495.2,208.4c0,0-0.1,0-0.1,0C495.1,208.5,495.2,208.5,495.2,208.4L495.2,208.4z"/>
				</g>
				<g id="XMLID_2371_">
					<path id="XMLID_2374_" class="st3" d="M490.2,210.5c-0.1-0.1-0.1-0.2-0.1-0.4c0,0,0-0.1,0-0.1c0.2,0.1,0.3,0.1,0.4,0
						c-0.1-0.1-0.2-0.2-0.3-0.3c-0.1-0.1-0.2-0.2-0.4-0.2c0,0-0.1,0-0.1,0c0,0.2,0,0.4-0.2,0.5c-0.1,0.1-0.3,0.1-0.5,0.1
						c0,0.1,0,0.2,0,0.3c0,0.1,0,0.1,0.1,0.2l0.2,0.2c0.2,0.2,0.4,0.5,0.6,0.7c0.1,0.1,0.2,0.2,0.3,0.2c0.1-0.1,0.1-0.2,0.3-0.2
						c0,0,0.1,0,0.1-0.1c0,0,0,0,0,0c0.1,0,0.1,0,0.2,0c-0.2-0.2-0.4-0.4-0.5-0.6L490.2,210.5z"/>
				</g>
				<g id="XMLID_2369_">
					<path id="XMLID_2370_" class="st3" d="M496,183C496,183,496,182.9,496,183c0.1-0.2,0.3-0.3,0.5-0.3c0,0,0,0,0,0
						c0.2,0,0.3,0.1,0.4,0.3c0,0,0,0.1,0,0.1c0,0,0,0,0,0c0,0,0,0,0-0.1c-0.1-0.1-0.2-0.3-0.2-0.4c0-0.3,0-0.6,0-0.9
						c0-0.1,0-0.2,0-0.3c0-0.1,0.1-0.2,0.2-0.4c0,0,0,0-0.1-0.1c-0.1,0.2-0.3,0.3-0.5,0.3h0c-0.2,0-0.3-0.1-0.4-0.3c0,0,0,0-0.1,0.1
						c-0.1,0.1-0.1,0.1-0.1,0.2c0,0.1,0,0.1,0,0.2c0,0.4,0,0.8,0,1.3c0,0.1,0,0.1,0,0.2C495.9,182.8,495.9,182.9,496,183
						C496,183,496,183,496,183z"/>
				</g>
				<g id="XMLID_2361_">
					<path id="XMLID_2362_" class="st3" d="M496,202.7C496,202.6,496,202.6,496,202.7c0.1-0.2,0.3-0.3,0.5-0.3c0,0,0,0,0,0
						c0.2,0,0.3,0.1,0.4,0.3c0,0,0,0.1,0,0.1c0,0,0,0,0,0c0,0,0,0,0-0.1c-0.1-0.1-0.2-0.3-0.2-0.4c0-0.3,0-0.6,0-0.9
						c0-0.1,0-0.2,0-0.3c0-0.1,0.1-0.2,0.2-0.4c0,0,0,0-0.1-0.1c-0.1,0.2-0.3,0.3-0.5,0.3h0c-0.2,0-0.3-0.1-0.4-0.3c0,0,0,0-0.1,0.1
						c-0.1,0.1-0.1,0.1-0.1,0.2c0,0.1,0,0.1,0,0.2c0,0.4,0,0.8,0,1.3c0,0.1,0,0.1,0,0.2C495.9,202.5,495.9,202.6,496,202.7
						C496,202.7,496,202.7,496,202.7z"/>
				</g>
				<g id="XMLID_2356_">
					<path id="XMLID_2360_" class="st3" d="M496,188c0.1-0.2,0.2-0.4,0.5-0.4c0.1,0,0.2,0,0.3,0.1c0-0.1-0.1-0.2-0.1-0.3
						c0-0.1,0-0.3,0-0.4c0-0.2,0-0.4,0-0.6c0-0.2,0.1-0.4,0.2-0.5c0,0,0,0,0-0.1c0,0,0,0,0,0c-0.1,0.2-0.3,0.3-0.5,0.3c0,0,0,0,0,0
						c-0.2,0-0.4-0.1-0.4-0.3c-0.1,0.1-0.2,0.2-0.2,0.3c0,0.1,0,0.2,0,0.2c0,0.3,0,0.7,0,1l0,0.1c0,0.1,0,0.2,0,0.3
						C495.9,187.8,495.9,187.9,496,188z"/>
				</g>
				<g id="XMLID_2354_">
					<path id="XMLID_2355_" class="st3" d="M487.4,207.4c0.1-0.1,0.3-0.2,0.6-0.1c0.1,0,0.1,0.1,0.2,0.1c0,0,0,0,0.1,0
						c0,0,0,0,0.1,0c0,0,0.1,0.1,0.1,0.1c0.1-0.1,0.1-0.1,0.2-0.2c0,0,0-0.1,0-0.1c0,0-0.1,0.1-0.1,0.1c0,0-0.1,0.1-0.1,0.1
						c-0.1-0.1-0.1-0.3-0.1-0.4c0-0.1,0-0.3,0-0.4c0-0.2,0-0.4,0-0.6c0-0.2,0.1-0.4,0.2-0.5c0,0,0,0,0-0.1c0,0,0,0,0,0
						c-0.1,0.2-0.3,0.3-0.5,0.3c0,0,0,0,0,0c-0.2,0-0.4-0.1-0.4-0.3c-0.1,0.1-0.2,0.2-0.2,0.3c0,0.1,0,0.2,0,0.2c0,0.3,0,0.7,0,1
						l0,0.1c0,0.1,0,0.2,0,0.3C487.2,207.4,487.3,207.4,487.4,207.4C487.3,207.4,487.3,207.4,487.4,207.4z"/>
				</g>
				<g id="XMLID_2352_">
					<path id="XMLID_2353_" class="st3" d="M488.5,178.3C488.5,178.3,488.5,178.3,488.5,178.3l0,0.4c0,0.2,0,0.5,0,0.7
						c0,0.1,0,0.3,0,0.4c0.4,0.1,0.6,0.3,0.8,0.5c0.2,0.2,0.3,0.5,0.3,0.8c0,0.1,0,0.2,0,0.2c0,0.4,0,0.7,0,1.1c0,0.1,0,0.2,0,0.3
						c-0.1,0.6-0.4,1-1,1.3c0,0-0.1,0-0.1,0c0,0,0,0,0,0c0,0.2,0,0.4,0,0.6c0.3,0,0.5,0.2,0.7,0.4l0,0c0.2,0.2,0.4,0.5,0.4,0.9
						c0,0.1,0.1,0.2,0.1,0.3c0,0.4,0,0.8,0,1.3c0,0.1,0,0.2-0.1,0.2c0,0,0,0,0,0c-0.1,0.6-0.5,1-1,1.2c0,0.1,0,0.1,0,0.2
						c0,0.1,0,0.3,0,0.4c0.4,0.1,0.6,0.3,0.8,0.5c0.2,0.2,0.3,0.5,0.3,0.8c0,0.1,0,0.2,0,0.2c0,0.4,0,0.7,0,1.1c0,0.1,0,0.2,0,0.3
						c-0.1,0.6-0.4,1-1,1.3c0,0-0.1,0-0.1,0c0,0,0,0,0,0c0,0.2,0,0.4,0,0.6c0.3,0,0.5,0.2,0.7,0.4l0,0c0.2,0.2,0.4,0.5,0.4,0.9
						c0,0.1,0.1,0.2,0.1,0.3c0,0.4,0,0.8,0,1.3c0,0.1,0,0.2-0.1,0.2c0,0,0,0,0,0c-0.1,0.6-0.5,1-1,1.2c0,0.1,0,0.1,0,0.2
						c0,0.1,0,0.3,0,0.4c0.4,0.1,0.6,0.3,0.8,0.5c0.2,0.2,0.3,0.5,0.3,0.8c0,0.1,0,0.2,0,0.2c0,0.4,0,0.7,0,1.1c0,0.1,0,0.2,0,0.3
						c-0.1,0.6-0.4,1-1,1.3c0,0-0.1,0-0.1,0c0,0,0,0,0,0c0,0.2,0,0.4,0,0.6c0.3,0,0.5,0.2,0.7,0.4l0,0c0.2,0.2,0.4,0.5,0.4,0.9
						c0,0.1,0.1,0.2,0.1,0.3c0,0.4,0,0.8,0,1.3c0,0.1,0,0.2-0.1,0.2c-0.1,0.4-0.3,0.7-0.6,1c0.1,0.1,0.1,0.1,0.2,0.2
						c0.3-0.2,0.7-0.2,0.9-0.1c0,0,0-0.1-0.1-0.1c0.4-0.3,0.6-0.8,0.6-1.3c0-0.2,0-0.4,0-0.6c0-0.2,0-0.3,0-0.5
						c0-0.5-0.1-0.9-0.5-1.2l0,0c-0.2-0.2-0.3-0.4-0.7-0.4c0-0.2,0-0.4,0-0.6c0,0,0,0,0,0c0,0,0.1,0,0.1,0c0.7-0.3,1-0.8,1-1.5
						c0-0.4,0-0.8,0-1.2c0-0.4-0.1-0.7-0.4-1c-0.2-0.2-0.4-0.5-0.8-0.5c0-0.1,0-0.3,0-0.4c0-0.1,0-0.1,0-0.2
						c0.6-0.3,1.1-0.9,1.1-1.6c0-0.2,0-0.4,0-0.6c0-0.2,0-0.3,0-0.5c0-0.5-0.1-0.9-0.5-1.2l0,0c-0.2-0.2-0.3-0.4-0.7-0.4
						c0-0.2,0-0.4,0-0.6c0,0,0,0,0,0c0,0,0.1,0,0.1,0c0.7-0.3,1-0.8,1-1.5c0-0.4,0-0.8,0-1.2c0-0.4-0.1-0.7-0.4-1
						c-0.2-0.2-0.4-0.5-0.8-0.5c0-0.1,0-0.3,0-0.4c0-0.1,0-0.1,0-0.2c0.6-0.3,1.1-0.9,1.1-1.6c0-0.2,0-0.4,0-0.6c0-0.2,0-0.3,0-0.5
						c0-0.5-0.1-0.9-0.5-1.2l0,0c-0.2-0.2-0.3-0.4-0.7-0.4c0-0.2,0-0.4,0-0.6c0,0,0,0,0,0c0,0,0.1,0,0.1,0c0.7-0.3,1-0.8,1-1.5
						c0-0.4,0-0.8,0-1.2c0-0.4-0.1-0.7-0.4-1c-0.2-0.2-0.4-0.5-0.8-0.5c0-0.1,0-0.3,0-0.4c0-0.2,0-0.5,0-0.7l0-0.3c0,0,0,0,0-0.1
						c0,0,0,0,0-0.1c0-0.1,0-0.1-0.1-0.2c-0.1-0.3-0.3-0.3-0.5-0.3c-0.2,0-0.4,0.2-0.5,0.4C488.5,178.2,488.5,178.2,488.5,178.3
						C488.5,178.2,488.5,178.2,488.5,178.3C488.5,178.2,488.5,178.3,488.5,178.3z"/>
				</g>
				<g id="XMLID_2350_">
					<path id="XMLID_2351_" class="st3" d="M487.4,202.7C487.5,202.6,487.5,202.6,487.4,202.7c0.1-0.2,0.3-0.3,0.5-0.3c0,0,0,0,0,0
						c0.2,0,0.3,0.1,0.4,0.3c0,0,0,0.1,0,0.1c0,0,0,0,0,0c0,0,0,0,0-0.1c-0.1-0.1-0.2-0.3-0.2-0.4c0-0.3,0-0.6,0-0.9
						c0-0.1,0-0.2,0-0.3c0-0.1,0.1-0.2,0.2-0.4c0,0,0,0-0.1-0.1c-0.1,0.2-0.3,0.3-0.5,0.3c0,0,0,0,0,0c-0.2,0-0.3-0.1-0.4-0.3
						c0,0,0,0-0.1,0.1c-0.1,0.1-0.1,0.1-0.1,0.2c0,0.1,0,0.1,0,0.2c0,0.4,0,0.8,0,1.3c0,0.1,0,0.1,0,0.2
						C487.3,202.5,487.4,202.6,487.4,202.7C487.4,202.7,487.4,202.7,487.4,202.7z"/>
				</g>
				<g id="XMLID_2347_">
					<path id="XMLID_2348_" class="st3" d="M487.5,188c0.1-0.2,0.2-0.4,0.5-0.4c0.1,0,0.2,0,0.3,0.1c0-0.1-0.1-0.2-0.1-0.3
						c0-0.1,0-0.3,0-0.4c0-0.2,0-0.4,0-0.6c0-0.2,0.1-0.4,0.2-0.5c0,0,0,0,0-0.1c0,0,0,0,0,0c-0.1,0.2-0.3,0.3-0.5,0.3c0,0,0,0,0,0
						c-0.2,0-0.4-0.1-0.4-0.3c-0.1,0.1-0.2,0.2-0.2,0.3c0,0.1,0,0.2,0,0.2c0,0.3,0,0.7,0,1l0,0.1c0,0.1,0,0.2,0,0.3
						C487.3,187.8,487.4,187.9,487.5,188z"/>
				</g>
				<g id="XMLID_2223_">
					<path id="XMLID_2346_" class="st3" d="M494.3,211.2c0-0.1,0-0.1,0-0.2c0-0.2,0-0.4,0.1-0.5c0.2-0.2,0.3-0.4,0.5-0.6
						c0,0-0.1,0-0.1-0.1c-0.1-0.1-0.2-0.3-0.1-0.5c0,0-0.1,0-0.1,0c-0.2,0-0.3,0.1-0.4,0.2c-0.1,0.1-0.1,0.2-0.2,0.2
						c-0.2,0.2-0.4,0.5-0.6,0.7c0,0-0.1,0.1-0.1,0.2c0,0.2,0,0.4,0,0.6c0.1,0,0.2,0,0.3,0c0.2,0,0.3,0.2,0.4,0.3
						c0.2,0,0.3-0.1,0.5-0.3c0,0,0,0,0,0C494.4,211.3,494.3,211.3,494.3,211.2L494.3,211.2z"/>
				</g>
				<g id="XMLID_2221_">
					<path id="XMLID_2222_" class="st3" d="M491.6,212.4c-0.2,0-0.3,0-0.5,0c0,0,0,0-0.1,0c0,0-0.1,0-0.1,0l0,0
						c0.2,0.1,0.4,0.1,0.6,0.1c0,0,0.1,0,0.1,0c0.1,0,0.2,0,0.3-0.1c0,0,0.1,0,0.1,0c0,0,0.1,0,0.1,0c0.2,0,0.3,0,0.5,0c0,0,0,0,0,0
						c-0.1,0-0.3,0-0.4,0C492,212.4,491.8,212.4,491.6,212.4z"/>
				</g>
				<g id="XMLID_2219_">
					<path id="XMLID_2220_" class="st3" d="M496,192.8C496,192.8,496,192.8,496,192.8c0.1-0.2,0.3-0.3,0.5-0.3c0,0,0,0,0,0
						c0.2,0,0.3,0.1,0.4,0.3c0,0,0,0.1,0,0.1c0,0,0,0,0,0c0,0,0,0,0-0.1c-0.1-0.1-0.2-0.3-0.2-0.4c0-0.3,0-0.6,0-0.9
						c0-0.1,0-0.2,0-0.3c0-0.1,0.1-0.2,0.2-0.4c0,0,0,0-0.1-0.1c-0.1,0.2-0.3,0.3-0.5,0.3h0c-0.2,0-0.3-0.1-0.4-0.3c0,0,0,0-0.1,0.1
						c-0.1,0.1-0.1,0.1-0.1,0.2c0,0.1,0,0.1,0,0.2c0,0.4,0,0.8,0,1.3c0,0.1,0,0.1,0,0.2C495.9,192.7,495.9,192.7,496,192.8
						C496,192.8,496,192.8,496,192.8z"/>
				</g>
				<g id="XMLID_2217_">
					<path id="XMLID_2218_" class="st3" d="M487.4,192.8C487.5,192.8,487.5,192.8,487.4,192.8c0.1-0.2,0.3-0.3,0.5-0.3c0,0,0,0,0,0
						c0.2,0,0.3,0.1,0.4,0.3c0,0,0,0.1,0,0.1c0,0,0,0,0,0c0,0,0,0,0-0.1c-0.1-0.1-0.2-0.3-0.2-0.4c0-0.3,0-0.6,0-0.9
						c0-0.1,0-0.2,0-0.3c0-0.1,0.1-0.2,0.2-0.4c0,0,0,0-0.1-0.1c-0.1,0.2-0.3,0.3-0.5,0.3c-0.2,0-0.3-0.1-0.4-0.3c0,0,0,0-0.1,0.1
						c-0.1,0.1-0.1,0.1-0.1,0.2c0,0.1,0,0.1,0,0.2c0,0.4,0,0.8,0,1.3c0,0.1,0,0.1,0,0.2C487.3,192.7,487.4,192.7,487.4,192.8
						C487.4,192.8,487.4,192.8,487.4,192.8z"/>
				</g>
				<g id="XMLID_2214_">
					<path id="XMLID_2216_" class="st3" d="M487.4,183C487.5,183,487.5,182.9,487.4,183c0.1-0.2,0.3-0.3,0.5-0.3c0,0,0,0,0,0
						c0.2,0,0.3,0.1,0.4,0.3c0,0,0,0.1,0,0.1c0,0,0,0,0,0c0,0,0,0,0-0.1c-0.1-0.1-0.2-0.3-0.2-0.4c0-0.3,0-0.6,0-0.9
						c0-0.1,0-0.2,0-0.3c0-0.1,0.1-0.2,0.2-0.4c0,0,0,0-0.1-0.1c-0.1,0.2-0.3,0.3-0.5,0.3h0c-0.2,0-0.3-0.1-0.4-0.3c0,0,0,0-0.1,0.1
						c-0.1,0.1-0.1,0.1-0.1,0.2c0,0.1,0,0.1,0,0.2c0,0.4,0,0.8,0,1.3c0,0.1,0,0.1,0,0.2C487.3,182.8,487.4,182.9,487.4,183
						C487.4,183,487.4,183,487.4,183z"/>
				</g>
				<g id="XMLID_2211_">
					<path id="XMLID_2212_" class="st3" d="M491,209c0.3,0.3,0.5,0.6,0.8,0.9c0.2,0.3,0.4,0.6,0.4,0.9c0,0.1,0.1,0.2,0,0.3
						c0,0.1,0,0.2,0,0.3c0,0,0,0,0.1,0c-0.1-0.5,0-0.9,0.3-1.3c0.1-0.1,0.1-0.1,0.2-0.2c-0.2-0.3-0.5-0.5-0.7-0.8
						c-0.3-0.3-0.6-0.5-0.9-0.5c-0.2,0-0.5-0.1-0.8,0.1C490.5,208.6,490.8,208.7,491,209z"/>
				</g>
				<g id="XMLID_2207_">
					<path id="XMLID_2209_" class="st3" d="M487.5,197.8c0.1-0.2,0.2-0.4,0.5-0.4c0.1,0,0.2,0,0.3,0.1c0-0.1-0.1-0.2-0.1-0.3
						c0-0.1,0-0.3,0-0.4c0-0.2,0-0.4,0-0.6c0-0.2,0.1-0.4,0.2-0.5c0,0,0,0,0-0.1c0,0,0,0,0,0c-0.1,0.2-0.3,0.3-0.5,0.3c0,0,0,0,0,0
						c-0.2,0-0.4-0.1-0.4-0.3c-0.1,0.1-0.2,0.2-0.2,0.3c0,0.1,0,0.2,0,0.2c0,0.3,0,0.7,0,1l0,0.1c0,0.1,0,0.2,0,0.3
						C487.3,197.6,487.4,197.7,487.5,197.8z"/>
				</g>
				<g id="XMLID_2198_">
					<path id="XMLID_2199_" class="st3" d="M496,197.8c0.1-0.2,0.2-0.4,0.5-0.4c0.1,0,0.2,0,0.3,0.1c0-0.1-0.1-0.2-0.1-0.3
						c0-0.1,0-0.3,0-0.4c0-0.2,0-0.4,0-0.6c0-0.2,0.1-0.4,0.2-0.5c0,0,0,0,0-0.1c0,0,0,0,0,0c-0.1,0.2-0.3,0.3-0.5,0.3c0,0,0,0,0,0
						c-0.2,0-0.4-0.1-0.4-0.3c-0.1,0.1-0.2,0.2-0.2,0.3c0,0.1,0,0.2,0,0.2c0,0.3,0,0.7,0,1l0,0.1c0,0.1,0,0.2,0,0.3
						C495.9,197.6,495.9,197.7,496,197.8z"/>
				</g>
				<g id="XMLID_2196_">
					<path id="XMLID_2197_" class="st3" d="M498.1,193.9c0,0,0.1,0,0.1,0c0.7-0.3,1-0.8,1-1.5c0-0.4,0-0.8,0-1.2
						c0-0.4-0.1-0.7-0.4-1v0c-0.2-0.2-0.4-0.5-0.8-0.5c0-0.1,0-0.3,0-0.4c0-0.1,0-0.1,0-0.2c0.6-0.3,1.1-0.9,1.1-1.6
						c0-0.2,0-0.4,0-0.6c0-0.2,0-0.3,0-0.5c0-0.5-0.1-0.9-0.5-1.2l0,0c-0.2-0.2-0.3-0.4-0.7-0.4c0-0.2,0-0.4,0-0.6c0,0,0,0,0,0
						c0,0,0.1,0,0.1,0c0.7-0.3,1-0.8,1-1.5c0-0.4,0-0.8,0-1.2c0-0.4-0.1-0.7-0.4-1v0c-0.2-0.2-0.4-0.5-0.8-0.5c0-0.1,0-0.3,0-0.4
						c0-0.2,0-0.4,0-0.7c0-0.1,0-0.2,0-0.3c0,0,0,0,0-0.1c0,0,0,0,0-0.1c0-0.1,0-0.1-0.1-0.2c-0.1-0.3-0.3-0.3-0.5-0.3
						c-0.2,0-0.4,0.2-0.5,0.4c0,0,0,0.1,0,0.1c0,0,0,0,0,0c0,0,0,0,0,0.1c0,0,0,0,0,0.1c0,0.1,0,0.2,0,0.3c0,0.2,0,0.4,0,0.7
						c0,0.1,0,0.3,0,0.4c0.4,0.1,0.6,0.3,0.8,0.5v0c0.2,0.2,0.3,0.5,0.3,0.8c0,0.1,0,0.2,0,0.2c0,0.4,0,0.7,0,1.1c0,0.1,0,0.2,0,0.3
						c-0.1,0.6-0.4,1-1,1.3c0,0-0.1,0-0.1,0c0,0,0,0,0,0c0,0.2,0,0.4,0,0.6c0.3,0,0.5,0.2,0.7,0.4l0,0c0.2,0.2,0.4,0.5,0.4,0.9
						c0,0.1,0.1,0.2,0.1,0.3c0,0.4,0,0.8,0,1.3c0,0.1,0,0.2-0.1,0.2c0,0,0,0,0,0c-0.1,0.6-0.5,1-1,1.2c0,0.1,0,0.1,0,0.2
						c0,0.1,0,0.3,0,0.4c0.4,0.1,0.6,0.3,0.8,0.5v0c0.2,0.2,0.3,0.5,0.3,0.8c0,0.1,0,0.2,0,0.2c0,0.4,0,0.7,0,1.1c0,0.1,0,0.2,0,0.3
						c-0.1,0.6-0.4,1-1,1.3c0,0-0.1,0-0.1,0c0,0,0,0,0,0c0,0.2,0,0.4,0,0.6c0.3,0,0.5,0.2,0.7,0.4l0,0c0.2,0.2,0.4,0.5,0.4,0.9
						c0,0.1,0.1,0.2,0.1,0.3c0,0.4,0,0.8,0,1.3c0,0.1,0,0.2-0.1,0.2c0,0,0,0,0,0c-0.1,0.6-0.5,1-1,1.2c0,0.1,0,0.1,0,0.2
						c0,0.1,0,0.3,0,0.4c0.4,0.1,0.6,0.3,0.8,0.5c0.2,0.2,0.3,0.5,0.3,0.8c0,0.1,0,0.2,0,0.2c0,0.4,0,0.7,0,1.1c0,0.1,0,0.2,0,0.3
						c-0.1,0.6-0.4,1-1,1.3c0,0-0.1,0-0.1,0c0,0,0,0,0,0c0,0.2,0,0.4,0,0.6c0.3,0,0.5,0.2,0.7,0.4l0,0c0.2,0.2,0.4,0.5,0.4,0.9
						c0,0.1,0.1,0.2,0.1,0.3c0,0.4,0,0.8,0,1.3c0,0.1,0,0.2,0,0.2c-0.1,0.7-0.6,1.2-1.3,1.3c-0.1,0-0.2,0-0.4,0c0,0-0.1,0-0.1,0
						c0,0,0,0-0.1,0.1c-0.1,0.1-0.2,0.2-0.3,0.3c0.2,0.2,0.3,0.5,0.3,0.8c0,0,0,0,0,0c0,0,0,0.1,0,0.1c0,0.1,0,0.2,0,0.3
						c0,0.3-0.1,0.5-0.3,0.8c-0.2,0.3-0.5,0.6-0.7,0.9c-0.2,0.3-0.5,0.5-0.8,0.6c0,0,0,0,0.1,0c0.2,0,0.3,0.1,0.5,0.1
						c0.5,0,0.9-0.2,1.3-0.6c0.3-0.3,0.5-0.6,0.7-0.9c0.2-0.3,0.4-0.7,0.3-1c0-0.3,0-0.6-0.3-0.9c0.1-0.1,0.2-0.2,0.3-0.3
						c0,0,0,0,0.1-0.1c0,0,0.1,0,0.1,0c0.1,0,0.3,0,0.4,0c0.8-0.2,1.3-0.9,1.3-1.7c0-0.2,0-0.4,0-0.6c0-0.2,0-0.3,0-0.5
						c0-0.5-0.1-0.9-0.5-1.2l0,0c-0.2-0.2-0.3-0.4-0.7-0.4c0-0.2,0-0.4,0-0.6c0,0,0,0,0,0c0,0,0.1,0,0.1,0c0.7-0.3,1-0.8,1-1.5
						c0-0.4,0-0.8,0-1.2c0-0.4-0.1-0.7-0.4-1c-0.2-0.2-0.4-0.5-0.8-0.5c0-0.1,0-0.3,0-0.4c0-0.1,0-0.1,0-0.2
						c0.6-0.3,1.1-0.9,1.1-1.6c0-0.2,0-0.4,0-0.6c0-0.2,0-0.3,0-0.5c0-0.5-0.1-0.9-0.5-1.2l0,0c-0.2-0.2-0.3-0.4-0.7-0.4
						C498,194.3,498,194.1,498.1,193.9C498,193.9,498,193.9,498.1,193.9z"/>
				</g>
			</g>
		</g>
		<rect id="XMLID_774_" x="495.8" y="157" class="st3" width="3.3" height="21.2"/>
		<rect id="XMLID_757_" x="495.8" y="156.3" class="st3" width="3.3" height="0.7"/>
		<rect id="XMLID_756_" x="495.8" y="178.2" class="st3" width="3.3" height="0.7"/>
		<rect id="XMLID_754_" x="487.3" y="157" class="st3" width="3.3" height="21.2"/>
		<rect id="XMLID_711_" x="487.3" y="156.3" class="st3" width="3.3" height="0.7"/>
		<rect id="XMLID_710_" x="487.3" y="178.2" class="st3" width="3.3" height="0.7"/>
	</g>
	<path id="gun" class="st3" d="M68.2,213.9c1.8,0.3,2.7,0.2,3.2-0.2c0.4-0.3,0.5-0.8,0.5-1.2l0.1-0.1l2.2-14.3L74,198
		c0.1-0.5,0.3-1.4,0.3-1.7c0-0.4-0.5-0.4-0.5-0.1c-0.1,0.5-0.2,0.8-0.2,1v-0.3l-0.2-0.1c-0.1,0-15-4.3-17.1-5.7
		c-2-1.4-2.2-3.3-2.2-5.2v-6c0-2.4-1.9-4-4.7-4c-1.3,0-2.3-0.6-2.8-1.4h0c-0.1-0.1-0.1-0.1-0.1-0.2c-0.2-0.4-0.4-0.8-0.5-1.2
		c-0.1-0.3-0.1-0.7-0.1-1.1c0-1.1,0-10.9,0-11.5c0-0.6-0.6-0.8-0.6-0.8H45c0-3.4,0-11.6,0-12.1c0-0.4-0.4-0.5-1.1-0.6v-0.3
		c0,0-0.3-0.4-2-0.3c-0.1,0-0.1,0-0.1,0v0c-1.6,0.1-3-0.4-3-0.4h-0.2c-0.1-0.2-0.8-0.4-1.6-0.4c-0.8,0-1.5,0.2-1.6,0.4h0v0.1
		c-0.3,0.1-0.6,0.3-0.6,0.7l0,0c-0.4,0.1-0.8,0.3-0.8,0.5c0,0,0,0.2,0,0.4c-0.1,0.1-0.4,0.4-0.7,0.8c-0.1,0.3-0.2,0.5-0.2,0.8
		c0,0.2,0.1,0.3,0.2,0.4c0.2,0.4,0.6,0.6,0.7,1.1c0,4.5,0,11.8,0,11.8v10.5v2.3v10.3h-0.2v10.2v2.5c-0.1,0-0.3,0.1-0.4,0.2
		c-0.1,0.1-0.2,0.2-0.3,0.3c0,0-0.2,0.3-0.5,0.3v0.5c0,0,0.3,0,0.6,0.5c0.1,0.1,0.2,0.2,0.2,0.3c0.2,0.2,0.4,0.1,0.4,0.1v2.6
		c0,0,0.5,0.3,1.3,0.7v0.2l0.1,0.1c0.1,0.1,0.3,0.1,0.4,0.2c0,0.1,0,0.2,0,0.4c0,0.5-0.1,1.5-0.9,2.2c-0.3,0.3-0.4,0.7-0.4,0.9
		c0,0.4,0.2,0.9,0.5,1c0.1,0.1,0.2,0,0.3,0c0.1-0.1,0.2-0.3,0.4-0.6c0.5-1,1.5-2.7,2.6-2.9c0.8,0.2,1.6,0.3,2.5,0.4
		c0,0,0.1,0.1,0.1,0.1c0.2,0,1.8,0.5,2,2.1c0.1,1,0.3,1.5,0.5,1.7c0,0.1,0,0.1,0,0.2c0,0,0,0.2,0,0.4c0,0.5,0.1,1.2,0.6,1.7
		c0.4,0.4,0.9,0.6,1.3,0.5c0.3-0.1,0.6-0.3,0.7-0.6c0-0.1,0-0.2,0.1-0.4c0.1-1.2,0.5-4.2,2.3-4.7c2.2-0.6,3.1-0.1,7.4,2.3h0
		c0.2,0.1,0.4,0.1,0.6,0c0.3-0.2,0.4-0.6,0.4-1.1c0,0,0,0,0,0c0.1,0.1,0.2,0.2,0.3,0.2c0.1,0.1,0.6,0.4,1.2,0.7
		C60.5,210.1,65.1,213,68.2,213.9L68.2,213.9L68.2,213.9z M39.7,146.9c-0.1,0-0.2,0-0.3,0v0l0,0L39.7,146.9z M49.3,177.1
		c1-0.1,1.9,0.2,2.6,0.8c0.6,0.6,1.1,1.4,1.1,2.1v3.3c-0.4,0.4-1.2,1.1-3.2,1.2c-1.8,0.1-3-0.7-3.4-1v-3.9
		C46.4,178.8,47.7,177.2,49.3,177.1L49.3,177.1L49.3,177.1L49.3,177.1z M41.8,146.9l1.1,0c0,0,0,0-0.1,0c-0.5,0-1.1,0-1.7,0v0h-0.2
		l0,0L41.8,146.9L41.8,146.9L41.8,146.9z"/>
	<path id="bat_x5F_1" class="st3" d="M325.1,184.1c-12.8,13.7-23.6,24.6-23.6,24.6c-4.8,0.3-1.5,4-1.5,4s3.6,2.8,3.6-2
		c0,0,10.4-11.3,23.2-25c12.8-13.7,47.7-37.1,39.9-44.4C358.7,133.8,337.9,170.4,325.1,184.1z"/>
	<path id="bat_x5F_2" class="st3" d="M323.7,143.8l-0.4-0.1l0.1,0.4l2,1.9c-0.2,0.2-0.3,0.3-0.5,0.5l-1.9-1.2l-0.4,0l0.2,0.4
		l1.9,1.2c-0.2,0.3-0.5,0.5-0.7,0.8l-0.8-0.3l-0.4,0l0.3,0.3l0.6,0.3c-9.2,10.1-20.3,27.6-28.3,36.1c-12.8,13.7-23.6,24.6-23.6,24.6
		c-4.8,0.3-1.5,4-1.5,4s3.6,2.8,3.6-2c0,0,10.4-11.3,23.2-25c7.8-8.3,23.6-20.2,33.2-29.9l0.5,0.7l0.4,0.2l-0.1-0.4l-0.5-0.7
		c0.2-0.3,0.5-0.5,0.7-0.8l0.6,1.3l0.4,0.3l0-0.4l-0.7-1.4c0.2-0.2,0.4-0.4,0.6-0.7l1.1,1.5l0.4,0.2l-0.1-0.4l-1.1-1.6
		c0.3-0.3,0.6-0.6,0.8-0.9l0.6,1.2l0.3,0.3l0-0.4l-0.6-1.4c0.3-0.3,0.5-0.6,0.7-0.9l1.6,1.7l0.4,0.1l-0.1-0.4l-1.7-1.8
		c0.2-0.3,0.4-0.6,0.7-0.9l1.6,2l0.4,0.2l-0.1-0.4l-1.6-2c0.1-0.1,0.2-0.3,0.3-0.4l1,1l0.4,0.1l-0.1-0.4l-1-1.1
		c0.1-0.2,0.2-0.3,0.3-0.5l2.4,2.3l0.4,0.1l-0.1-0.4l-2.5-2.3c0.1-0.2,0.2-0.3,0.3-0.5l2.6,1.7l0.4,0l-0.2-0.4l-2.6-1.7
		c0.1-0.3,0.3-0.5,0.4-0.8l1.9,0.8l0.4,0l-0.3-0.3l-1.9-0.8c0.2-0.4,0.3-0.9,0.4-1.3l2.2,0l0.4-0.2l-0.4-0.2l-2.1,0c0-0.4,0-0.7,0-1
		l0.9-0.4l0.2-0.4l-0.4,0l-0.7,0.4c0-0.2-0.1-0.3-0.1-0.5l1.7-1.2l0.2-0.4l-0.4,0.1l-1.6,1.2c-0.1-0.2-0.3-0.4-0.4-0.6l1.2-1.5
		l0.1-0.4l-0.4,0.2l-1.2,1.4c-0.2-0.2-0.4-0.4-0.7-0.5l1.8-2.2l0.1-0.4l-0.4,0.2l-1.8,2.3c-0.3-0.1-0.6-0.2-0.9-0.2l0.5-2.3
		l-0.1-0.4l-0.3,0.3l-0.5,2.4c-0.2,0-0.4,0-0.6,0l0-1.1l-0.2-0.4l-0.2,0.4l0,1.2c-0.3,0.1-0.5,0.1-0.8,0.2l-1.4-2.7l-0.4-0.3l0,0.4
		l1.3,2.7c-0.2,0.1-0.4,0.2-0.6,0.3l-1.2-2.4l-0.4-0.3l0,0.4l1.2,2.4c-0.2,0.1-0.4,0.2-0.6,0.4l-1.5-2.2l-0.4-0.2l0.1,0.4l1.5,2.1
		c-0.3,0.2-0.7,0.5-1,0.7l-0.7-1.6l-0.3-0.3l0,0.4l0.8,1.7c-0.3,0.2-0.5,0.4-0.8,0.7l-1.7-1.8l-0.4-0.1l0.1,0.4l1.7,1.8
		c-0.3,0.2-0.5,0.5-0.8,0.7l-1.5-1.8l-0.4-0.2l0.1,0.4l1.5,1.9c-0.1,0.1-0.3,0.3-0.4,0.4l-0.7-0.8l-0.4-0.1l0.1,0.4l0.8,0.8
		c-0.1,0.1-0.3,0.3-0.4,0.4L323.7,143.8z"/>
	<g id="hammer">
		<g id="XMLID_866_">
			<path id="XMLID_870_" class="st3" d="M464.4,161h-9.1c-0.4,0-0.7,0.3-0.7,0.7v3.8c0,0.4,0.3,0.7,0.7,0.7h19.6v-1.1L464.4,161z"/>
			<path id="XMLID_868_" class="st3" d="M465.5,184.6c-0.4-1.6-0.8-11.2-0.8-19.6h-1.3h-0.2h-1.3c0,8.4-0.4,18-0.8,19.6
				c-0.4,1.6-0.6,3.1-0.6,4.7V206c0,0.8,0.5,1.5,1.2,1.9c0.8,0.3,1.3,0.4,1.5,0.4v0c0,0,0,0,0.1,0c0.1,0,0.1,0,0.1,0v0
				c0.2,0,0.8-0.1,1.5-0.4c0.7-0.3,1.2-1.1,1.2-1.9v-16.7C466.1,187.7,465.9,186.1,465.5,184.6z"/>
		</g>
	</g>
	<path id="knife" class="st3" d="M366.4,195.8c1.5-2.5,3.5-4.7,5.7-6.6c10.3-8.8,33.9-30.6,31.1-45.5c0,0-4.3,1.5-10.2,6l0.2,1.4
		l-0.9-0.8c-2.2,1.8-4.6,4-7.1,6.8c0,0-0.8,2.1-2.1,4.8l0.5,0.9l-1,0.1c-1.5,3-3.5,6.5-5.7,9c-3.6,4-8.9,8.6-12.5,11.2
		c-0.1,0.1-0.3,0.2-0.4,0.4l0.4,0.6l-0.9-0.1c-0.9,1.2-1.3,2.7-0.9,4.2l0.2,1c0,0-2.2-0.4-5,3.6c-2.7,4.1-10.5,11.8-14.6,11.5
		c-4.1-0.2,0.5,5.1,2.4,6.8c1.9,1.6,4.4,2.5,6.3,0.1C353.7,209.1,363.2,200.9,366.4,195.8z"/>
	<g id="axe">
		<g id="XMLID_852_">
			<path id="XMLID_857_" class="st3" d="M430.4,154.8c0,0-5.6,12.7-14.9,18.9c0,0-13,10.1-22,20.2c-5.8,6.4-8.1,12.4-9.1,15.8
				c-0.5,1.7,0.7,3.3,2.4,3.5l1.9,0.2c1.3,0.1,2.5-0.7,2.9-2c1-3.5,3.6-10.8,10-18c6.5-7.2,13.3-12.1,16.7-14.2
				c1.4-0.9,2.6-2.1,3.5-3.5c2.9-4.3,9.4-13.9,13.2-18.2L430.4,154.8z"/>
			<path id="XMLID_854_" class="st3" d="M440.8,167.8l0.1,1.2h0c1.4,2,2.1,3.3,2.1,3.3c3.7-10.9-6.3-21.4-6.3-21.4l-8.3-11.8
				c-1,0.5-1.9,1.2-2.7,1.8l0.3,0.6l-0.7-0.3c-2.3,1.9-4,4.1-5.1,5.8l0.5,0.4l-0.8,0.1c-0.9,1.5-1.4,2.5-1.4,2.5l12.4,7.1
				c4.2,3.8,7.5,8,9.6,11L440.8,167.8z"/>
		</g>
	</g>
	<path id="crossbow" class="st3" d="M602.5,174.3c-6-10.4-16.5-17.3-28.5-18.6l2.4-2.4l0,0c0.8-0.8,1-1.9,0.5-2.9l-4.8-10
		c-0.5-0.8-1.3-1.3-2.2-1.3c-0.9,0-1.8,0.5-2.2,1.4l-4.8,9.9c-0.5,1-0.3,2.1,0.5,2.9l2.4,2.4c-11.9,1.3-22.5,8.2-28.5,18.6
		c-2.8,0-5.1,2.2-5.1,5s2.2,5.1,5,5.1h1.3c0.3,0,0.7,0,1-0.1v0.1l21.6,4.9v6.5c0,0.1,0,0.2,0,0.3l2.5,9c0.3,1.1,1.3,1.9,2.5,1.8l0,0
		v5.2c0,1.4,1.1,2.5,2.5,2.5h2.5c1.4,0,2.5-1.1,2.5-2.5V207l0,0c1.1,0,2.1-0.7,2.4-1.8l2.5-9c0.1-0.1,0.1-0.2,0.1-0.3v-6.5l21.7-4.9
		v-0.1c0.3,0.1,0.7,0.1,1,0.1h1.3c2.8,0,5-2.3,5-5.1S605.3,174.3,602.5,174.3L602.5,174.3z M566.1,204.5l-2.5-8.8v-14.9h2.5V204.5z
		 M566.1,178.2h-2.5c-1.4,0-2.5,1.1-2.5,2.5v6l-19.3-4.4c0-0.1,0.1-0.2,0.1-0.3c4.1-10.2,13.3-17.4,24.2-18.8V178.2z M576.2,195.7
		l-2.5,8.8v-23.7h2.5V195.7z M578.7,186.7v-6c0-1.4-1.1-2.5-2.5-2.5h-2.5v-15c10.9,1.4,20.1,8.6,24.2,18.8c0,0.1,0.1,0.2,0.1,0.3
		L578.7,186.7z"/>
	<rect id="XMLID_614_" x="35.8" y="76.6" class="st2" width="570.2" height="40.5"/>
	<text id="XMLID_615_" transform="matrix(1 0 0 1 35.771 91.4054)"><tspan x="0" y="0" class="st6 st7 st8">Look for some weapon to aid in your defense, be it a rifle or a knife to </tspan><tspan x="0" y="19" class="st6 st7 st8">help you kill a living dead.</tspan></text>
</g>
</svg>
